<svg width="530" height="250" viewBox="0 0 530 250" fill="none" xmlns="http://www.w3.org/2000/svg">
<ellipse cx="265" cy="192.5" rx="265" ry="57.5" fill="url(#paint0_linear)"/>
<path d="M128.751 73C127.315 77.9605 133.54 111.68 136.832 127.92C140.423 135.892 147.605 147.053 147.605 127.92C147.605 108.786 135.036 83.3343 128.751 73Z" fill="url(#paint1_linear)"/>
<path d="M109 124.376C114.686 124.376 127.135 126.68 131.445 135.892C136.832 147.407 113.489 137.663 109 124.376Z" fill="url(#paint2_linear)"/>
<path d="M171.845 112.861C170.409 107.901 160.473 116.7 155.685 121.719C155.685 125.262 152.094 132.349 155.685 135.892C159.276 139.435 173.641 119.062 171.845 112.861Z" fill="url(#paint3_linear)"/>
<path d="M72.2883 113.36C70.8352 115.96 71.6828 125.035 72.2883 129.248C63.3272 129.248 52.3076 133.942 53.0341 135.025C54.124 136.65 60.1787 137.192 66.4757 138.275C67.2023 139.358 68.2923 138.636 67.9288 141.886C67.2464 147.987 65.0226 153.441 67.2023 154.885C69.382 156.329 76.2846 143.691 78.8276 143.691C80.2808 143.691 96.9919 153.441 96.9919 150.552C96.9919 147.663 81.7338 136.831 83.5502 136.47C85.3667 136.109 97.3552 129.248 96.9919 125.637C96.7013 122.748 85.4878 126.841 79.9173 129.248C77.9798 122.869 73.7415 110.76 72.2883 113.36Z" fill="url(#paint4_linear)"/>
<path d="M251.564 117.025C249.232 107.7 254.694 105.8 257.716 106.016C259.011 107.311 259.119 110.657 259.011 112.168C257.198 111.132 253.291 114.974 251.564 117.025Z" fill="url(#paint5_linear)"/>
<path d="M257.392 106.34C255.989 107.527 252.924 111.132 251.887 116.053" stroke="#F8F8F8"/>
<path d="M275.597 123.025C276.66 118.775 274.171 117.909 272.793 118.007C272.203 118.598 272.154 120.122 272.203 120.811C273.029 120.339 274.81 122.09 275.597 123.025Z" fill="url(#paint6_linear)"/>
<path d="M272.941 118.155C273.58 118.696 274.977 120.339 275.449 122.582" stroke="#F8F8F8"/>
<path d="M383.765 63.9458C369.72 59.1436 371.84 50.4699 374.656 46.7334C377.421 46.1413 381.849 48.8086 383.717 50.2162C380.853 51.6974 382.556 59.9865 383.765 63.9458Z" fill="url(#paint7_linear)"/>
<path d="M374.804 47.4246C375.165 50.2397 377.267 57.238 382.777 62.7108" stroke="#F8F8F8"/>
<path d="M275.5 10.5001C274.7 10.9001 237.167 33.303 218 44.6363L220.5 79.6364L225.5 88.1364C229.9 96.9364 238 96.4697 241.5 95.1364L269.5 78.6364L271 81.1364C274.2 87.9364 281.667 87.9697 285 87.1364C289.167 84.803 298.8 79.1364 304 75.1364C309.2 71.1364 308.5 64.1363 307.5 61.1363C298.167 44.6363 278.5 11.9 278.5 11.5C278.5 11 276.5 10.0001 275.5 10.5001Z" fill="url(#paint8_linear)"/>
<path d="M267.041 97.2842C274.663 92.5111 272.215 87.687 270.038 85.8716C268.324 85.9044 266.08 88.0896 265.173 89.178C267.067 89.6562 267.208 94.7814 267.041 97.2842Z" fill="url(#paint9_linear)"/>
<path d="M270.045 86.3C270.221 88.0107 269.948 92.4295 267.453 96.4193" stroke="#F8F8F8"/>
<path d="M275.141 10.2875L221.641 41.7875C217.241 44.3781 214.141 49.2003 213.141 51.2875C211.808 58.4541 208.941 74.4875 208.141 81.2875C207.341 88.0875 210.141 87.7875 211.641 86.7875C228.141 77.7875 262.341 59.0875 267.141 56.2875C271.941 53.4875 274.474 48.1208 275.141 45.7875C276.474 37.9542 279.141 20.8875 279.141 15.2875C279.141 9.6875 276.474 9.62083 275.141 10.2875Z" fill="url(#paint10_linear)"/>
<circle cx="216" cy="11" r="11" fill="url(#paint11_linear)"/>
<path fill-rule="evenodd" clip-rule="evenodd" d="M363.89 29.2916C362.187 30.3734 360.167 31 358 31C355.833 31 353.813 30.3734 352.11 29.2916C350.716 32.0829 347.832 34 344.5 34C339.806 34 336 30.1944 336 25.5C336 20.8056 339.806 17 344.5 17C345.478 17 346.418 17.1652 347.293 17.4694C348.436 12.6141 352.796 9 358 9C363.204 9 367.564 12.6141 368.707 17.4694C369.582 17.1652 370.522 17 371.5 17C376.194 17 380 20.8056 380 25.5C380 30.1944 376.194 34 371.5 34C368.168 34 365.284 32.0829 363.89 29.2916Z" fill="url(#paint12_linear)"/>
<rect x="379" y="114" width="3" height="25" fill="url(#paint13_linear)"/>
<ellipse cx="380" cy="103.5" rx="9" ry="9.5" fill="url(#paint14_linear)"/>
<path d="M364 118.5C362.8 115.7 363.5 115.131 364.829 114.631C366 114.631 372.329 112.631 373.829 115.131C375.329 117.631 373.171 121 369.5 121C364.28 121 364.214 119 364 118.5Z" fill="url(#paint15_linear)"/>
<path d="M396.311 118.627C397.511 115.827 396.811 115.257 395.482 114.757C394.311 114.757 387.982 112.757 386.482 115.257C384.982 117.757 387.14 121.127 390.811 121.127C396.031 121.127 396.097 119.127 396.311 118.627Z" fill="url(#paint16_linear)"/>
<path d="M198.83 221.508C198.606 222.012 198.354 222.53 198.158 222.88L199.04 223.062C199.39 222.502 199.81 221.55 200.174 220.752L199.46 220.556L199.292 220.598H194.056C194.224 220.248 194.378 219.898 194.518 219.548L193.552 219.31C193.09 220.626 192.278 221.9 191.326 222.726C191.55 222.88 191.942 223.202 192.11 223.384C192.628 222.88 193.132 222.236 193.566 221.508H198.83ZM197.388 223.496C198.074 224.364 198.788 225.554 199.096 226.338L199.992 225.876C199.67 225.106 198.942 223.944 198.228 223.104L197.388 223.496ZM195.638 229.306C195.246 228.62 194.364 227.612 193.594 226.898L192.796 227.36C193.552 228.102 194.42 229.138 194.77 229.81L195.638 229.306ZM193.538 223.132C193.16 224.098 192.516 225.078 191.788 225.736C192.012 225.876 192.39 226.156 192.572 226.324C193.3 225.61 194.042 224.504 194.49 223.398L193.538 223.132ZM196.618 221.984H195.624V226.072C195.624 226.226 195.568 226.268 195.4 226.268C195.218 226.282 194.644 226.282 193.986 226.268C194.112 226.534 194.266 226.898 194.322 227.178C195.204 227.178 195.764 227.178 196.128 227.01C196.52 226.856 196.618 226.604 196.618 226.086V221.984ZM188.694 231.504C189.212 230.65 189.702 229.334 190.066 228.424L189.128 228.046C188.82 228.956 188.274 230.23 187.714 231.056L188.694 231.504ZM190.878 219.254C190.08 220.808 188.82 222.348 187.532 223.314C187.742 223.51 188.078 223.93 188.218 224.126C188.666 223.748 189.128 223.3 189.562 222.81V227.248H190.57V221.564C191.032 220.92 191.466 220.248 191.802 219.562L190.878 219.254ZM192.824 230.846C191.9 230.846 191.732 230.776 191.732 230.37V227.962H190.696V230.384C190.696 231.518 191.13 231.812 192.782 231.812H196.114C197.5 231.812 197.836 231.378 197.976 229.614C197.682 229.558 197.248 229.404 197.01 229.222C196.94 230.636 196.814 230.846 196.044 230.846H192.824ZM197.724 228.144C198.354 229.138 198.998 230.482 199.194 231.336L200.188 230.93C199.95 230.076 199.292 228.788 198.634 227.794L197.724 228.144ZM206.152 225.386H203.212V222.46H206.152V225.386ZM203.212 229.67V226.31H206.152V229.67H203.212ZM204.388 219.254C204.29 219.912 204.038 220.85 203.828 221.522H202.26V231.714H203.212V230.608H207.104V221.522H204.78C205.018 220.92 205.27 220.15 205.508 219.464L204.388 219.254ZM213.95 221.48H209.764C210.002 220.822 210.198 220.15 210.366 219.464L209.372 219.226C208.924 221.144 208.168 223.076 207.23 224.308C207.454 224.448 207.902 224.728 208.084 224.896C208.574 224.238 209.008 223.384 209.4 222.446H212.956C212.774 228.018 212.564 230.146 212.102 230.636C211.962 230.818 211.808 230.846 211.528 230.846C211.206 230.846 210.366 230.846 209.456 230.762C209.652 231.056 209.778 231.476 209.806 231.784C210.59 231.826 211.388 231.854 211.878 231.798C212.354 231.756 212.676 231.63 212.984 231.238C213.544 230.552 213.726 228.396 213.95 222.012V221.48ZM211.738 227.78C211.29 226.954 210.324 225.61 209.54 224.616L208.728 225.092C209.498 226.1 210.436 227.486 210.856 228.326L211.738 227.78ZM219.564 219.702C218.738 221.788 217.338 223.79 215.77 225.022C216.036 225.19 216.512 225.554 216.736 225.764C218.248 224.392 219.732 222.278 220.67 220.01L219.564 219.702ZM223.554 227.164C224.1 227.85 224.702 228.662 225.262 229.446L218.752 229.838C220.124 228.214 221.496 226.142 222.644 224.028L221.524 223.524C220.404 225.848 218.71 228.27 218.164 228.886C217.632 229.558 217.254 229.978 216.89 230.062C217.044 230.356 217.24 230.93 217.296 231.154C217.814 230.958 218.57 230.916 225.92 230.412C226.284 230.986 226.62 231.532 226.844 231.98L227.852 231.42C227.166 230.16 225.738 228.2 224.52 226.716L223.554 227.164ZM223.274 219.996C224.352 222.096 226.13 224.434 227.572 225.764C227.782 225.484 228.174 225.092 228.44 224.882C226.998 223.72 225.22 221.508 224.296 219.604L223.274 219.996ZM236.77 226.002V228.606H232.276V226.002H236.77ZM237.792 229.53V225.078H231.254V230.552H232.276V229.53H237.792ZM238.744 222.642H230.372V223.58H238.744V222.642ZM241.39 220.192H230.274V221.186H240.34V230.524C240.34 230.79 240.27 230.86 240.004 230.874C239.724 230.888 238.758 230.888 237.792 230.86C237.96 231.154 238.114 231.672 238.156 231.98C239.402 231.98 240.27 231.966 240.76 231.784C241.236 231.602 241.39 231.238 241.39 230.524V220.192ZM251.064 230.048H252.128V222.81C252.45 222.32 252.716 221.802 252.982 221.27H255.936V220.248H247.578V221.27H251.82C250.686 223.496 248.964 225.386 246.962 226.618C247.2 226.814 247.606 227.234 247.746 227.444C248.95 226.632 250.084 225.568 251.064 224.336V230.048ZM252.464 224.196C253.472 225.204 254.802 226.59 255.446 227.416L256.216 226.674C255.558 225.89 254.2 224.546 253.192 223.58L252.464 224.196ZM247.186 221.802C246.724 221.172 245.758 220.206 245.002 219.506L244.204 220.066C244.974 220.794 245.898 221.816 246.332 222.46L247.186 221.802ZM246.5 224H243.63V225.022H245.478V229.362C244.862 229.614 244.148 230.258 243.406 231.112L244.176 232.106C244.848 231.14 245.492 230.258 245.94 230.258C246.248 230.258 246.724 230.748 247.298 231.14C248.32 231.756 249.482 231.924 251.316 231.924C252.702 231.924 255.264 231.826 256.258 231.77C256.272 231.448 256.454 230.902 256.58 230.608C255.194 230.776 253.066 230.902 251.33 230.902C249.706 230.902 248.488 230.79 247.564 230.202C247.074 229.894 246.78 229.628 246.5 229.446V224ZM270.146 226.03V225.008H264.518V222.6H269.18V221.578H264.518V219.296H263.44V221.578H258.918V222.6H263.44V225.008H257.91V226.03H262.852C261.592 227.836 259.478 229.572 257.532 230.44C257.77 230.636 258.106 231.042 258.288 231.294C260.122 230.37 262.082 228.704 263.44 226.842V232.078H264.518V226.786C265.876 228.648 267.864 230.384 269.712 231.294C269.894 231.028 270.23 230.622 270.468 230.426C268.522 229.572 266.394 227.822 265.12 226.03H270.146ZM274.878 230.958C274.164 230.958 274.038 230.86 274.038 230.342V225.302H277.076C276.964 226.996 276.824 227.668 276.67 227.878C276.558 227.99 276.446 228.004 276.264 228.004C276.054 228.004 275.578 228.004 275.074 227.948C275.2 228.2 275.298 228.564 275.326 228.844C275.886 228.886 276.418 228.872 276.698 228.858C277.048 228.816 277.286 228.732 277.496 228.494C277.818 228.144 277.944 227.206 278.084 224.798C278.098 224.672 278.098 224.378 278.098 224.378H273.03V230.342C273.03 231.56 273.45 231.868 274.794 231.868H277.384C278.616 231.868 278.924 231.336 279.05 229.404C278.77 229.348 278.364 229.18 278.126 229.026C278.056 230.664 277.958 230.958 277.314 230.958H274.878ZM275.41 219.31C274.668 221.116 273.198 223.034 271.434 224.294C271.658 224.462 272.022 224.826 272.19 225.022C273.562 223.958 274.752 222.558 275.634 221.046C276.74 222.236 277.944 223.678 278.574 224.616L279.316 223.93C278.644 222.936 277.244 221.382 276.096 220.206C276.194 219.996 276.292 219.814 276.376 219.604L275.41 219.31ZM280.982 220.92H279.988V228.634H280.982V220.92ZM282.704 219.506V230.692C282.704 230.944 282.592 231.028 282.34 231.042C282.074 231.056 281.192 231.07 280.212 231.028C280.366 231.308 280.52 231.756 280.576 232.022C281.878 232.036 282.648 232.008 283.096 231.84C283.53 231.672 283.726 231.392 283.726 230.692V219.506H282.704ZM296.298 221.298V222.348H294.114V221.298H296.298ZM296.298 224.266H294.114V223.174H296.298V224.266ZM293.12 222.348H289.62V223.174H293.12V224.266H290.432V225.092H293.12V226.17H290.32V226.954H293.12V228.046H289.732V228.886H293.12V230.272H294.114V228.886H298.076V228.046H294.114V226.954H297.558V226.17H294.114V225.092H297.236V223.174H298.202V222.348H297.236V220.472H294.114V219.296H293.12V220.472H290.53V221.298H293.12V222.348ZM289.102 224.098L288.92 224.126H287.716C288.402 223.09 289.102 221.788 289.746 220.444L289.074 220.01L288.738 220.164H285.924V221.088H288.346C287.8 222.32 287.1 223.468 286.848 223.818C286.568 224.252 286.232 224.588 285.966 224.644C286.106 224.868 286.33 225.288 286.4 225.484C286.4 225.344 286.736 225.162 286.96 225.05H288.654C288.472 226.296 288.192 227.374 287.842 228.298C287.45 227.724 287.156 227.024 286.904 226.184L286.134 226.492C286.47 227.612 286.89 228.494 287.408 229.208C286.904 230.132 286.288 230.846 285.56 231.364C285.798 231.504 286.162 231.868 286.33 232.078C287.002 231.546 287.59 230.86 288.08 229.978C289.536 231.378 291.552 231.728 294.128 231.728H298.034C298.09 231.448 298.272 231 298.426 230.762C297.712 230.776 294.702 230.776 294.156 230.776C291.79 230.776 289.872 230.468 288.514 229.124C289.074 227.822 289.48 226.226 289.69 224.266L289.102 224.098ZM312.146 222.068V221.074H307.47C307.288 220.584 306.91 219.786 306.56 219.184L305.552 219.436C305.818 219.94 306.112 220.584 306.294 221.074H300.736V224.882C300.736 226.856 300.638 229.614 299.574 231.602C299.798 231.7 300.288 231.994 300.456 232.176C301.59 230.09 301.772 226.982 301.772 224.882V222.068H312.146ZM307.876 227.864C307.666 226.562 307.148 224.616 306.672 223.118L305.734 223.37C306.196 224.882 306.7 226.856 306.896 228.144L307.876 227.864ZM305.188 228.536C304.894 227.248 304.222 225.302 303.606 223.79L302.71 224.154C303.284 225.652 303.956 227.64 304.222 228.928L305.188 228.536ZM308.548 230.426C309.822 228.27 310.858 225.736 311.53 223.426L310.438 223.034C309.892 225.428 308.828 228.27 307.484 230.426H301.954V231.42H312.328V230.426H308.548ZM320.588 226.814V224.49H324.354V226.814H320.588ZM316.15 226.814C316.192 226.296 316.206 225.778 316.206 225.316V224.49H319.552V226.814H316.15ZM319.552 221.27V223.51H316.206V221.27H319.552ZM324.354 223.51H320.588V221.27H324.354V223.51ZM325.376 220.276H315.184V225.316C315.184 227.262 315.044 229.726 313.504 231.462C313.728 231.588 314.148 231.938 314.302 232.148C315.366 230.958 315.842 229.362 316.052 227.808H319.552V231.938H320.588V227.808H324.354V230.65C324.354 230.916 324.256 231 323.976 231.014C323.724 231.014 322.772 231.028 321.792 230.986C321.932 231.266 322.1 231.714 322.142 231.994C323.458 232.008 324.27 231.994 324.746 231.826C325.194 231.644 325.376 231.336 325.376 230.664V220.276Z" fill="#777F97"/>
<defs>
<linearGradient id="paint0_linear" x1="265" y1="135" x2="265" y2="250" gradientUnits="userSpaceOnUse">
<stop stop-color="#BDDCF9" stop-opacity="0.41"/>
<stop offset="1" stop-color="white" stop-opacity="0"/>
</linearGradient>
<linearGradient id="paint1_linear" x1="129.649" y1="77.429" x2="151.558" y2="143.157" gradientUnits="userSpaceOnUse">
<stop stop-color="#DCEDFF"/>
<stop offset="1" stop-color="#AED4FF" stop-opacity="0"/>
</linearGradient>
<linearGradient id="paint2_linear" x1="129.649" y1="77.429" x2="151.558" y2="143.157" gradientUnits="userSpaceOnUse">
<stop stop-color="#DCEDFF"/>
<stop offset="1" stop-color="#AED4FF" stop-opacity="0"/>
</linearGradient>
<linearGradient id="paint3_linear" x1="129.649" y1="77.429" x2="151.558" y2="143.157" gradientUnits="userSpaceOnUse">
<stop stop-color="#DCEDFF"/>
<stop offset="1" stop-color="#AED4FF" stop-opacity="0"/>
</linearGradient>
<linearGradient id="paint4_linear" x1="73.3765" y1="113" x2="73.3765" y2="159.297" gradientUnits="userSpaceOnUse">
<stop stop-color="#DBEDFF"/>
<stop offset="1" stop-color="#C8E3FF" stop-opacity="0"/>
</linearGradient>
<linearGradient id="paint5_linear" x1="255.021" y1="106" x2="255.021" y2="117.025" gradientUnits="userSpaceOnUse">
<stop stop-color="#6AA3FF"/>
<stop offset="1" stop-color="#AECCFF"/>
</linearGradient>
<linearGradient id="paint6_linear" x1="274.021" y1="118" x2="274.021" y2="123.025" gradientUnits="userSpaceOnUse">
<stop stop-color="#6AA3FF"/>
<stop offset="1" stop-color="#AECCFF"/>
</linearGradient>
<linearGradient id="paint7_linear" x1="372.374" y1="50.213" x2="386.666" y2="59.4636" gradientUnits="userSpaceOnUse">
<stop stop-color="#6AA3FF"/>
<stop offset="1" stop-color="#AECCFF"/>
</linearGradient>
<linearGradient id="paint8_linear" x1="263.102" y1="10.0001" x2="263.102" y2="95.8763" gradientUnits="userSpaceOnUse">
<stop stop-color="#599AFF"/>
<stop offset="1" stop-color="#A3C5FF"/>
</linearGradient>
<linearGradient id="paint9_linear" x1="271.864" y1="87.6092" x2="264.711" y2="95.0407" gradientUnits="userSpaceOnUse">
<stop stop-color="#6AA3FF"/>
<stop offset="1" stop-color="#AECCFF"/>
</linearGradient>
<linearGradient id="paint10_linear" x1="243.57" y1="10" x2="243.57" y2="87.3257" gradientUnits="userSpaceOnUse">
<stop stop-color="#9CC2FF"/>
<stop offset="1" stop-color="#B9D4FF"/>
</linearGradient>
<linearGradient id="paint11_linear" x1="216" y1="0" x2="216" y2="22" gradientUnits="userSpaceOnUse">
<stop stop-color="#BEE0FF"/>
<stop offset="1" stop-color="white" stop-opacity="0"/>
</linearGradient>
<linearGradient id="paint12_linear" x1="371.5" y1="15" x2="371.5" y2="32" gradientUnits="userSpaceOnUse">
<stop stop-color="#BEE0FF"/>
<stop offset="1" stop-color="white" stop-opacity="0"/>
</linearGradient>
<linearGradient id="paint13_linear" x1="380.389" y1="114" x2="380.389" y2="141.558" gradientUnits="userSpaceOnUse">
<stop stop-color="#DBEDFF"/>
<stop offset="1" stop-color="#C8E3FF" stop-opacity="0"/>
</linearGradient>
<linearGradient id="paint14_linear" x1="379.336" y1="94" x2="379.336" y2="114.944" gradientUnits="userSpaceOnUse">
<stop stop-color="#DBEDFF"/>
<stop offset="1" stop-color="#C8E3FF" stop-opacity="0"/>
</linearGradient>
<linearGradient id="paint15_linear" x1="367.607" y1="114" x2="367.607" y2="122.402" gradientUnits="userSpaceOnUse">
<stop stop-color="#DBEDFF"/>
<stop offset="1" stop-color="#C8E3FF" stop-opacity="0"/>
</linearGradient>
<linearGradient id="paint16_linear" x1="392.704" y1="114.127" x2="392.704" y2="122.529" gradientUnits="userSpaceOnUse">
<stop stop-color="#DBEDFF"/>
<stop offset="1" stop-color="#C8E3FF" stop-opacity="0"/>
</linearGradient>
</defs>
</svg>
