<svg width="530" height="265" viewBox="0 0 530 265" fill="none" xmlns="http://www.w3.org/2000/svg">
<ellipse cx="265" cy="192.5" rx="265" ry="57.5" fill="url(#paint0_linear)"/>
<path d="M114.751 73C113.315 77.9605 119.54 111.68 122.832 127.92C126.423 135.892 133.605 147.053 133.605 127.92C133.605 108.786 121.036 83.3343 114.751 73Z" fill="url(#paint1_linear)"/>
<path d="M95 124.376C100.686 124.376 113.135 126.68 117.445 135.892C122.832 147.407 99.489 137.663 95 124.376Z" fill="url(#paint2_linear)"/>
<path d="M157.845 112.861C156.409 107.901 146.473 116.7 141.685 121.719C141.685 125.262 138.094 132.349 141.685 135.892C145.276 139.435 159.641 119.062 157.845 112.861Z" fill="url(#paint3_linear)"/>
<path d="M58.2883 113.36C56.8352 115.96 57.6828 125.035 58.2883 129.248C49.3272 129.248 38.3076 133.942 39.0341 135.025C40.124 136.65 46.1787 137.192 52.4757 138.275C53.2023 139.358 54.2923 138.636 53.9288 141.886C53.2464 147.987 51.0226 153.441 53.2023 154.885C55.382 156.329 62.2846 143.691 64.8276 143.691C66.2808 143.691 82.9919 153.441 82.9919 150.552C82.9919 147.663 67.7338 136.831 69.5502 136.47C71.3667 136.109 83.3552 129.248 82.9919 125.637C82.7013 122.748 71.4878 126.841 65.9173 129.248C63.9798 122.869 59.7415 110.76 58.2883 113.36Z" fill="url(#paint4_linear)"/>
<path d="M237.564 117.025C235.232 107.7 240.694 105.8 243.716 106.016C245.011 107.311 245.119 110.657 245.011 112.168C243.198 111.132 239.291 114.974 237.564 117.025Z" fill="url(#paint5_linear)"/>
<path d="M243.392 106.34C241.989 107.527 238.924 111.132 237.888 116.053" stroke="#F8F8F8"/>
<path d="M261.597 123.025C262.66 118.775 260.171 117.909 258.793 118.007C258.203 118.598 258.154 120.122 258.203 120.811C259.029 120.339 260.81 122.09 261.597 123.025Z" fill="url(#paint6_linear)"/>
<path d="M258.941 118.155C259.58 118.696 260.977 120.339 261.449 122.582" stroke="#F8F8F8"/>
<path d="M369.765 63.9458C355.72 59.1436 357.84 50.4699 360.656 46.7334C363.421 46.1413 367.849 48.8086 369.717 50.2162C366.853 51.6974 368.556 59.9865 369.765 63.9458Z" fill="url(#paint7_linear)"/>
<path d="M360.804 47.4246C361.165 50.2397 363.267 57.238 368.777 62.7108" stroke="#F8F8F8"/>
<path d="M261.5 10.5001C260.7 10.9001 223.167 33.303 204 44.6363L206.5 79.6364L211.5 88.1364C215.9 96.9364 224 96.4697 227.5 95.1364L255.5 78.6364L257 81.1364C260.2 87.9364 267.667 87.9697 271 87.1364C275.167 84.803 284.8 79.1364 290 75.1364C295.2 71.1364 294.5 64.1363 293.5 61.1363C284.167 44.6363 264.5 11.9 264.5 11.5C264.5 11 262.5 10.0001 261.5 10.5001Z" fill="url(#paint8_linear)"/>
<path d="M253.041 97.2842C260.664 92.5111 258.215 87.687 256.038 85.8716C254.324 85.9044 252.081 88.0896 251.173 89.178C253.067 89.6562 253.208 94.7814 253.041 97.2842Z" fill="url(#paint9_linear)"/>
<path d="M256.046 86.3C256.221 88.0107 255.948 92.4295 253.453 96.4193" stroke="#F8F8F8"/>
<path d="M261.141 10.2875L207.641 41.7875C203.241 44.3781 200.141 49.2003 199.141 51.2875C197.808 58.4541 194.941 74.4875 194.141 81.2875C193.341 88.0875 196.141 87.7875 197.641 86.7875C214.141 77.7875 248.341 59.0875 253.141 56.2875C257.941 53.4875 260.474 48.1208 261.141 45.7875C262.474 37.9542 265.141 20.8875 265.141 15.2875C265.141 9.6875 262.474 9.62083 261.141 10.2875Z" fill="url(#paint10_linear)"/>
<circle cx="202" cy="11" r="11" fill="url(#paint11_linear)"/>
<path fill-rule="evenodd" clip-rule="evenodd" d="M349.89 29.2916C348.187 30.3734 346.167 31 344 31C341.833 31 339.813 30.3734 338.11 29.2916C336.716 32.0829 333.832 34 330.5 34C325.806 34 322 30.1944 322 25.5C322 20.8056 325.806 17 330.5 17C331.478 17 332.418 17.1652 333.293 17.4694C334.436 12.6141 338.796 9 344 9C349.204 9 353.564 12.6141 354.707 17.4694C355.582 17.1652 356.522 17 357.5 17C362.194 17 366 20.8056 366 25.5C366 30.1944 362.194 34 357.5 34C354.168 34 351.284 32.0829 349.89 29.2916Z" fill="url(#paint12_linear)"/>
<rect x="365" y="114" width="3" height="25" fill="url(#paint13_linear)"/>
<ellipse cx="366" cy="103.5" rx="9" ry="9.5" fill="url(#paint14_linear)"/>
<path d="M350 118.5C348.8 115.7 349.5 115.131 350.829 114.631C352 114.631 358.329 112.631 359.829 115.131C361.329 117.631 359.171 121 355.5 121C350.28 121 350.214 119 350 118.5Z" fill="url(#paint15_linear)"/>
<path d="M382.311 118.627C383.511 115.827 382.811 115.257 381.482 114.757C380.311 114.757 373.982 112.757 372.482 115.257C370.982 117.757 373.14 121.127 376.811 121.127C382.031 121.127 382.097 119.127 382.311 118.627Z" fill="url(#paint16_linear)"/>
<path d="M219.83 221.508C219.606 222.012 219.354 222.53 219.158 222.88L220.04 223.062C220.39 222.502 220.81 221.55 221.174 220.752L220.46 220.556L220.292 220.598H215.056C215.224 220.248 215.378 219.898 215.518 219.548L214.552 219.31C214.09 220.626 213.278 221.9 212.326 222.726C212.55 222.88 212.942 223.202 213.11 223.384C213.628 222.88 214.132 222.236 214.566 221.508H219.83ZM218.388 223.496C219.074 224.364 219.788 225.554 220.096 226.338L220.992 225.876C220.67 225.106 219.942 223.944 219.228 223.104L218.388 223.496ZM216.638 229.306C216.246 228.62 215.364 227.612 214.594 226.898L213.796 227.36C214.552 228.102 215.42 229.138 215.77 229.81L216.638 229.306ZM214.538 223.132C214.16 224.098 213.516 225.078 212.788 225.736C213.012 225.876 213.39 226.156 213.572 226.324C214.3 225.61 215.042 224.504 215.49 223.398L214.538 223.132ZM217.618 221.984H216.624V226.072C216.624 226.226 216.568 226.268 216.4 226.268C216.218 226.282 215.644 226.282 214.986 226.268C215.112 226.534 215.266 226.898 215.322 227.178C216.204 227.178 216.764 227.178 217.128 227.01C217.52 226.856 217.618 226.604 217.618 226.086V221.984ZM209.694 231.504C210.212 230.65 210.702 229.334 211.066 228.424L210.128 228.046C209.82 228.956 209.274 230.23 208.714 231.056L209.694 231.504ZM211.878 219.254C211.08 220.808 209.82 222.348 208.532 223.314C208.742 223.51 209.078 223.93 209.218 224.126C209.666 223.748 210.128 223.3 210.562 222.81V227.248H211.57V221.564C212.032 220.92 212.466 220.248 212.802 219.562L211.878 219.254ZM213.824 230.846C212.9 230.846 212.732 230.776 212.732 230.37V227.962H211.696V230.384C211.696 231.518 212.13 231.812 213.782 231.812H217.114C218.5 231.812 218.836 231.378 218.976 229.614C218.682 229.558 218.248 229.404 218.01 229.222C217.94 230.636 217.814 230.846 217.044 230.846H213.824ZM218.724 228.144C219.354 229.138 219.998 230.482 220.194 231.336L221.188 230.93C220.95 230.076 220.292 228.788 219.634 227.794L218.724 228.144ZM230.064 230.048H231.128V222.81C231.45 222.32 231.716 221.802 231.982 221.27H234.936V220.248H226.578V221.27H230.82C229.686 223.496 227.964 225.386 225.962 226.618C226.2 226.814 226.606 227.234 226.746 227.444C227.95 226.632 229.084 225.568 230.064 224.336V230.048ZM231.464 224.196C232.472 225.204 233.802 226.59 234.446 227.416L235.216 226.674C234.558 225.89 233.2 224.546 232.192 223.58L231.464 224.196ZM226.186 221.802C225.724 221.172 224.758 220.206 224.002 219.506L223.204 220.066C223.974 220.794 224.898 221.816 225.332 222.46L226.186 221.802ZM225.5 224H222.63V225.022H224.478V229.362C223.862 229.614 223.148 230.258 222.406 231.112L223.176 232.106C223.848 231.14 224.492 230.258 224.94 230.258C225.248 230.258 225.724 230.748 226.298 231.14C227.32 231.756 228.482 231.924 230.316 231.924C231.702 231.924 234.264 231.826 235.258 231.77C235.272 231.448 235.454 230.902 235.58 230.608C234.194 230.776 232.066 230.902 230.33 230.902C228.706 230.902 227.488 230.79 226.564 230.202C226.074 229.894 225.78 229.628 225.5 229.446V224ZM243.252 220.766H245.982V222.824C245.982 223.972 246.206 224.406 247.214 224.406H248.516C248.81 224.406 249.16 224.392 249.342 224.322C249.3 224.042 249.272 223.622 249.244 223.314C249.048 223.37 248.712 223.398 248.488 223.398H247.284C247.046 223.398 247.004 223.258 247.004 222.852V219.786H242.244V221.368C242.244 222.418 241.922 223.608 240.074 224.476C240.27 224.63 240.634 225.022 240.76 225.232C242.804 224.252 243.252 222.712 243.252 221.396V220.766ZM240.34 220.99C239.766 220.57 238.632 219.912 237.806 219.478L237.218 220.22C238.058 220.696 239.164 221.396 239.738 221.83L240.34 220.99ZM239.696 224.644C239.108 224.238 237.946 223.622 237.106 223.216L236.532 223.986C237.4 224.42 238.534 225.078 239.108 225.498L239.696 224.644ZM239.458 226.73C238.702 228.284 237.68 230.118 236.966 231.196L237.834 231.868C238.604 230.58 239.528 228.83 240.214 227.374L239.458 226.73ZM246.948 226.408C246.402 227.472 245.604 228.354 244.652 229.068C243.7 228.326 242.944 227.43 242.426 226.408H246.948ZM247.69 225.386L247.494 225.428H240.788V226.408H241.67L241.39 226.506C241.964 227.738 242.762 228.802 243.77 229.656C242.566 230.356 241.18 230.846 239.752 231.112C239.934 231.35 240.172 231.784 240.284 232.064C241.838 231.7 243.336 231.14 244.624 230.314C245.786 231.126 247.2 231.714 248.782 232.078C248.922 231.784 249.23 231.35 249.454 231.112C247.984 230.846 246.64 230.342 245.534 229.67C246.78 228.676 247.788 227.374 248.376 225.694L247.69 225.386ZM260.458 226.044H254.62V224.63H260.458V226.044ZM254.62 228.41V226.94H260.458V228.41H254.62ZM263.118 222.068V221.088H255.992C256.202 220.584 256.37 220.052 256.538 219.534L255.502 219.282C255.334 219.884 255.124 220.486 254.886 221.088H250.938V222.068H254.452C253.556 223.916 252.282 225.596 250.602 226.73C250.812 226.926 251.134 227.304 251.274 227.528C252.156 226.912 252.926 226.156 253.598 225.33V232.064H254.62V229.306H260.458V230.762C260.458 230.972 260.374 231.042 260.136 231.056C259.884 231.056 259.044 231.07 258.12 231.028C258.26 231.322 258.414 231.742 258.456 232.05C259.646 232.05 260.43 232.036 260.892 231.868C261.34 231.7 261.48 231.392 261.48 230.762V223.692H254.732C255.04 223.174 255.32 222.614 255.586 222.068H263.118ZM267.948 222.922V223.888H270.538C269.852 225.022 268.886 225.988 267.584 226.632C267.78 226.828 268.074 227.206 268.214 227.43C269.81 226.604 270.93 225.358 271.7 223.888H273.45C274.22 225.274 275.522 226.548 276.866 227.206C277.02 226.954 277.328 226.59 277.538 226.408C276.376 225.904 275.242 224.952 274.514 223.888H277.314V222.922H272.148C272.4 222.32 272.61 221.69 272.764 221.046H276.824V220.08H268.592V221.046H271.658C271.518 221.69 271.308 222.32 271.042 222.922H267.948ZM268.088 220.864C267.612 220.374 266.632 219.786 265.848 219.422L265.246 220.164C266.044 220.556 267.01 221.2 267.472 221.676L268.088 220.864ZM267.5 224.476C266.996 224.042 265.988 223.496 265.162 223.16L264.574 223.916C265.414 224.294 266.422 224.882 266.912 225.33L267.5 224.476ZM265.82 231.896C266.436 230.65 267.122 229.026 267.64 227.64L266.814 227.066C266.24 228.55 265.442 230.272 264.882 231.294L265.82 231.896ZM269.712 226.94C269.39 228.004 268.802 229.208 267.934 229.908L268.704 230.482C269.614 229.684 270.16 228.382 270.524 227.248L269.712 226.94ZM271.448 230.93C271.448 231.084 271.406 231.14 271.224 231.14C271.028 231.154 270.426 231.154 269.726 231.14C269.866 231.406 269.978 231.798 270.02 232.064C270.958 232.064 271.56 232.064 271.938 231.91C272.316 231.742 272.414 231.462 272.414 230.93V225.442H271.448V230.93ZM272.974 227.43C273.394 228.368 273.786 229.586 273.912 230.398L274.752 230.076C274.612 229.292 274.206 228.074 273.772 227.15L272.974 227.43ZM274.71 227.052C275.494 228.116 276.32 229.572 276.67 230.524L277.51 230.076C277.174 229.138 276.32 227.724 275.508 226.66L274.71 227.052ZM284.86 221.914H281.766C281.78 221.116 281.794 220.304 281.794 219.478H280.772C280.772 220.304 280.772 221.116 280.758 221.914H278.798V222.936H280.73C280.618 226.436 280.198 229.53 278.462 231.364C278.714 231.518 279.092 231.854 279.246 232.078C281.136 230.034 281.612 226.688 281.738 222.936H283.852C283.754 228.298 283.628 230.202 283.306 230.594C283.208 230.79 283.068 230.832 282.844 230.818C282.592 230.818 281.99 230.818 281.346 230.762C281.528 231.056 281.626 231.504 281.654 231.812C282.27 231.854 282.914 231.854 283.292 231.798C283.712 231.756 283.964 231.63 284.216 231.266C284.65 230.664 284.748 228.634 284.86 222.446V221.914ZM286.988 229.838V222.026H289.704V229.838H286.988ZM286.008 221.018V231.854H286.988V230.832H289.704V231.756H290.74V221.018H286.008ZM305.146 222.068V221.074H300.47C300.288 220.584 299.91 219.786 299.56 219.184L298.552 219.436C298.818 219.94 299.112 220.584 299.294 221.074H293.736V224.882C293.736 226.856 293.638 229.614 292.574 231.602C292.798 231.7 293.288 231.994 293.456 232.176C294.59 230.09 294.772 226.982 294.772 224.882V222.068H305.146ZM300.876 227.864C300.666 226.562 300.148 224.616 299.672 223.118L298.734 223.37C299.196 224.882 299.7 226.856 299.896 228.144L300.876 227.864ZM298.188 228.536C297.894 227.248 297.222 225.302 296.606 223.79L295.71 224.154C296.284 225.652 296.956 227.64 297.222 228.928L298.188 228.536ZM301.548 230.426C302.822 228.27 303.858 225.736 304.53 223.426L303.438 223.034C302.892 225.428 301.828 228.27 300.484 230.426H294.954V231.42H305.328V230.426H301.548ZM313.588 226.814V224.49H317.354V226.814H313.588ZM309.15 226.814C309.192 226.296 309.206 225.778 309.206 225.316V224.49H312.552V226.814H309.15ZM312.552 221.27V223.51H309.206V221.27H312.552ZM317.354 223.51H313.588V221.27H317.354V223.51ZM318.376 220.276H308.184V225.316C308.184 227.262 308.044 229.726 306.504 231.462C306.728 231.588 307.148 231.938 307.302 232.148C308.366 230.958 308.842 229.362 309.052 227.808H312.552V231.938H313.588V227.808H317.354V230.65C317.354 230.916 317.256 231 316.976 231.014C316.724 231.014 315.772 231.028 314.792 230.986C314.932 231.266 315.1 231.714 315.142 231.994C316.458 232.008 317.27 231.994 317.746 231.826C318.194 231.644 318.376 231.336 318.376 230.664V220.276Z" fill="#777F97"/>
<path d="M134.612 257.996H127.346V255.504H134.612V257.996ZM135.662 254.524H131.406V252.76H136.698V251.78H131.406V250.296H130.37V254.524H126.352V258.976H135.662V254.524ZM125.582 263.064C126.338 262.336 127.052 261.16 127.514 260.068L126.534 259.816C126.086 260.852 125.372 261.972 124.63 262.602L125.582 263.064ZM128.774 260.194C128.956 261.09 129.082 262.252 129.082 262.952L130.118 262.812C130.104 262.14 129.95 260.992 129.768 260.11L128.774 260.194ZM131.644 260.208C132.064 261.062 132.484 262.224 132.624 262.91L133.632 262.672C133.464 261.972 133.016 260.838 132.582 259.998L131.644 260.208ZM134.486 260.082C135.186 260.978 135.956 262.182 136.278 262.952L137.258 262.56C136.908 261.776 136.11 260.614 135.396 259.732L134.486 260.082ZM145.574 256.708H151.076V255.672H145.574V253.474H150.11V252.452H145.574V250.296H144.51V252.452H139.988V253.474H144.51V255.672H138.966V256.708H144.51V261.272H141.192V257.772H140.114V262.28H148.836V263.078H149.886V257.772H148.836V261.272H145.574V256.708ZM160.876 261.664V257.478H164.614V256.47H156.746C157.054 255.602 157.334 254.72 157.558 253.81H164.978V252.802H157.81C157.992 252.004 158.132 251.206 158.272 250.422L157.194 250.296C157.068 251.108 156.914 251.962 156.732 252.802H152.994V253.81H156.494C155.738 256.736 154.52 259.55 152.462 261.426C152.658 261.622 152.994 262.014 153.148 262.238C154.772 260.726 155.906 258.738 156.718 256.54V257.478H159.84V261.664H155.29V262.672H165.23V261.664H160.876ZM173.084 261.37V255.826H178.292V254.79H173.084V250.506H171.992V261.37H166.77V262.406H179.244V261.37H173.084ZM187.854 258.934V257.128H191.158V258.934H187.854ZM183.64 258.934C183.724 258.304 183.752 257.688 183.752 257.128H186.818V258.934H183.64ZM188.778 252.102C188.47 252.578 188.064 253.096 187.658 253.502H183.71C184.13 253.04 184.522 252.578 184.872 252.102H188.778ZM183.752 254.454H186.818V256.218H183.752V254.454ZM191.158 256.218H187.854V254.454H191.158V256.218ZM192.208 253.502H188.848C189.394 252.928 189.912 252.256 190.262 251.654L189.576 251.164L189.408 251.22H185.46C185.614 250.954 185.754 250.716 185.894 250.464L184.746 250.254C184.046 251.654 182.716 253.348 180.854 254.622C181.092 254.776 181.442 255.112 181.624 255.364C182.002 255.084 182.352 254.804 182.702 254.496V257.002C182.702 258.71 182.52 260.894 180.98 262.448C181.19 262.574 181.624 262.98 181.764 263.19C182.702 262.266 183.206 261.076 183.486 259.872H186.818V262.77H187.854V259.872H191.158V261.72C191.158 261.93 191.074 262 190.836 262.014C190.598 262.014 189.758 262.028 188.876 262C189.03 262.28 189.212 262.728 189.254 263.022C190.402 263.022 191.172 263.008 191.62 262.84C192.054 262.658 192.208 262.35 192.208 261.734V253.502ZM197.878 261.958C197.164 261.958 197.038 261.86 197.038 261.342V256.302H200.076C199.964 257.996 199.824 258.668 199.67 258.878C199.558 258.99 199.446 259.004 199.264 259.004C199.054 259.004 198.578 259.004 198.074 258.948C198.2 259.2 198.298 259.564 198.326 259.844C198.886 259.886 199.418 259.872 199.698 259.858C200.048 259.816 200.286 259.732 200.496 259.494C200.818 259.144 200.944 258.206 201.084 255.798C201.098 255.672 201.098 255.378 201.098 255.378H196.03V261.342C196.03 262.56 196.45 262.868 197.794 262.868H200.384C201.616 262.868 201.924 262.336 202.05 260.404C201.77 260.348 201.364 260.18 201.126 260.026C201.056 261.664 200.958 261.958 200.314 261.958H197.878ZM198.41 250.31C197.668 252.116 196.198 254.034 194.434 255.294C194.658 255.462 195.022 255.826 195.19 256.022C196.562 254.958 197.752 253.558 198.634 252.046C199.74 253.236 200.944 254.678 201.574 255.616L202.316 254.93C201.644 253.936 200.244 252.382 199.096 251.206C199.194 250.996 199.292 250.814 199.376 250.604L198.41 250.31ZM203.982 251.92H202.988V259.634H203.982V251.92ZM205.704 250.506V261.692C205.704 261.944 205.592 262.028 205.34 262.042C205.074 262.056 204.192 262.07 203.212 262.028C203.366 262.308 203.52 262.756 203.576 263.022C204.878 263.036 205.648 263.008 206.096 262.84C206.53 262.672 206.726 262.392 206.726 261.692V250.506H205.704ZM219.298 252.298V253.348H217.114V252.298H219.298ZM219.298 255.266H217.114V254.174H219.298V255.266ZM216.12 253.348H212.62V254.174H216.12V255.266H213.432V256.092H216.12V257.17H213.32V257.954H216.12V259.046H212.732V259.886H216.12V261.272H217.114V259.886H221.076V259.046H217.114V257.954H220.558V257.17H217.114V256.092H220.236V254.174H221.202V253.348H220.236V251.472H217.114V250.296H216.12V251.472H213.53V252.298H216.12V253.348ZM212.102 255.098L211.92 255.126H210.716C211.402 254.09 212.102 252.788 212.746 251.444L212.074 251.01L211.738 251.164H208.924V252.088H211.346C210.8 253.32 210.1 254.468 209.848 254.818C209.568 255.252 209.232 255.588 208.966 255.644C209.106 255.868 209.33 256.288 209.4 256.484C209.4 256.344 209.736 256.162 209.96 256.05H211.654C211.472 257.296 211.192 258.374 210.842 259.298C210.45 258.724 210.156 258.024 209.904 257.184L209.134 257.492C209.47 258.612 209.89 259.494 210.408 260.208C209.904 261.132 209.288 261.846 208.56 262.364C208.798 262.504 209.162 262.868 209.33 263.078C210.002 262.546 210.59 261.86 211.08 260.978C212.536 262.378 214.552 262.728 217.128 262.728H221.034C221.09 262.448 221.272 262 221.426 261.762C220.712 261.776 217.702 261.776 217.156 261.776C214.79 261.776 212.872 261.468 211.514 260.124C212.074 258.822 212.48 257.226 212.69 255.266L212.102 255.098ZM235.146 253.068V252.074H230.47C230.288 251.584 229.91 250.786 229.56 250.184L228.552 250.436C228.818 250.94 229.112 251.584 229.294 252.074H223.736V255.882C223.736 257.856 223.638 260.614 222.574 262.602C222.798 262.7 223.288 262.994 223.456 263.176C224.59 261.09 224.772 257.982 224.772 255.882V253.068H235.146ZM230.876 258.864C230.666 257.562 230.148 255.616 229.672 254.118L228.734 254.37C229.196 255.882 229.7 257.856 229.896 259.144L230.876 258.864ZM228.188 259.536C227.894 258.248 227.222 256.302 226.606 254.79L225.71 255.154C226.284 256.652 226.956 258.64 227.222 259.928L228.188 259.536ZM231.548 261.426C232.822 259.27 233.858 256.736 234.53 254.426L233.438 254.034C232.892 256.428 231.828 259.27 230.484 261.426H224.954V262.42H235.328V261.426H231.548ZM243.588 257.814V255.49H247.354V257.814H243.588ZM239.15 257.814C239.192 257.296 239.206 256.778 239.206 256.316V255.49H242.552V257.814H239.15ZM242.552 252.27V254.51H239.206V252.27H242.552ZM247.354 254.51H243.588V252.27H247.354V254.51ZM248.376 251.276H238.184V256.316C238.184 258.262 238.044 260.726 236.504 262.462C236.728 262.588 237.148 262.938 237.302 263.148C238.366 261.958 238.842 260.362 239.052 258.808H242.552V262.938H243.588V258.808H247.354V261.65C247.354 261.916 247.256 262 246.976 262.014C246.724 262.014 245.772 262.028 244.792 261.986C244.932 262.266 245.1 262.714 245.142 262.994C246.458 263.008 247.27 262.994 247.746 262.826C248.194 262.644 248.376 262.336 248.376 261.664V251.276ZM252.198 263.498C253.668 262.98 254.62 261.832 254.62 260.32C254.62 259.34 254.2 258.71 253.43 258.71C252.856 258.71 252.366 259.06 252.366 259.718C252.366 260.376 252.842 260.712 253.416 260.712C253.5 260.712 253.57 260.712 253.654 260.698C253.584 261.65 252.968 262.308 251.89 262.756L252.198 263.498ZM267.948 253.922V254.888H270.538C269.852 256.022 268.886 256.988 267.584 257.632C267.78 257.828 268.074 258.206 268.214 258.43C269.81 257.604 270.93 256.358 271.7 254.888H273.45C274.22 256.274 275.522 257.548 276.866 258.206C277.02 257.954 277.328 257.59 277.538 257.408C276.376 256.904 275.242 255.952 274.514 254.888H277.314V253.922H272.148C272.4 253.32 272.61 252.69 272.764 252.046H276.824V251.08H268.592V252.046H271.658C271.518 252.69 271.308 253.32 271.042 253.922H267.948ZM268.088 251.864C267.612 251.374 266.632 250.786 265.848 250.422L265.246 251.164C266.044 251.556 267.01 252.2 267.472 252.676L268.088 251.864ZM267.5 255.476C266.996 255.042 265.988 254.496 265.162 254.16L264.574 254.916C265.414 255.294 266.422 255.882 266.912 256.33L267.5 255.476ZM265.82 262.896C266.436 261.65 267.122 260.026 267.64 258.64L266.814 258.066C266.24 259.55 265.442 261.272 264.882 262.294L265.82 262.896ZM269.712 257.94C269.39 259.004 268.802 260.208 267.934 260.908L268.704 261.482C269.614 260.684 270.16 259.382 270.524 258.248L269.712 257.94ZM271.448 261.93C271.448 262.084 271.406 262.14 271.224 262.14C271.028 262.154 270.426 262.154 269.726 262.14C269.866 262.406 269.978 262.798 270.02 263.064C270.958 263.064 271.56 263.064 271.938 262.91C272.316 262.742 272.414 262.462 272.414 261.93V256.442H271.448V261.93ZM272.974 258.43C273.394 259.368 273.786 260.586 273.912 261.398L274.752 261.076C274.612 260.292 274.206 259.074 273.772 258.15L272.974 258.43ZM274.71 258.052C275.494 259.116 276.32 260.572 276.67 261.524L277.51 261.076C277.174 260.138 276.32 258.724 275.508 257.66L274.71 258.052ZM284.86 252.914H281.766C281.78 252.116 281.794 251.304 281.794 250.478H280.772C280.772 251.304 280.772 252.116 280.758 252.914H278.798V253.936H280.73C280.618 257.436 280.198 260.53 278.462 262.364C278.714 262.518 279.092 262.854 279.246 263.078C281.136 261.034 281.612 257.688 281.738 253.936H283.852C283.754 259.298 283.628 261.202 283.306 261.594C283.208 261.79 283.068 261.832 282.844 261.818C282.592 261.818 281.99 261.818 281.346 261.762C281.528 262.056 281.626 262.504 281.654 262.812C282.27 262.854 282.914 262.854 283.292 262.798C283.712 262.756 283.964 262.63 284.216 262.266C284.65 261.664 284.748 259.634 284.86 253.446V252.914ZM286.988 260.838V253.026H289.704V260.838H286.988ZM286.008 252.018V262.854H286.988V261.832H289.704V262.756H290.74V252.018H286.008ZM295.738 250.338C294.954 252.466 293.652 254.552 292.28 255.896C292.476 256.134 292.756 256.666 292.868 256.918C293.344 256.4 293.834 255.826 294.282 255.182V263.036H295.276V253.628C295.822 252.676 296.312 251.668 296.718 250.632L295.738 250.338ZM298.286 256.246C297.908 257.898 297.25 259.564 296.368 260.628C296.62 260.768 297.068 261.034 297.264 261.202C298.118 260.04 298.86 258.276 299.308 256.442L298.286 256.246ZM304.208 253.936C304.096 254.65 303.97 255.392 303.886 255.896L304.754 256.064C304.936 255.322 305.188 254.118 305.37 253.096L304.656 252.928L304.488 252.97H298.818C299.098 252.2 299.35 251.388 299.56 250.576L298.538 250.352C298.076 252.396 297.264 254.398 296.242 255.686C296.466 255.84 296.9 256.19 297.068 256.344C297.572 255.686 298.034 254.86 298.426 253.936H300.554V261.804C300.554 261.986 300.498 262.042 300.316 262.042C300.134 262.042 299.532 262.056 298.874 262.028C299.014 262.322 299.182 262.784 299.238 263.078C300.12 263.078 300.708 263.05 301.086 262.868C301.45 262.7 301.576 262.392 301.576 261.804V253.936H304.208ZM302.598 256.442C303.34 257.912 304.04 259.872 304.264 261.146L305.258 260.81C305.02 259.536 304.306 257.618 303.508 256.134L302.598 256.442ZM311.152 256.386H308.212V253.46H311.152V256.386ZM308.212 260.67V257.31H311.152V260.67H308.212ZM309.388 250.254C309.29 250.912 309.038 251.85 308.828 252.522H307.26V262.714H308.212V261.608H312.104V252.522H309.78C310.018 251.92 310.27 251.15 310.508 250.464L309.388 250.254ZM318.95 252.48H314.764C315.002 251.822 315.198 251.15 315.366 250.464L314.372 250.226C313.924 252.144 313.168 254.076 312.23 255.308C312.454 255.448 312.902 255.728 313.084 255.896C313.574 255.238 314.008 254.384 314.4 253.446H317.956C317.774 259.018 317.564 261.146 317.102 261.636C316.962 261.818 316.808 261.846 316.528 261.846C316.206 261.846 315.366 261.846 314.456 261.762C314.652 262.056 314.778 262.476 314.806 262.784C315.59 262.826 316.388 262.854 316.878 262.798C317.354 262.756 317.676 262.63 317.984 262.238C318.544 261.552 318.726 259.396 318.95 253.012V252.48ZM316.738 258.78C316.29 257.954 315.324 256.61 314.54 255.616L313.728 256.092C314.498 257.1 315.436 258.486 315.856 259.326L316.738 258.78ZM323.822 252.284C324.13 252.83 324.396 253.516 324.508 253.95L325.432 253.642C325.334 253.278 325.11 252.76 324.858 252.284H327.098V251.486H323.514C323.668 251.15 323.822 250.8 323.962 250.45L322.996 250.226C322.52 251.542 321.68 252.816 320.7 253.642C320.952 253.768 321.372 254.006 321.568 254.16C322.086 253.67 322.618 253.012 323.052 252.284H323.822ZM326.412 257.268V258.57H323.052C323.122 258.164 323.192 257.702 323.262 257.268H326.412ZM327.434 255.098H331.102V256.386H327.434V255.098ZM327.434 258.57V257.268H332.124V254.216H321.89V255.098H326.412V256.386H322.38C322.268 257.38 322.072 258.626 321.89 259.466H325.586C324.438 260.656 322.66 261.734 321.036 262.266C321.274 262.462 321.554 262.84 321.708 263.092C323.374 262.448 325.18 261.244 326.412 259.858V263.078H327.434V259.466H331.466C331.326 260.726 331.172 261.272 330.99 261.468C330.864 261.566 330.724 261.58 330.486 261.58C330.234 261.58 329.59 261.58 328.904 261.51C329.058 261.776 329.17 262.168 329.184 262.476C329.898 262.504 330.584 262.504 330.948 262.476C331.326 262.462 331.592 262.378 331.816 262.126C332.18 261.79 332.362 260.936 332.558 259.004C332.572 258.85 332.586 258.57 332.586 258.57H327.434ZM329.002 251.486C329.128 251.136 329.254 250.8 329.366 250.45L328.372 250.226C327.994 251.5 327.35 252.718 326.51 253.53C326.762 253.642 327.21 253.908 327.42 254.062C327.854 253.6 328.274 252.984 328.624 252.284H329.576C330.01 252.816 330.458 253.516 330.654 253.964L331.564 253.6C331.396 253.236 331.074 252.732 330.71 252.284H333.216V251.486H329.002ZM334.672 255.98V257.114H347.384V255.98H334.672ZM354.454 263.064H355.518V254.398H354.454V263.064ZM355.084 250.282C353.684 252.62 351.178 254.65 348.546 255.784C348.826 256.022 349.148 256.428 349.316 256.722C351.444 255.686 353.516 254.062 355.014 252.144C356.848 254.342 358.682 255.658 360.754 256.736C360.908 256.414 361.23 256.022 361.51 255.812C359.354 254.762 357.394 253.446 355.616 251.332C355.756 251.136 355.868 250.926 355.994 250.716L355.084 250.282ZM375.146 253.068V252.074H370.47C370.288 251.584 369.91 250.786 369.56 250.184L368.552 250.436C368.818 250.94 369.112 251.584 369.294 252.074H363.736V255.882C363.736 257.856 363.638 260.614 362.574 262.602C362.798 262.7 363.288 262.994 363.456 263.176C364.59 261.09 364.772 257.982 364.772 255.882V253.068H375.146ZM370.876 258.864C370.666 257.562 370.148 255.616 369.672 254.118L368.734 254.37C369.196 255.882 369.7 257.856 369.896 259.144L370.876 258.864ZM368.188 259.536C367.894 258.248 367.222 256.302 366.606 254.79L365.71 255.154C366.284 256.652 366.956 258.64 367.222 259.928L368.188 259.536ZM371.548 261.426C372.822 259.27 373.858 256.736 374.53 254.426L373.438 254.034C372.892 256.428 371.828 259.27 370.484 261.426H364.954V262.42H375.328V261.426H371.548ZM383.588 257.814V255.49H387.354V257.814H383.588ZM379.15 257.814C379.192 257.296 379.206 256.778 379.206 256.316V255.49H382.552V257.814H379.15ZM382.552 252.27V254.51H379.206V252.27H382.552ZM387.354 254.51H383.588V252.27H387.354V254.51ZM388.376 251.276H378.184V256.316C378.184 258.262 378.044 260.726 376.504 262.462C376.728 262.588 377.148 262.938 377.302 263.148C378.366 261.958 378.842 260.362 379.052 258.808H382.552V262.938H383.588V258.808H387.354V261.65C387.354 261.916 387.256 262 386.976 262.014C386.724 262.014 385.772 262.028 384.792 261.986C384.932 262.266 385.1 262.714 385.142 262.994C386.458 263.008 387.27 262.994 387.746 262.826C388.194 262.644 388.376 262.336 388.376 261.664V251.276ZM393.864 252.578V258.416H392.086V252.578H393.864ZM394.83 251.612H391.134V260.712H392.086V259.382H394.83V251.612ZM398.988 252.158V256.652H397.084V252.158H398.988ZM401.914 256.652H399.94V252.158H401.914V256.652ZM398.148 261.832C397.252 261.832 397.084 261.664 397.084 260.88V257.604H401.914V258.486H402.936V251.192H396.062V260.866C396.062 262.42 396.566 262.798 398.106 262.798H401.536C402.992 262.798 403.314 262.168 403.482 260.264C403.188 260.208 402.782 260.026 402.53 259.844C402.418 261.44 402.278 261.832 401.494 261.832H398.148Z" fill="#777F97"/>
<defs>
<linearGradient id="paint0_linear" x1="265" y1="135" x2="265" y2="250" gradientUnits="userSpaceOnUse">
<stop stop-color="#BDDCF9" stop-opacity="0.41"/>
<stop offset="1" stop-color="white" stop-opacity="0"/>
</linearGradient>
<linearGradient id="paint1_linear" x1="115.649" y1="77.429" x2="137.558" y2="143.157" gradientUnits="userSpaceOnUse">
<stop stop-color="#DCEDFF"/>
<stop offset="1" stop-color="#AED4FF" stop-opacity="0"/>
</linearGradient>
<linearGradient id="paint2_linear" x1="115.649" y1="77.429" x2="137.558" y2="143.157" gradientUnits="userSpaceOnUse">
<stop stop-color="#DCEDFF"/>
<stop offset="1" stop-color="#AED4FF" stop-opacity="0"/>
</linearGradient>
<linearGradient id="paint3_linear" x1="115.649" y1="77.429" x2="137.558" y2="143.157" gradientUnits="userSpaceOnUse">
<stop stop-color="#DCEDFF"/>
<stop offset="1" stop-color="#AED4FF" stop-opacity="0"/>
</linearGradient>
<linearGradient id="paint4_linear" x1="59.3765" y1="113" x2="59.3765" y2="159.297" gradientUnits="userSpaceOnUse">
<stop stop-color="#DBEDFF"/>
<stop offset="1" stop-color="#C8E3FF" stop-opacity="0"/>
</linearGradient>
<linearGradient id="paint5_linear" x1="241.021" y1="106" x2="241.021" y2="117.025" gradientUnits="userSpaceOnUse">
<stop stop-color="#6AA3FF"/>
<stop offset="1" stop-color="#AECCFF"/>
</linearGradient>
<linearGradient id="paint6_linear" x1="260.021" y1="118" x2="260.021" y2="123.025" gradientUnits="userSpaceOnUse">
<stop stop-color="#6AA3FF"/>
<stop offset="1" stop-color="#AECCFF"/>
</linearGradient>
<linearGradient id="paint7_linear" x1="358.374" y1="50.213" x2="372.666" y2="59.4636" gradientUnits="userSpaceOnUse">
<stop stop-color="#6AA3FF"/>
<stop offset="1" stop-color="#AECCFF"/>
</linearGradient>
<linearGradient id="paint8_linear" x1="249.102" y1="10.0001" x2="249.102" y2="95.8763" gradientUnits="userSpaceOnUse">
<stop stop-color="#599AFF"/>
<stop offset="1" stop-color="#A3C5FF"/>
</linearGradient>
<linearGradient id="paint9_linear" x1="257.864" y1="87.6092" x2="250.711" y2="95.0407" gradientUnits="userSpaceOnUse">
<stop stop-color="#6AA3FF"/>
<stop offset="1" stop-color="#AECCFF"/>
</linearGradient>
<linearGradient id="paint10_linear" x1="229.57" y1="10" x2="229.57" y2="87.3257" gradientUnits="userSpaceOnUse">
<stop stop-color="#9CC2FF"/>
<stop offset="1" stop-color="#B9D4FF"/>
</linearGradient>
<linearGradient id="paint11_linear" x1="202" y1="0" x2="202" y2="22" gradientUnits="userSpaceOnUse">
<stop stop-color="#BEE0FF"/>
<stop offset="1" stop-color="white" stop-opacity="0"/>
</linearGradient>
<linearGradient id="paint12_linear" x1="357.5" y1="15" x2="357.5" y2="32" gradientUnits="userSpaceOnUse">
<stop stop-color="#BEE0FF"/>
<stop offset="1" stop-color="white" stop-opacity="0"/>
</linearGradient>
<linearGradient id="paint13_linear" x1="366.389" y1="114" x2="366.389" y2="141.558" gradientUnits="userSpaceOnUse">
<stop stop-color="#DBEDFF"/>
<stop offset="1" stop-color="#C8E3FF" stop-opacity="0"/>
</linearGradient>
<linearGradient id="paint14_linear" x1="365.336" y1="94" x2="365.336" y2="114.944" gradientUnits="userSpaceOnUse">
<stop stop-color="#DBEDFF"/>
<stop offset="1" stop-color="#C8E3FF" stop-opacity="0"/>
</linearGradient>
<linearGradient id="paint15_linear" x1="353.607" y1="114" x2="353.607" y2="122.402" gradientUnits="userSpaceOnUse">
<stop stop-color="#DBEDFF"/>
<stop offset="1" stop-color="#C8E3FF" stop-opacity="0"/>
</linearGradient>
<linearGradient id="paint16_linear" x1="378.704" y1="114.127" x2="378.704" y2="122.529" gradientUnits="userSpaceOnUse">
<stop stop-color="#DBEDFF"/>
<stop offset="1" stop-color="#C8E3FF" stop-opacity="0"/>
</linearGradient>
</defs>
</svg>
