<svg width="530" height="250" viewBox="0 0 530 250" fill="none" xmlns="http://www.w3.org/2000/svg">
<ellipse cx="265" cy="192.5" rx="265" ry="57.5" fill="url(#paint0_linear)"/>
<path d="M114.751 73C113.315 77.9605 119.54 111.68 122.832 127.92C126.423 135.892 133.605 147.053 133.605 127.92C133.605 108.786 121.036 83.3343 114.751 73Z" fill="url(#paint1_linear)"/>
<path d="M95 124.376C100.686 124.376 113.135 126.68 117.445 135.892C122.832 147.407 99.489 137.663 95 124.376Z" fill="url(#paint2_linear)"/>
<path d="M157.845 112.861C156.409 107.901 146.473 116.7 141.685 121.719C141.685 125.262 138.094 132.349 141.685 135.892C145.276 139.435 159.641 119.062 157.845 112.861Z" fill="url(#paint3_linear)"/>
<path d="M58.2883 113.36C56.8352 115.96 57.6828 125.035 58.2883 129.248C49.3272 129.248 38.3076 133.942 39.0341 135.025C40.124 136.65 46.1787 137.192 52.4757 138.275C53.2023 139.358 54.2923 138.636 53.9288 141.886C53.2464 147.987 51.0226 153.441 53.2023 154.885C55.382 156.329 62.2846 143.691 64.8276 143.691C66.2808 143.691 82.9919 153.441 82.9919 150.552C82.9919 147.663 67.7338 136.831 69.5502 136.47C71.3667 136.109 83.3552 129.248 82.9919 125.637C82.7013 122.748 71.4878 126.841 65.9173 129.248C63.9798 122.869 59.7415 110.76 58.2883 113.36Z" fill="url(#paint4_linear)"/>
<path d="M237.564 117.025C235.232 107.7 240.694 105.8 243.716 106.016C245.011 107.311 245.119 110.657 245.011 112.168C243.198 111.132 239.291 114.974 237.564 117.025Z" fill="url(#paint5_linear)"/>
<path d="M243.392 106.34C241.989 107.527 238.924 111.132 237.888 116.053" stroke="#F8F8F8"/>
<path d="M261.597 123.025C262.66 118.775 260.171 117.909 258.793 118.007C258.203 118.598 258.154 120.122 258.203 120.811C259.029 120.339 260.81 122.09 261.597 123.025Z" fill="url(#paint6_linear)"/>
<path d="M258.941 118.155C259.58 118.696 260.977 120.339 261.449 122.582" stroke="#F8F8F8"/>
<path d="M369.765 63.9458C355.72 59.1436 357.84 50.4699 360.656 46.7334C363.421 46.1413 367.849 48.8086 369.717 50.2162C366.853 51.6974 368.556 59.9865 369.765 63.9458Z" fill="url(#paint7_linear)"/>
<path d="M360.804 47.4246C361.165 50.2397 363.267 57.238 368.777 62.7108" stroke="#F8F8F8"/>
<path d="M261.5 10.5001C260.7 10.9001 223.167 33.303 204 44.6363L206.5 79.6364L211.5 88.1364C215.9 96.9364 224 96.4697 227.5 95.1364L255.5 78.6364L257 81.1364C260.2 87.9364 267.667 87.9697 271 87.1364C275.167 84.803 284.8 79.1364 290 75.1364C295.2 71.1364 294.5 64.1363 293.5 61.1363C284.167 44.6363 264.5 11.9 264.5 11.5C264.5 11 262.5 10.0001 261.5 10.5001Z" fill="url(#paint8_linear)"/>
<path d="M253.041 97.2842C260.664 92.5111 258.215 87.687 256.038 85.8716C254.324 85.9044 252.081 88.0896 251.173 89.178C253.067 89.6562 253.208 94.7814 253.041 97.2842Z" fill="url(#paint9_linear)"/>
<path d="M256.046 86.3C256.221 88.0107 255.948 92.4295 253.453 96.4193" stroke="#F8F8F8"/>
<path d="M261.141 10.2875L207.641 41.7875C203.241 44.3781 200.141 49.2003 199.141 51.2875C197.808 58.4541 194.941 74.4875 194.141 81.2875C193.341 88.0875 196.141 87.7875 197.641 86.7875C214.141 77.7875 248.341 59.0875 253.141 56.2875C257.941 53.4875 260.474 48.1208 261.141 45.7875C262.474 37.9542 265.141 20.8875 265.141 15.2875C265.141 9.6875 262.474 9.62083 261.141 10.2875Z" fill="url(#paint10_linear)"/>
<circle cx="202" cy="11" r="11" fill="url(#paint11_linear)"/>
<path fill-rule="evenodd" clip-rule="evenodd" d="M349.89 29.2916C348.187 30.3734 346.167 31 344 31C341.833 31 339.813 30.3734 338.11 29.2916C336.716 32.0829 333.832 34 330.5 34C325.806 34 322 30.1944 322 25.5C322 20.8056 325.806 17 330.5 17C331.478 17 332.418 17.1652 333.293 17.4694C334.436 12.6141 338.796 9 344 9C349.204 9 353.564 12.6141 354.707 17.4694C355.582 17.1652 356.522 17 357.5 17C362.194 17 366 20.8056 366 25.5C366 30.1944 362.194 34 357.5 34C354.168 34 351.284 32.0829 349.89 29.2916Z" fill="url(#paint12_linear)"/>
<rect x="365" y="114" width="3" height="25" fill="url(#paint13_linear)"/>
<ellipse cx="366" cy="103.5" rx="9" ry="9.5" fill="url(#paint14_linear)"/>
<path d="M350 118.5C348.8 115.7 349.5 115.131 350.829 114.631C352 114.631 358.329 112.631 359.829 115.131C361.329 117.631 359.171 121 355.5 121C350.28 121 350.214 119 350 118.5Z" fill="url(#paint15_linear)"/>
<path d="M382.311 118.627C383.511 115.827 382.811 115.257 381.482 114.757C380.311 114.757 373.982 112.757 372.482 115.257C370.982 117.757 373.14 121.127 376.811 121.127C382.031 121.127 382.097 119.127 382.311 118.627Z" fill="url(#paint16_linear)"/>
<defs>
<linearGradient id="paint0_linear" x1="265" y1="135" x2="265" y2="250" gradientUnits="userSpaceOnUse">
<stop stop-color="#BDDCF9" stop-opacity="0.41"/>
<stop offset="1" stop-color="white" stop-opacity="0"/>
</linearGradient>
<linearGradient id="paint1_linear" x1="115.649" y1="77.429" x2="137.558" y2="143.157" gradientUnits="userSpaceOnUse">
<stop stop-color="#DCEDFF"/>
<stop offset="1" stop-color="#AED4FF" stop-opacity="0"/>
</linearGradient>
<linearGradient id="paint2_linear" x1="115.649" y1="77.429" x2="137.558" y2="143.157" gradientUnits="userSpaceOnUse">
<stop stop-color="#DCEDFF"/>
<stop offset="1" stop-color="#AED4FF" stop-opacity="0"/>
</linearGradient>
<linearGradient id="paint3_linear" x1="115.649" y1="77.429" x2="137.558" y2="143.157" gradientUnits="userSpaceOnUse">
<stop stop-color="#DCEDFF"/>
<stop offset="1" stop-color="#AED4FF" stop-opacity="0"/>
</linearGradient>
<linearGradient id="paint4_linear" x1="59.3765" y1="113" x2="59.3765" y2="159.297" gradientUnits="userSpaceOnUse">
<stop stop-color="#DBEDFF"/>
<stop offset="1" stop-color="#C8E3FF" stop-opacity="0"/>
</linearGradient>
<linearGradient id="paint5_linear" x1="241.021" y1="106" x2="241.021" y2="117.025" gradientUnits="userSpaceOnUse">
<stop stop-color="#6AA3FF"/>
<stop offset="1" stop-color="#AECCFF"/>
</linearGradient>
<linearGradient id="paint6_linear" x1="260.021" y1="118" x2="260.021" y2="123.025" gradientUnits="userSpaceOnUse">
<stop stop-color="#6AA3FF"/>
<stop offset="1" stop-color="#AECCFF"/>
</linearGradient>
<linearGradient id="paint7_linear" x1="358.374" y1="50.213" x2="372.666" y2="59.4636" gradientUnits="userSpaceOnUse">
<stop stop-color="#6AA3FF"/>
<stop offset="1" stop-color="#AECCFF"/>
</linearGradient>
<linearGradient id="paint8_linear" x1="249.102" y1="10.0001" x2="249.102" y2="95.8763" gradientUnits="userSpaceOnUse">
<stop stop-color="#599AFF"/>
<stop offset="1" stop-color="#A3C5FF"/>
</linearGradient>
<linearGradient id="paint9_linear" x1="257.864" y1="87.6092" x2="250.711" y2="95.0407" gradientUnits="userSpaceOnUse">
<stop stop-color="#6AA3FF"/>
<stop offset="1" stop-color="#AECCFF"/>
</linearGradient>
<linearGradient id="paint10_linear" x1="229.57" y1="10" x2="229.57" y2="87.3257" gradientUnits="userSpaceOnUse">
<stop stop-color="#9CC2FF"/>
<stop offset="1" stop-color="#B9D4FF"/>
</linearGradient>
<linearGradient id="paint11_linear" x1="202" y1="0" x2="202" y2="22" gradientUnits="userSpaceOnUse">
<stop stop-color="#BEE0FF"/>
<stop offset="1" stop-color="white" stop-opacity="0"/>
</linearGradient>
<linearGradient id="paint12_linear" x1="357.5" y1="15" x2="357.5" y2="32" gradientUnits="userSpaceOnUse">
<stop stop-color="#BEE0FF"/>
<stop offset="1" stop-color="white" stop-opacity="0"/>
</linearGradient>
<linearGradient id="paint13_linear" x1="366.389" y1="114" x2="366.389" y2="141.558" gradientUnits="userSpaceOnUse">
<stop stop-color="#DBEDFF"/>
<stop offset="1" stop-color="#C8E3FF" stop-opacity="0"/>
</linearGradient>
<linearGradient id="paint14_linear" x1="365.336" y1="94" x2="365.336" y2="114.944" gradientUnits="userSpaceOnUse">
<stop stop-color="#DBEDFF"/>
<stop offset="1" stop-color="#C8E3FF" stop-opacity="0"/>
</linearGradient>
<linearGradient id="paint15_linear" x1="353.607" y1="114" x2="353.607" y2="122.402" gradientUnits="userSpaceOnUse">
<stop stop-color="#DBEDFF"/>
<stop offset="1" stop-color="#C8E3FF" stop-opacity="0"/>
</linearGradient>
<linearGradient id="paint16_linear" x1="378.704" y1="114.127" x2="378.704" y2="122.529" gradientUnits="userSpaceOnUse">
<stop stop-color="#DBEDFF"/>
<stop offset="1" stop-color="#C8E3FF" stop-opacity="0"/>
</linearGradient>
</defs>
</svg>
