<svg width="530" height="251" viewBox="0 0 530 251" fill="none" xmlns="http://www.w3.org/2000/svg">
<ellipse cx="265" cy="192.695" rx="265" ry="57.5" fill="url(#paint0_linear)"/>
<path d="M128.751 73.1954C127.315 78.1559 133.54 111.875 136.832 128.115C140.423 136.087 147.605 147.248 147.605 128.115C147.605 108.982 135.036 83.5297 128.751 73.1954Z" fill="url(#paint1_linear)"/>
<path d="M109 124.572C114.686 124.572 127.135 126.875 131.445 136.087C136.832 147.603 113.489 137.859 109 124.572Z" fill="url(#paint2_linear)"/>
<path d="M171.845 113.056C170.409 108.096 160.473 116.895 155.685 121.914C155.685 125.458 152.094 132.544 155.685 136.087C159.276 139.63 173.641 119.257 171.845 113.056Z" fill="url(#paint3_linear)"/>
<path d="M72.2883 113.556C70.8352 116.155 71.6828 125.231 72.2883 129.443C63.3272 129.443 52.3076 134.137 53.0341 135.221C54.124 136.846 60.1787 137.387 66.4757 138.47C67.2023 139.554 68.2923 138.832 67.9288 142.081C67.2464 148.182 65.0226 153.636 67.2023 155.08C69.382 156.525 76.2846 143.887 78.8276 143.887C80.2808 143.887 96.9919 153.636 96.9919 150.747C96.9919 147.859 81.7338 137.026 83.5502 136.665C85.3667 136.304 97.3552 129.443 96.9919 125.832C96.7013 122.944 85.4878 127.036 79.9173 129.443C77.9798 123.064 73.7415 110.956 72.2883 113.556Z" fill="url(#paint4_linear)"/>
<path d="M374.804 47.62C375.165 50.4351 377.267 57.4335 382.777 62.9062" stroke="#F8F8F8"/>
<circle cx="216" cy="11.1954" r="11" fill="url(#paint5_linear)"/>
<path fill-rule="evenodd" clip-rule="evenodd" d="M364.39 51.9792C362.687 53.061 360.667 53.6876 358.5 53.6876C356.333 53.6876 354.313 53.061 352.61 51.9792C351.216 54.7705 348.332 56.6876 345 56.6876C340.306 56.6876 336.5 52.882 336.5 48.1876C336.5 43.4931 340.306 39.6876 345 39.6876C345.978 39.6876 346.918 39.8528 347.793 40.1569C348.936 35.3016 353.296 31.6876 358.5 31.6876C363.704 31.6876 368.064 35.3016 369.207 40.1569C370.082 39.8528 371.022 39.6876 372 39.6876C376.694 39.6876 380.5 43.4931 380.5 48.1876C380.5 52.882 376.694 56.6876 372 56.6876C368.668 56.6876 365.784 54.7705 364.39 51.9792Z" fill="url(#paint6_linear)"/>
<rect x="379" y="114.195" width="3" height="25" fill="url(#paint7_linear)"/>
<ellipse cx="380" cy="103.695" rx="9" ry="9.5" fill="url(#paint8_linear)"/>
<path d="M364 118.695C362.8 115.895 363.5 115.326 364.829 114.826C366 114.826 372.329 112.826 373.829 115.326C375.329 117.826 373.171 121.195 369.5 121.195C364.28 121.195 364.214 119.195 364 118.695Z" fill="url(#paint9_linear)"/>
<path d="M396.311 118.822C397.511 116.022 396.811 115.453 395.482 114.953C394.311 114.953 387.982 112.953 386.482 115.453C384.982 117.953 387.14 121.322 390.811 121.322C396.031 121.322 396.097 119.322 396.311 118.822Z" fill="url(#paint10_linear)"/>
<path d="M310.209 139.931H284.699C283.913 139.931 283.274 139.291 283.274 138.506V93.7708C283.274 93.1317 283.794 92.5991 284.446 92.5991H300.942C306.8 92.5991 311.593 97.3922 311.593 103.25V138.559C311.567 139.318 310.954 139.931 310.209 139.931Z" fill="#B7D3FF"/>
<path d="M284.752 138.666H223.082C222.722 138.666 222.416 138.373 222.416 138V60.1662C222.416 54.308 227.209 49.515 233.067 49.515H274.727C280.585 49.515 285.378 54.308 285.378 60.1662V138.053C285.378 138.386 285.099 138.666 284.752 138.666Z" fill="#D3E4FF"/>
<path d="M266.26 139.505H250.762C250.509 139.505 250.31 139.305 250.31 139.052V119.84C250.31 117.643 252.107 115.845 254.304 115.845H263.211C265.408 115.845 267.205 117.643 267.205 119.84V138.559C267.205 139.078 266.779 139.505 266.26 139.505Z" fill="#6EA6FF"/>
<path d="M250.11 80.3503H244.571C242.374 80.3503 240.577 78.5529 240.577 76.356V68.2877C240.577 66.0909 242.374 64.2935 244.571 64.2935H250.11C252.306 64.2935 254.104 66.0909 254.104 68.2877V76.356C254.104 78.5529 252.306 80.3503 250.11 80.3503ZM272.93 80.3503H267.391C265.194 80.3503 263.397 78.5529 263.397 76.356V68.2877C263.397 66.0909 265.194 64.2935 267.391 64.2935H272.93C275.127 64.2935 276.924 66.0909 276.924 68.2877V76.356C276.924 78.5529 275.127 80.3503 272.93 80.3503ZM250.11 101.48H244.571C242.374 101.48 240.577 99.6822 240.577 97.4854V89.4171C240.577 87.2203 242.374 85.4229 244.571 85.4229H250.11C252.306 85.4229 254.104 87.2203 254.104 89.4171V97.4854C254.104 99.6822 252.306 101.48 250.11 101.48ZM272.93 101.48H267.391C265.194 101.48 263.397 99.6822 263.397 97.4854V89.4171C263.397 87.2203 265.194 85.4229 267.391 85.4229H272.93C275.127 85.4229 276.924 87.2203 276.924 89.4171V97.4854C276.924 99.6822 275.127 101.48 272.93 101.48Z" fill="#8CB9FF"/>
<path d="M319.095 141.195H220.225C219.293 141.195 218.534 140.437 218.534 139.505C218.534 138.573 219.293 137.814 220.225 137.814H319.095C320.027 137.814 320.786 138.573 320.786 139.505C320.786 140.45 320.027 141.195 319.095 141.195Z" fill="#CFE3FB"/>
<path d="M214.549 182.804C214.325 183.308 214.073 183.826 213.877 184.176L214.759 184.358C215.109 183.798 215.529 182.846 215.893 182.048L215.179 181.852L215.011 181.894H209.775C209.943 181.544 210.097 181.194 210.237 180.844L209.271 180.606C208.809 181.922 207.997 183.196 207.045 184.022C207.269 184.176 207.661 184.498 207.829 184.68C208.347 184.176 208.851 183.532 209.285 182.804H214.549ZM213.107 184.792C213.793 185.66 214.507 186.85 214.815 187.634L215.711 187.172C215.389 186.402 214.661 185.24 213.947 184.4L213.107 184.792ZM211.357 190.602C210.965 189.916 210.083 188.908 209.313 188.194L208.515 188.656C209.271 189.398 210.139 190.434 210.489 191.106L211.357 190.602ZM209.257 184.428C208.879 185.394 208.235 186.374 207.507 187.032C207.731 187.172 208.109 187.452 208.291 187.62C209.019 186.906 209.761 185.8 210.209 184.694L209.257 184.428ZM212.337 183.28H211.343V187.368C211.343 187.522 211.287 187.564 211.119 187.564C210.937 187.578 210.363 187.578 209.705 187.564C209.831 187.83 209.985 188.194 210.041 188.474C210.923 188.474 211.483 188.474 211.847 188.306C212.239 188.152 212.337 187.9 212.337 187.382V183.28ZM204.413 192.8C204.931 191.946 205.421 190.63 205.785 189.72L204.847 189.342C204.539 190.252 203.993 191.526 203.433 192.352L204.413 192.8ZM206.597 180.55C205.799 182.104 204.539 183.644 203.251 184.61C203.461 184.806 203.797 185.226 203.937 185.422C204.385 185.044 204.847 184.596 205.281 184.106V188.544H206.289V182.86C206.751 182.216 207.185 181.544 207.521 180.858L206.597 180.55ZM208.543 192.142C207.619 192.142 207.451 192.072 207.451 191.666V189.258H206.415V191.68C206.415 192.814 206.849 193.108 208.501 193.108H211.833C213.219 193.108 213.555 192.674 213.695 190.91C213.401 190.854 212.967 190.7 212.729 190.518C212.659 191.932 212.533 192.142 211.763 192.142H208.543ZM213.443 189.44C214.073 190.434 214.717 191.778 214.913 192.632L215.907 192.226C215.669 191.372 215.011 190.084 214.353 189.09L213.443 189.44ZM227.947 180.928C227.513 181.838 226.687 183.112 226.057 183.896L226.911 184.246C227.569 183.504 228.353 182.314 228.983 181.306L227.947 180.928ZM221.269 183.77C220.905 183 220.135 181.866 219.379 181.012L218.497 181.418C219.211 182.272 219.981 183.462 220.317 184.246L221.269 183.77ZM225.301 187.914V190.084H222.123V187.914H225.301ZM226.281 190.994V187.018H221.171V191.89H222.123V190.994H226.281ZM229.039 184.652H224.209V180.578H223.159V184.652H218.455V193.374H219.477V185.632H228.017V192.044C228.017 192.254 227.947 192.324 227.723 192.338C227.471 192.338 226.687 192.352 225.819 192.324C225.973 192.604 226.141 193.038 226.183 193.332C227.275 193.332 228.017 193.318 228.465 193.15C228.913 192.982 229.039 192.66 229.039 192.058V184.652ZM243.865 187.326V186.304H238.237V183.896H242.899V182.874H238.237V180.592H237.159V182.874H232.637V183.896H237.159V186.304H231.629V187.326H236.571C235.311 189.132 233.197 190.868 231.251 191.736C231.489 191.932 231.825 192.338 232.007 192.59C233.841 191.666 235.801 190 237.159 188.138V193.374H238.237V188.082C239.595 189.944 241.583 191.68 243.431 192.59C243.613 192.324 243.949 191.918 244.187 191.722C242.241 190.868 240.113 189.118 238.839 187.326H243.865ZM251.579 183.21H248.485C248.499 182.412 248.513 181.6 248.513 180.774H247.491C247.491 181.6 247.491 182.412 247.477 183.21H245.517V184.232H247.449C247.337 187.732 246.917 190.826 245.181 192.66C245.433 192.814 245.811 193.15 245.965 193.374C247.855 191.33 248.331 187.984 248.457 184.232H250.571C250.473 189.594 250.347 191.498 250.025 191.89C249.927 192.086 249.787 192.128 249.563 192.114C249.311 192.114 248.709 192.114 248.065 192.058C248.247 192.352 248.345 192.8 248.373 193.108C248.989 193.15 249.633 193.15 250.011 193.094C250.431 193.052 250.683 192.926 250.935 192.562C251.369 191.96 251.467 189.93 251.579 183.742V183.21ZM253.707 191.134V183.322H256.423V191.134H253.707ZM252.727 182.314V193.15H253.707V192.128H256.423V193.052H257.459V182.314H252.727ZM262.877 181.782C263.787 182.412 264.501 183.196 265.103 184.05C264.207 187.998 262.471 190.826 259.349 192.436C259.629 192.632 260.105 193.052 260.287 193.276C263.101 191.624 264.879 189.062 265.943 185.422C267.483 188.222 268.449 191.442 271.641 193.22C271.711 192.912 271.963 192.338 272.159 192.072C267.525 189.3 267.945 184.064 263.507 180.886L262.877 181.782ZM276.863 180.592C276.009 182.762 274.595 184.904 273.069 186.262C273.293 186.514 273.615 187.046 273.713 187.298C274.287 186.752 274.847 186.108 275.365 185.408V193.374H276.387V183.868C276.961 182.916 277.451 181.922 277.871 180.9L276.863 180.592ZM286.103 187.536V186.528H282.155V182.65C283.415 182.398 284.591 182.104 285.543 181.796L284.773 180.928C283.065 181.544 280.041 182.104 277.451 182.44C277.563 182.678 277.731 183.07 277.773 183.322C278.837 183.196 279.999 183.028 281.119 182.832V186.528H276.989V187.536H281.119V191.834H277.521V192.842H285.893V191.834H282.155V187.536H286.103ZM290.485 180.592C289.771 182.678 288.581 184.75 287.307 186.108C287.475 186.332 287.783 186.878 287.881 187.116C288.329 186.626 288.777 186.066 289.183 185.422V193.346H290.205V183.714C290.681 182.804 291.101 181.838 291.451 180.9L290.485 180.592ZM295.287 185.828V188.782H292.879V185.828H295.287ZM296.253 189.706V184.904H291.885V190.672H292.879V189.706H296.253ZM300.145 181.936H291.479V182.944H298.101V191.932C298.101 192.212 298.003 192.282 297.709 192.296C297.401 192.31 296.379 192.324 295.259 192.282C295.413 192.576 295.595 193.052 295.637 193.346C296.995 193.346 297.919 193.318 298.437 193.15C298.927 192.982 299.123 192.674 299.123 191.932V182.944H300.145V181.936ZM305.283 180.998C304.457 183.084 303.057 185.086 301.489 186.318C301.755 186.486 302.231 186.85 302.455 187.06C303.967 185.688 305.451 183.574 306.389 181.306L305.283 180.998ZM309.273 188.46C309.819 189.146 310.421 189.958 310.981 190.742L304.471 191.134C305.843 189.51 307.215 187.438 308.363 185.324L307.243 184.82C306.123 187.144 304.429 189.566 303.883 190.182C303.351 190.854 302.973 191.274 302.609 191.358C302.763 191.652 302.959 192.226 303.015 192.45C303.533 192.254 304.289 192.212 311.639 191.708C312.003 192.282 312.339 192.828 312.563 193.276L313.571 192.716C312.885 191.456 311.457 189.496 310.239 188.012L309.273 188.46ZM308.993 181.292C310.071 183.392 311.849 185.73 313.291 187.06C313.501 186.78 313.893 186.388 314.159 186.178C312.717 185.016 310.939 182.804 310.015 180.9L308.993 181.292ZM322.489 187.298V189.902H317.995V187.298H322.489ZM323.511 190.826V186.374H316.973V191.848H317.995V190.826H323.511ZM324.463 183.938H316.091V184.876H324.463V183.938ZM327.109 181.488H315.993V182.482H326.059V191.82C326.059 192.086 325.989 192.156 325.723 192.17C325.443 192.184 324.477 192.184 323.511 192.156C323.679 192.45 323.833 192.968 323.875 193.276C325.121 193.276 325.989 193.262 326.479 193.08C326.955 192.898 327.109 192.534 327.109 191.82V181.488ZM331.757 188.908H332.681L332.961 183.476L332.989 181.824H331.449L331.477 183.476L331.757 188.908ZM332.219 192.366C332.709 192.366 333.115 192.002 333.115 191.442C333.115 190.882 332.709 190.504 332.219 190.504C331.729 190.504 331.323 190.882 331.323 191.442C331.323 192.002 331.715 192.366 332.219 192.366Z" fill="#777F97"/>
<path d="M101.916 213.356V216.548H98.262V213.356H101.916ZM102.938 217.542V212.348H97.254V218.662H98.262V217.542H102.938ZM108.216 209.268H95.826V210.304H105.43V219.558C105.43 219.852 105.332 219.95 105.024 219.964C104.702 219.978 103.554 219.992 102.434 219.936C102.602 220.23 102.812 220.748 102.882 221.042C104.254 221.042 105.22 221.042 105.78 220.846C106.312 220.692 106.494 220.314 106.494 219.572V210.304H108.216V209.268ZM117.288 212.838C116.868 211.928 115.958 210.584 115.132 209.59L114.25 210.052C115.062 211.074 115.958 212.488 116.35 213.384L117.288 212.838ZM112.388 217.668V209.366H111.282V217.556C111.282 218.2 110.736 218.648 110.442 218.816C110.624 219.012 110.932 219.432 111.016 219.67C111.366 219.362 111.87 219.068 115.902 217.136C115.818 216.898 115.678 216.464 115.636 216.156L112.388 217.668ZM122.468 220.356C121.796 219.376 120.438 217.92 119.234 216.772C120.158 214.784 120.536 212.208 120.732 208.89L119.64 208.834C119.318 215.022 118.352 218.48 113.872 220.258C114.11 220.468 114.502 220.93 114.642 221.154C116.532 220.286 117.834 219.18 118.744 217.696C119.864 218.802 121.012 220.132 121.572 221.028L122.468 220.356ZM133.612 215.988H126.346V213.496H133.612V215.988ZM134.662 212.516H130.406V210.752H135.698V209.772H130.406V208.288H129.37V212.516H125.352V216.968H134.662V212.516ZM124.582 221.056C125.338 220.328 126.052 219.152 126.514 218.06L125.534 217.808C125.086 218.844 124.372 219.964 123.63 220.594L124.582 221.056ZM127.774 218.186C127.956 219.082 128.082 220.244 128.082 220.944L129.118 220.804C129.104 220.132 128.95 218.984 128.768 218.102L127.774 218.186ZM130.644 218.2C131.064 219.054 131.484 220.216 131.624 220.902L132.632 220.664C132.464 219.964 132.016 218.83 131.582 217.99L130.644 218.2ZM133.486 218.074C134.186 218.97 134.956 220.174 135.278 220.944L136.258 220.552C135.908 219.768 135.11 218.606 134.396 217.724L133.486 218.074ZM144.574 214.7H150.076V213.664H144.574V211.466H149.11V210.444H144.574V208.288H143.51V210.444H138.988V211.466H143.51V213.664H137.966V214.7H143.51V219.264H140.192V215.764H139.114V220.272H147.836V221.07H148.886V215.764H147.836V219.264H144.574V214.7ZM154.766 208.33C153.982 210.458 152.68 212.544 151.308 213.888C151.49 214.112 151.784 214.644 151.896 214.868C152.372 214.378 152.848 213.804 153.282 213.188V221.042H154.304V211.592C154.85 210.64 155.326 209.632 155.718 208.624L154.766 208.33ZM158.784 219.936C157.79 219.936 157.608 219.754 157.608 218.956V214.028L159.652 213.216V217.962H160.646V212.824L162.83 211.97C162.816 214.154 162.788 215.624 162.676 216.002C162.592 216.366 162.452 216.422 162.2 216.422C162.018 216.422 161.514 216.422 161.136 216.394C161.262 216.646 161.36 217.066 161.388 217.374C161.808 217.388 162.424 217.374 162.802 217.276C163.236 217.164 163.53 216.898 163.642 216.254C163.768 215.666 163.81 213.65 163.81 211.13L163.852 210.948L163.138 210.654L162.956 210.808L162.816 210.934L160.646 211.774V208.302H159.652V212.138L157.608 212.936V209.66H156.586V213.342L154.822 214.028L155.228 214.938L156.586 214.406V218.956C156.586 220.482 157.076 220.874 158.742 220.874H162.396C163.936 220.874 164.258 220.258 164.44 218.34C164.132 218.27 163.726 218.088 163.474 217.906C163.348 219.558 163.208 219.936 162.354 219.936H158.784ZM171.412 208.33C171.37 210.458 171.454 217.262 165.644 220.202C165.966 220.412 166.302 220.734 166.484 221.014C169.9 219.194 171.384 216.058 172.028 213.258C172.7 215.862 174.198 219.32 177.698 220.958C177.852 220.664 178.16 220.314 178.454 220.076C173.512 217.878 172.672 212.026 172.462 210.36C172.532 209.534 172.546 208.834 172.56 208.33H171.412ZM186.532 211.032H184.222V210.206H186.532V211.032ZM186.532 212.572H184.222V211.718H186.532V212.572ZM187.33 213.426C187.54 213.524 187.918 213.776 188.072 213.916C188.478 213.216 188.828 212.348 189.108 211.382H190.76C190.62 212.684 190.41 213.832 190.06 214.854C189.696 214.294 189.318 213.734 188.968 213.244L188.24 213.664C188.702 214.322 189.192 215.078 189.668 215.834C189.136 216.968 188.408 217.85 187.386 218.536C187.582 218.704 187.904 219.054 188.03 219.208C188.954 218.536 189.654 217.71 190.2 216.716C190.648 217.5 191.068 218.242 191.32 218.844L192.104 218.34C191.782 217.64 191.236 216.702 190.648 215.75C191.138 214.518 191.46 213.062 191.656 211.382H192.258V210.486H189.346C189.5 209.842 189.64 209.156 189.752 208.47L188.898 208.344C188.618 210.164 188.156 212.012 187.428 213.258V209.506H185.636C185.776 209.17 185.944 208.792 186.084 208.428L185.076 208.288C185.006 208.624 184.88 209.1 184.768 209.506H183.368V213.272H187.428L187.33 213.426ZM186.49 216.506C186.42 217.514 186.322 217.934 186.21 218.06C186.14 218.158 186.056 218.172 185.902 218.172C185.762 218.172 185.454 218.172 185.076 218.13C185.202 218.326 185.272 218.634 185.286 218.858C185.664 218.872 186.084 218.886 186.28 218.858C186.56 218.844 186.756 218.774 186.938 218.578C187.162 218.326 187.274 217.682 187.386 216.1C187.4 215.974 187.4 215.75 187.4 215.75H185.062C185.104 215.498 185.132 215.218 185.146 214.952H187.792V214.196H186.042C185.902 213.902 185.678 213.552 185.468 213.272L184.656 213.566C184.782 213.762 184.922 213.972 185.034 214.196H182.906V214.952H184.264C184.166 216.394 183.886 217.598 182.906 218.298C183.102 218.438 183.354 218.718 183.466 218.928C184.278 218.354 184.698 217.528 184.922 216.506H186.49ZM182.752 211.242C182.388 210.57 181.548 209.59 180.82 208.876L180.008 209.338C180.708 210.094 181.52 211.116 181.87 211.788L182.752 211.242ZM182.388 213.398H179.728V214.378H181.38V218.256C180.848 218.522 180.232 219.11 179.602 219.88L180.302 220.804C180.876 219.866 181.464 219.026 181.87 219.026C182.164 219.026 182.64 219.502 183.214 219.866C184.194 220.496 185.384 220.636 187.148 220.636C188.506 220.636 191.11 220.552 192.132 220.482C192.146 220.188 192.314 219.698 192.426 219.432C191.04 219.586 188.898 219.712 187.19 219.712C185.566 219.712 184.362 219.6 183.438 219.04C182.962 218.746 182.668 218.466 182.388 218.298V213.398ZM197.326 210.654C196.892 210.094 195.94 209.226 195.212 208.61L194.54 209.226C195.268 209.884 196.192 210.794 196.612 211.382L197.326 210.654ZM196.724 218.62V212.656H193.63V213.65H195.716V218.732C195.716 219.348 195.324 219.768 195.058 219.922C195.24 220.132 195.506 220.566 195.604 220.804C195.814 220.538 196.178 220.23 198.516 218.424C198.404 218.228 198.222 217.836 198.152 217.556L196.724 218.62ZM199.916 218.144V217.01H204.284V218.144H199.916ZM204.284 215.204V216.282H199.916V215.204H204.284ZM205.278 214.392H198.936V221.056H199.916V218.9H204.284V219.88C204.284 220.062 204.228 220.118 204.018 220.118C203.85 220.132 203.178 220.132 202.464 220.104C202.59 220.37 202.73 220.748 202.772 221C203.766 221.014 204.382 221 204.788 220.846C205.166 220.692 205.278 220.426 205.278 219.894V214.392ZM202.604 212.796V211.816H205.544V211.06H202.604V210.178H205.964V209.38H202.604V208.288H201.582V209.38H198.362V210.178H201.582V211.06H198.698V211.816H201.582V212.796H197.942V213.594H206.37V212.796H202.604ZM216.954 214.056V215.918H214.266V216.828H216.954V219.208H217.892V216.828H220.244V215.918H217.892V214.056H219.936L219.95 213.174H217.892V211.508H216.954V213.174H215.484C215.848 212.488 216.198 211.676 216.52 210.836H220.3V209.94H216.828C216.996 209.45 217.15 208.946 217.29 208.456L216.296 208.246C216.184 208.82 216.03 209.394 215.876 209.94H214.14V210.836H215.582C215.33 211.592 215.064 212.194 214.952 212.432C214.728 212.936 214.518 213.3 214.294 213.37C214.42 213.608 214.56 214.056 214.616 214.252C214.742 214.14 215.148 214.056 215.68 214.056H216.954ZM213.916 211.256C213.692 210.598 213.216 209.59 212.768 208.834L211.928 209.128C212.348 209.884 212.81 210.934 213.02 211.606L213.916 211.256ZM211.732 210.794V209.884H209.436C209.604 209.45 209.758 208.988 209.856 208.54L208.96 208.302C208.652 209.618 208.12 210.92 207.448 211.774C207.602 211.998 207.882 212.474 207.966 212.698C208.372 212.18 208.75 211.522 209.072 210.794H211.732ZM210.248 218.942V216.254H211.788V215.344H210.248V213.37H211.48V212.474H208.204V213.37H209.282V215.344H207.714V216.254H209.282V218.844C209.282 219.502 208.862 219.978 208.61 220.174C208.778 220.328 209.044 220.692 209.156 220.902C209.352 220.65 209.688 220.384 211.774 218.928C211.662 218.746 211.536 218.382 211.466 218.144L210.248 218.942ZM213.818 213.23H211.536V214.196H212.866V218.662C212.362 218.9 211.788 219.39 211.242 219.978L211.914 220.93C212.446 220.174 213.034 219.446 213.426 219.446C213.706 219.446 214.098 219.782 214.574 220.118C215.316 220.58 216.142 220.776 217.318 220.776C218.158 220.776 219.572 220.734 220.3 220.692C220.3 220.398 220.44 219.894 220.552 219.6C219.614 219.726 218.214 219.782 217.346 219.782C216.24 219.782 215.428 219.656 214.756 219.222C214.35 218.97 214.084 218.732 213.818 218.62V213.23ZM233.922 209.744H230.674C230.478 209.324 230.184 208.792 229.904 208.386L228.938 208.554C229.162 208.904 229.4 209.352 229.582 209.744H226.39V210.654H233.922V209.744ZM229.232 212.558C229.05 212.096 228.602 211.354 228.182 210.808L227.398 211.13C227.804 211.69 228.224 212.46 228.406 212.95L229.232 212.558ZM234.272 212.992H231.584C231.962 212.446 232.354 211.732 232.732 211.088L231.752 210.822C231.486 211.466 230.968 212.39 230.576 212.992H225.9V213.902H234.272V212.992ZM225.634 215.4L225.48 214.448L224.248 214.84V212.054H225.648V211.088H224.248V208.288H223.282V211.088H221.63V212.054H223.282V215.134C222.596 215.344 221.952 215.54 221.448 215.68L221.714 216.674L223.282 216.17V219.824C223.282 220.006 223.212 220.062 223.044 220.062C222.904 220.076 222.4 220.076 221.84 220.048C221.98 220.328 222.106 220.762 222.134 221.028C222.946 221.042 223.464 221 223.786 220.832C224.108 220.664 224.248 220.384 224.248 219.824V215.862L225.634 215.4ZM231.682 216.324C231.416 217.206 230.982 217.906 230.38 218.466C229.596 218.144 228.798 217.864 228.042 217.626C228.322 217.248 228.616 216.786 228.882 216.324H231.682ZM234.426 216.324V215.428H229.386C229.624 214.994 229.848 214.56 230.03 214.154L229.078 213.958C228.882 214.42 228.63 214.924 228.35 215.428H225.718V216.324H227.818C227.412 216.968 226.992 217.584 226.628 218.06C227.538 218.34 228.532 218.69 229.484 219.096C228.518 219.628 227.23 219.964 225.508 220.146C225.676 220.37 225.872 220.748 225.956 221.042C227.958 220.748 229.442 220.286 230.548 219.544C231.668 220.062 232.69 220.608 233.376 221.098L234.062 220.3C233.376 219.824 232.41 219.334 231.36 218.872C232.018 218.214 232.452 217.374 232.746 216.324H234.426ZM241.86 210.906H238.766C238.78 210.108 238.794 209.296 238.794 208.47H237.772C237.772 209.296 237.772 210.108 237.758 210.906H235.798V211.928H237.73C237.618 215.428 237.198 218.522 235.462 220.356C235.714 220.51 236.092 220.846 236.246 221.07C238.136 219.026 238.612 215.68 238.738 211.928H240.852C240.754 217.29 240.628 219.194 240.306 219.586C240.208 219.782 240.068 219.824 239.844 219.81C239.592 219.81 238.99 219.81 238.346 219.754C238.528 220.048 238.626 220.496 238.654 220.804C239.27 220.846 239.914 220.846 240.292 220.79C240.712 220.748 240.964 220.622 241.216 220.258C241.65 219.656 241.748 217.626 241.86 211.438V210.906ZM243.988 218.83V211.018H246.704V218.83H243.988ZM243.008 210.01V220.846H243.988V219.824H246.704V220.748H247.74V210.01H243.008ZM253.158 209.478C254.068 210.108 254.782 210.892 255.384 211.746C254.488 215.694 252.752 218.522 249.63 220.132C249.91 220.328 250.386 220.748 250.568 220.972C253.382 219.32 255.16 216.758 256.224 213.118C257.764 215.918 258.73 219.138 261.922 220.916C261.992 220.608 262.244 220.034 262.44 219.768C257.806 216.996 258.226 211.76 253.788 208.582L253.158 209.478ZM267.396 215.582H272.576V217.108H267.396V215.582ZM272.576 210.892V212.278H267.396V210.892H272.576ZM267.396 213.174H272.576V214.686H267.396V213.174ZM276.174 217.108H273.612V210.892H275.852V209.912H273.612V208.316H272.576V209.912H267.396V208.316H266.374V209.912H264.204V210.892H266.374V217.108H263.812V218.074H276.188L276.174 217.108ZM268.068 218.326C267.088 218.998 265.184 219.796 263.672 220.244C263.896 220.468 264.204 220.818 264.358 221.042C265.856 220.538 267.746 219.74 268.992 218.97L268.068 218.326ZM271.036 219.054C272.646 219.656 274.312 220.426 275.292 221.014L276.23 220.314C275.152 219.74 273.374 218.97 271.736 218.396L271.036 219.054ZM282.18 212.712V214.938H279.436V214.518V212.712H282.18ZM283.188 215.89V211.774H279.436V210.43C280.99 210.248 282.712 209.926 283.846 209.436L283.174 208.582C282.082 209.086 280.066 209.45 278.414 209.646V214.518C278.414 216.324 278.344 218.732 277.448 220.426C277.686 220.538 278.106 220.902 278.288 221.084C279.072 219.656 279.338 217.626 279.422 215.89H283.188ZM290.342 212.992H285.526V210.458C287.122 210.206 288.886 209.828 290.09 209.324L289.376 208.456C288.242 208.974 286.212 209.422 284.49 209.674V214.322C284.49 216.24 284.322 218.69 282.67 220.384C282.894 220.524 283.314 220.888 283.482 221.084C285.26 219.278 285.526 216.408 285.526 214.322V213.986H287.696V221.028H288.718V213.986H290.342V212.992ZM300.394 215.82H303.544V214.84H300.394V212.166H299.358V214.84H296.222V215.82H299.358V219.754H295.676V220.734H304.09V219.754H300.394V215.82ZM296.88 210.444C297.132 209.814 297.37 209.17 297.552 208.54L296.488 208.274C296.292 208.988 296.04 209.73 295.746 210.444H291.924V211.438H295.284C294.416 213.216 293.184 214.868 291.588 216.002C291.756 216.226 292.022 216.66 292.12 216.94C292.708 216.52 293.254 216.058 293.744 215.526V221H294.766V214.294C295.424 213.398 295.97 212.446 296.46 211.438H304.09V210.444H296.88ZM309.564 208.694C308.738 210.78 307.338 212.782 305.77 214.014C306.036 214.182 306.512 214.546 306.736 214.756C308.248 213.384 309.732 211.27 310.67 209.002L309.564 208.694ZM313.554 216.156C314.1 216.842 314.702 217.654 315.262 218.438L308.752 218.83C310.124 217.206 311.496 215.134 312.644 213.02L311.524 212.516C310.404 214.84 308.71 217.262 308.164 217.878C307.632 218.55 307.254 218.97 306.89 219.054C307.044 219.348 307.24 219.922 307.296 220.146C307.814 219.95 308.57 219.908 315.92 219.404C316.284 219.978 316.62 220.524 316.844 220.972L317.852 220.412C317.166 219.152 315.738 217.192 314.52 215.708L313.554 216.156ZM313.274 208.988C314.352 211.088 316.13 213.426 317.572 214.756C317.782 214.476 318.174 214.084 318.44 213.874C316.998 212.712 315.22 210.5 314.296 208.596L313.274 208.988ZM326.77 214.994V217.598H322.276V214.994H326.77ZM327.792 218.522V214.07H321.254V219.544H322.276V218.522H327.792ZM328.744 211.634H320.372V212.572H328.744V211.634ZM331.39 209.184H320.274V210.178H330.34V219.516C330.34 219.782 330.27 219.852 330.004 219.866C329.724 219.88 328.758 219.88 327.792 219.852C327.96 220.146 328.114 220.664 328.156 220.972C329.402 220.972 330.27 220.958 330.76 220.776C331.236 220.594 331.39 220.23 331.39 219.516V209.184ZM335.198 221.49C336.668 220.972 337.62 219.824 337.62 218.312C337.62 217.332 337.2 216.702 336.43 216.702C335.856 216.702 335.366 217.052 335.366 217.71C335.366 218.368 335.842 218.704 336.416 218.704C336.5 218.704 336.57 218.704 336.654 218.69C336.584 219.642 335.968 220.3 334.89 220.748L335.198 221.49ZM352.684 219.824C351.326 219.824 351.046 219.586 351.046 218.606V213.902L353.944 213.006V218.088H354.966V212.684L358.158 211.69C358.13 213.706 358.046 215.036 357.836 215.638C357.654 216.198 357.416 216.296 357.108 216.296C356.856 216.296 356.198 216.296 355.708 216.254C355.848 216.492 355.946 216.954 355.974 217.22C356.478 217.234 357.178 217.22 357.612 217.15C358.088 217.08 358.466 216.814 358.732 216.1C359.026 215.288 359.138 213.594 359.18 210.976L359.236 210.78L358.508 210.458L358.298 210.612L358.214 210.682L354.966 211.69V208.302H353.944V211.998L351.046 212.894V209.226H350.038V213.202L347.476 213.986L347.756 214.924L350.038 214.21V218.578C350.038 220.328 350.654 220.776 352.726 220.776H357.626C359.642 220.776 360.062 220.034 360.272 217.78C359.992 217.71 359.558 217.542 359.306 217.36C359.124 219.362 358.914 219.824 357.612 219.824H352.684ZM367.916 213.356V216.548H364.262V213.356H367.916ZM368.938 217.542V212.348H363.254V218.662H364.262V217.542H368.938ZM374.216 209.268H361.826V210.304H371.43V219.558C371.43 219.852 371.332 219.95 371.024 219.964C370.702 219.978 369.554 219.992 368.434 219.936C368.602 220.23 368.812 220.748 368.882 221.042C370.254 221.042 371.22 221.042 371.78 220.846C372.312 220.692 372.494 220.314 372.494 219.572V210.304H374.216V209.268ZM383.288 212.838C382.868 211.928 381.958 210.584 381.132 209.59L380.25 210.052C381.062 211.074 381.958 212.488 382.35 213.384L383.288 212.838ZM378.388 217.668V209.366H377.282V217.556C377.282 218.2 376.736 218.648 376.442 218.816C376.624 219.012 376.932 219.432 377.016 219.67C377.366 219.362 377.87 219.068 381.902 217.136C381.818 216.898 381.678 216.464 381.636 216.156L378.388 217.668ZM388.468 220.356C387.796 219.376 386.438 217.92 385.234 216.772C386.158 214.784 386.536 212.208 386.732 208.89L385.64 208.834C385.318 215.022 384.352 218.48 379.872 220.258C380.11 220.468 380.502 220.93 380.642 221.154C382.532 220.286 383.834 219.18 384.744 217.696C385.864 218.802 387.012 220.132 387.572 221.028L388.468 220.356ZM392.878 219.95C392.164 219.95 392.038 219.852 392.038 219.334V214.294H395.076C394.964 215.988 394.824 216.66 394.67 216.87C394.558 216.982 394.446 216.996 394.264 216.996C394.054 216.996 393.578 216.996 393.074 216.94C393.2 217.192 393.298 217.556 393.326 217.836C393.886 217.878 394.418 217.864 394.698 217.85C395.048 217.808 395.286 217.724 395.496 217.486C395.818 217.136 395.944 216.198 396.084 213.79C396.098 213.664 396.098 213.37 396.098 213.37H391.03V219.334C391.03 220.552 391.45 220.86 392.794 220.86H395.384C396.616 220.86 396.924 220.328 397.05 218.396C396.77 218.34 396.364 218.172 396.126 218.018C396.056 219.656 395.958 219.95 395.314 219.95H392.878ZM393.41 208.302C392.668 210.108 391.198 212.026 389.434 213.286C389.658 213.454 390.022 213.818 390.19 214.014C391.562 212.95 392.752 211.55 393.634 210.038C394.74 211.228 395.944 212.67 396.574 213.608L397.316 212.922C396.644 211.928 395.244 210.374 394.096 209.198C394.194 208.988 394.292 208.806 394.376 208.596L393.41 208.302ZM398.982 209.912H397.988V217.626H398.982V209.912ZM400.704 208.498V219.684C400.704 219.936 400.592 220.02 400.34 220.034C400.074 220.048 399.192 220.062 398.212 220.02C398.366 220.3 398.52 220.748 398.576 221.014C399.878 221.028 400.648 221 401.096 220.832C401.53 220.664 401.726 220.384 401.726 219.684V208.498H400.704ZM414.298 210.29V211.34H412.114V210.29H414.298ZM414.298 213.258H412.114V212.166H414.298V213.258ZM411.12 211.34H407.62V212.166H411.12V213.258H408.432V214.084H411.12V215.162H408.32V215.946H411.12V217.038H407.732V217.878H411.12V219.264H412.114V217.878H416.076V217.038H412.114V215.946H415.558V215.162H412.114V214.084H415.236V212.166H416.202V211.34H415.236V209.464H412.114V208.288H411.12V209.464H408.53V210.29H411.12V211.34ZM407.102 213.09L406.92 213.118H405.716C406.402 212.082 407.102 210.78 407.746 209.436L407.074 209.002L406.738 209.156H403.924V210.08H406.346C405.8 211.312 405.1 212.46 404.848 212.81C404.568 213.244 404.232 213.58 403.966 213.636C404.106 213.86 404.33 214.28 404.4 214.476C404.4 214.336 404.736 214.154 404.96 214.042H406.654C406.472 215.288 406.192 216.366 405.842 217.29C405.45 216.716 405.156 216.016 404.904 215.176L404.134 215.484C404.47 216.604 404.89 217.486 405.408 218.2C404.904 219.124 404.288 219.838 403.56 220.356C403.798 220.496 404.162 220.86 404.33 221.07C405.002 220.538 405.59 219.852 406.08 218.97C407.536 220.37 409.552 220.72 412.128 220.72H416.034C416.09 220.44 416.272 219.992 416.426 219.754C415.712 219.768 412.702 219.768 412.156 219.768C409.79 219.768 407.872 219.46 406.514 218.116C407.074 216.814 407.48 215.218 407.69 213.258L407.102 213.09ZM421.564 208.694C420.738 210.78 419.338 212.782 417.77 214.014C418.036 214.182 418.512 214.546 418.736 214.756C420.248 213.384 421.732 211.27 422.67 209.002L421.564 208.694ZM425.554 216.156C426.1 216.842 426.702 217.654 427.262 218.438L420.752 218.83C422.124 217.206 423.496 215.134 424.644 213.02L423.524 212.516C422.404 214.84 420.71 217.262 420.164 217.878C419.632 218.55 419.254 218.97 418.89 219.054C419.044 219.348 419.24 219.922 419.296 220.146C419.814 219.95 420.57 219.908 427.92 219.404C428.284 219.978 428.62 220.524 428.844 220.972L429.852 220.412C429.166 219.152 427.738 217.192 426.52 215.708L425.554 216.156ZM425.274 208.988C426.352 211.088 428.13 213.426 429.572 214.756C429.782 214.476 430.174 214.084 430.44 213.874C428.998 212.712 427.22 210.5 426.296 208.596L425.274 208.988ZM438.77 214.994V217.598H434.276V214.994H438.77ZM439.792 218.522V214.07H433.254V219.544H434.276V218.522H439.792ZM440.744 211.634H432.372V212.572H440.744V211.634ZM443.39 209.184H432.274V210.178H442.34V219.516C442.34 219.782 442.27 219.852 442.004 219.866C441.724 219.88 440.758 219.88 439.792 219.852C439.96 220.146 440.114 220.664 440.156 220.972C441.402 220.972 442.27 220.958 442.76 220.776C443.236 220.594 443.39 220.23 443.39 219.516V209.184Z" fill="#777F97"/>
<defs>
<linearGradient id="paint0_linear" x1="265" y1="135.195" x2="265" y2="250.195" gradientUnits="userSpaceOnUse">
<stop stop-color="#C4DBFF" stop-opacity="0.41"/>
<stop offset="1" stop-color="white" stop-opacity="0"/>
</linearGradient>
<linearGradient id="paint1_linear" x1="129.649" y1="77.6244" x2="151.558" y2="143.352" gradientUnits="userSpaceOnUse">
<stop stop-color="#DCEDFF"/>
<stop offset="1" stop-color="#AED4FF" stop-opacity="0"/>
</linearGradient>
<linearGradient id="paint2_linear" x1="129.649" y1="77.6244" x2="151.558" y2="143.352" gradientUnits="userSpaceOnUse">
<stop stop-color="#DCEDFF"/>
<stop offset="1" stop-color="#AED4FF" stop-opacity="0"/>
</linearGradient>
<linearGradient id="paint3_linear" x1="129.649" y1="77.6244" x2="151.558" y2="143.352" gradientUnits="userSpaceOnUse">
<stop stop-color="#DCEDFF"/>
<stop offset="1" stop-color="#AED4FF" stop-opacity="0"/>
</linearGradient>
<linearGradient id="paint4_linear" x1="73.3765" y1="113.195" x2="73.3765" y2="159.493" gradientUnits="userSpaceOnUse">
<stop stop-color="#DBEDFF"/>
<stop offset="1" stop-color="#C8E3FF" stop-opacity="0"/>
</linearGradient>
<linearGradient id="paint5_linear" x1="216" y1="0.195374" x2="216" y2="22.1954" gradientUnits="userSpaceOnUse">
<stop stop-color="#BEE0FF"/>
<stop offset="1" stop-color="white" stop-opacity="0"/>
</linearGradient>
<linearGradient id="paint6_linear" x1="372" y1="37.6876" x2="372" y2="54.6876" gradientUnits="userSpaceOnUse">
<stop stop-color="#BEE0FF"/>
<stop offset="1" stop-color="white" stop-opacity="0"/>
</linearGradient>
<linearGradient id="paint7_linear" x1="380.389" y1="114.195" x2="380.389" y2="141.753" gradientUnits="userSpaceOnUse">
<stop stop-color="#DBEDFF"/>
<stop offset="1" stop-color="#C8E3FF" stop-opacity="0"/>
</linearGradient>
<linearGradient id="paint8_linear" x1="379.336" y1="94.1954" x2="379.336" y2="115.139" gradientUnits="userSpaceOnUse">
<stop stop-color="#DBEDFF"/>
<stop offset="1" stop-color="#C8E3FF" stop-opacity="0"/>
</linearGradient>
<linearGradient id="paint9_linear" x1="367.607" y1="114.195" x2="367.607" y2="122.598" gradientUnits="userSpaceOnUse">
<stop stop-color="#DBEDFF"/>
<stop offset="1" stop-color="#C8E3FF" stop-opacity="0"/>
</linearGradient>
<linearGradient id="paint10_linear" x1="392.704" y1="114.322" x2="392.704" y2="122.724" gradientUnits="userSpaceOnUse">
<stop stop-color="#DBEDFF"/>
<stop offset="1" stop-color="#C8E3FF" stop-opacity="0"/>
</linearGradient>
</defs>
</svg>
