    <svg width="13" height="14" viewBox="0 0 13 14" fill="none" xmlns="http://www.w3.org/2000/svg">
      <path d="M6.62171 8.09947C6.35794 8.36546 6.01953 8.48436 5.70856 8.20083C5.44077 7.95667 5.47077 7.65206 5.73061 7.3617L11.2145 1.69796C11.488 1.43753 11.8911 1.3106 12.1657 1.56992C12.495 1.88088 12.3545 2.26219 12.0941 2.53562L6.62069 8.09838L6.62171 8.09947Z" fill="#2A7FFF"/>
      <path d="M12.0826 6.47912C12.4095 6.48877 12.5695 6.79515 12.5563 7.13582V11.7475C12.5563 12.6144 11.8536 13.317 10.9868 13.317H1.56951C0.702694 13.317 0 12.6143 0 11.7475V2.33025C0 1.46343 0.702694 0.760742 1.56951 0.760742H7.5733C8.00672 0.760742 8.35805 0.846825 8.35805 1.28024C8.35805 1.71365 8.00672 1.7723 7.5733 1.7723H1.6582C1.28592 1.7723 0.984128 2.07409 0.984128 2.44637V11.6771C0.984128 12.0494 1.28592 12.3512 1.6582 12.3512H10.8432C11.2155 12.3512 11.5173 12.0494 11.5173 11.6771V7.13582C11.472 6.80886 11.6915 6.48877 12.0185 6.47912H12.0826Z" fill="#2A7FFF"/>
    </svg>