<svg width="18" height="4" viewBox="0 0 18 3" fill="none" xmlns="http://www.w3.org/2000/svg">
<path d="M17.3402 1.44359C17.3402 1.63316 17.3029 1.82088 17.2303 1.99603C17.1578 2.17117 17.0514 2.33031 16.9174 2.46436C16.7833 2.59841 16.6242 2.70475 16.4491 2.77729C16.2739 2.84984 16.0862 2.88718 15.8966 2.88718C15.707 2.88718 15.5193 2.84984 15.3442 2.77729C15.169 2.70475 15.0099 2.59841 14.8758 2.46436C14.7418 2.33031 14.6355 2.17117 14.5629 1.99603C14.4904 1.82088 14.453 1.63316 14.453 1.44359C14.453 1.06073 14.6051 0.693543 14.8758 0.422818C15.1466 0.152092 15.5138 0 15.8966 0C16.2795 0 16.6467 0.152092 16.9174 0.422818C17.1881 0.693543 17.3402 1.06073 17.3402 1.44359Z" fill="#2A7FFF"/>
<path d="M10.5103 1.44359C10.5103 1.82645 10.3582 2.19364 10.0875 2.46436C9.81677 2.73509 9.44959 2.88718 9.06672 2.88718C8.68386 2.88718 8.31668 2.73509 8.04595 2.46436C7.77523 2.19364 7.62313 1.82645 7.62313 1.44359C7.62313 1.06073 7.77523 0.693543 8.04595 0.422818C8.31668 0.152092 8.68386 0 9.06672 0C9.44959 0 9.81677 0.152092 10.0875 0.422818C10.3582 0.693543 10.5103 1.06073 10.5103 1.44359Z" fill="#2A7FFF"/>
<path d="M3.68042 1.44359C3.68042 1.82645 3.52833 2.19364 3.2576 2.46436C2.98688 2.73509 2.61969 2.88718 2.23683 2.88718C1.85397 2.88718 1.48678 2.73509 1.21606 2.46436C0.945332 2.19364 0.79324 1.82645 0.79324 1.44359C0.79324 1.06073 0.945332 0.693543 1.21606 0.422818C1.48678 0.152092 1.85397 0 2.23683 0C2.61969 0 2.98688 0.152092 3.2576 0.422818C3.52833 0.693543 3.68042 1.06073 3.68042 1.44359Z" fill="#2A7FFF"/>
</svg>
