<svg width="18" height="4" viewBox="0 0 18 4" fill="none" xmlns="http://www.w3.org/2000/svg">
<path d="M17.3402 2.0659C17.3402 2.25548 17.3029 2.4432 17.2303 2.61834C17.1578 2.79349 17.0514 2.95263 16.9174 3.08668C16.7833 3.22073 16.6242 3.32706 16.4491 3.39961C16.2739 3.47215 16.0862 3.50949 15.8966 3.50949C15.707 3.50949 15.5193 3.47215 15.3442 3.39961C15.169 3.32706 15.0099 3.22073 14.8758 3.08668C14.7418 2.95263 14.6355 2.79349 14.5629 2.61834C14.4904 2.4432 14.453 2.25548 14.453 2.0659C14.453 1.68304 14.6051 1.31586 14.8758 1.04513C15.1466 0.774406 15.5138 0.622314 15.8966 0.622314C16.2795 0.622314 16.6467 0.774406 16.9174 1.04513C17.1881 1.31586 17.3402 1.68304 17.3402 2.0659Z" fill="#777F97"/>
<path d="M10.5103 2.0659C10.5103 2.44877 10.3582 2.81595 10.0875 3.08668C9.81677 3.3574 9.44959 3.50949 9.06672 3.50949C8.68386 3.50949 8.31668 3.3574 8.04595 3.08668C7.77523 2.81595 7.62313 2.44877 7.62313 2.0659C7.62313 1.68304 7.77523 1.31586 8.04595 1.04513C8.31668 0.774406 8.68386 0.622314 9.06672 0.622314C9.44959 0.622314 9.81677 0.774406 10.0875 1.04513C10.3582 1.31586 10.5103 1.68304 10.5103 2.0659Z" fill="#777F97"/>
<path d="M3.68042 2.0659C3.68042 2.44877 3.52833 2.81595 3.2576 3.08668C2.98688 3.3574 2.61969 3.50949 2.23683 3.50949C1.85397 3.50949 1.48678 3.3574 1.21606 3.08668C0.945332 2.81595 0.79324 2.44877 0.79324 2.0659C0.79324 1.68304 0.945332 1.31586 1.21606 1.04513C1.48678 0.774406 1.85397 0.622314 2.23683 0.622314C2.61969 0.622314 2.98688 0.774406 3.2576 1.04513C3.52833 1.31586 3.68042 1.68304 3.68042 2.0659Z" fill="#777F97"/>
</svg>