<svg width="13" height="12" viewBox="0 0 13 12" fill="none" xmlns="http://www.w3.org/2000/svg">
<path d="M5.57658 9.20235C5.43259 9.20235 5.28859 9.14735 5.17878 9.03738L2.86532 6.72426C2.64581 6.50457 2.64581 6.14861 2.86532 5.92892C3.08477 5.70925 3.44097 5.70925 3.66054 5.92892L5.57658 7.84509L10.4709 2.95018C10.6906 2.73051 11.0467 2.73051 11.2664 2.95018C11.4856 3.16959 11.4856 3.52567 11.2664 3.7454L5.97394 9.03754C5.86424 9.14735 5.72012 9.20235 5.57658 9.20235ZM6.1735 11.9942C2.86835 11.9942 0.179321 9.30518 0.179321 6.00006C0.179321 2.69489 2.86835 0.00585938 6.1735 0.00585938C7.35252 0.00585938 8.49382 0.347991 9.47351 0.995261C9.67084 1.12561 9.72504 1.39119 9.59487 1.58851C9.46454 1.78574 9.19894 1.84022 9.00161 1.70988C8.16221 1.15527 7.18418 0.862134 6.1735 0.862134C3.34036 0.862134 1.03561 3.1669 1.03561 6.00004C1.03561 8.83311 3.34037 11.1379 6.1735 11.1379C9.00659 11.1379 11.3114 8.83311 11.3114 6.00004C11.3114 5.82123 11.3023 5.6412 11.284 5.46486C11.2596 5.22957 11.4307 5.01926 11.6658 4.99503C11.9008 4.97062 12.1114 5.1417 12.1357 5.37683C12.1569 5.58228 12.1676 5.79184 12.1676 6.00004C12.1676 9.30518 9.47864 11.9942 6.1735 11.9942Z" fill="#2A7FFF"/>
</svg>