<svg width="12" height="15" viewBox="0 0 12 15" fill="none" xmlns="http://www.w3.org/2000/svg">
<path d="M7.24564 7.5039C7.24564 7.15764 7.35975 6.82079 7.56803 6.5498L10.7938 2.35985C10.8418 2.29733 10.868 2.21969 10.868 2.13967V1.52901C10.868 1.43543 10.8322 1.34568 10.7685 1.27951C10.7049 1.21333 10.6185 1.17616 10.5284 1.17616H1.47249C1.38243 1.17616 1.29605 1.21333 1.23236 1.27951C1.16867 1.34568 1.1329 1.43543 1.1329 1.52901V2.14061C1.1329 2.21965 1.15916 2.29775 1.20715 2.35985L4.43378 6.5498C4.64206 6.82079 4.75617 7.15764 4.75617 7.50484V12.2386C4.75617 12.3723 4.82862 12.4946 4.94363 12.5539L7.24655 13.7507V7.5039H7.24564ZM1.47249 0.000940944H10.5284C11.3407 0.000940944 12 0.685936 12 1.52995V2.14155C12 2.48781 11.8859 2.82467 11.6776 3.09565L8.45189 7.2856C8.40382 7.34812 8.37764 7.42576 8.37763 7.50578V13.9417C8.37759 14.1221 8.33317 14.2995 8.24859 14.4571C8.16402 14.6146 8.04209 14.7471 7.89439 14.8419C7.74669 14.9368 7.57811 14.9908 7.40466 14.9989C7.2312 15.007 7.05863 14.969 6.90333 14.8883L4.4365 13.6068C4.19216 13.4798 3.98668 13.2846 3.84305 13.0431C3.69943 12.8017 3.62332 12.5234 3.62327 12.2396V7.50578C3.62326 7.42576 3.59708 7.34812 3.54902 7.2856L0.322391 3.09471C0.113699 2.82362 3.95001e-06 2.48681 0 2.13967V1.52901C0 0.684996 0.659271 0 1.47159 0L1.47249 0.000940944Z" fill="#2A7FFF"/>
</svg>
