<svg width="17" height="17" viewBox="0 0 17 17" fill="none" xmlns="http://www.w3.org/2000/svg">
<path d="M9.10571 8.53298C10.0057 7.88298 10.6057 6.83298 10.6057 5.68298C10.6057 3.73298 9.05571 2.18298 7.10571 2.18298C5.15571 2.18298 3.60571 3.73298 3.60571 5.68298C3.60571 6.88298 4.20571 7.93298 5.10571 8.53298C3.05571 9.33298 1.60571 11.333 1.60571 13.683V14.183H2.60571V13.683C2.60571 11.183 4.60571 9.18298 7.10571 9.18298C9.60571 9.18298 11.6057 11.183 11.6057 13.683C11.6057 13.833 11.6057 14.033 11.5557 14.183H12.5557V13.683C12.6057 11.333 11.1557 9.33298 9.10571 8.53298ZM7.10571 8.18298C5.70571 8.18298 4.60571 7.08298 4.60571 5.68298C4.60571 4.28298 5.70571 3.18298 7.10571 3.18298C8.50571 3.18298 9.60571 4.28298 9.60571 5.68298C9.60571 7.08298 8.50571 8.18298 7.10571 8.18298Z" fill="#2A7FFF"/>
<path d="M12.8057 8.03303C13.3057 7.58303 13.6057 6.93303 13.6057 6.18303C13.6057 4.93303 12.7057 3.88303 11.5057 3.73303L11.3557 4.73303C12.0557 4.83303 12.6057 5.48303 12.6057 6.23303C12.6057 7.08303 11.9557 7.73303 11.1057 7.73303V8.73303C13.0557 8.73303 14.6057 10.283 14.6057 12.233C14.6057 12.383 14.6057 12.583 14.5557 12.733H15.5557C15.5557 12.583 15.6057 12.383 15.6057 12.233C15.6057 10.283 14.4557 8.68303 12.8057 8.03303Z" fill="#78AEFF"/>
</svg>
