<svg width="16" height="15" viewBox="0 0 12 15" fill="none" xmlns="http://www.w3.org/2000/svg">
<path d="M5.3947 12.7937L8.65171 9.0126L8.10135 8.63688L4.84434 12.418L5.3947 12.7937ZM7.44092 5.4379L6.89338 5.06217L3.63637 8.84326L4.18391 9.21899L7.44092 5.4379ZM4.09924 10.7298L4.6496 11.1056L7.90661 7.32448L7.35625 6.94875L4.09924 10.7298ZM2.98158 3.77888L9.3827 3.76829L10.0996 1.38692C10.1617 1.17789 10.1137 0.96092 9.96411 0.786286C9.81735 0.616944 9.59438 0.519043 9.35448 0.519043L2.95618 0.526981C2.71345 0.526981 2.49049 0.627528 2.34372 0.799516C2.19696 0.97415 2.14898 1.19641 2.21954 1.40544L2.98158 3.77888ZM3.00134 1.26256L2.95618 1.22022L3.00134 1.26256ZM3.60814 3.03007L3.04649 1.27844L9.27545 1.2705L8.74767 3.02213L3.60814 3.03007ZM2.95336 1.21493L2.95618 1.21758L2.95336 1.21493Z" fill="#AEB2BC"/>
<path d="M9.43335 4.05665L2.89957 4.03284L0.906982 12.23L5.9054 14.4527L11.0929 12.2089L9.43335 4.05665ZM8.73623 4.80281L10.1615 11.804L5.90822 13.6033L1.85248 11.8437L3.56847 4.78958L8.73623 4.80281Z" fill="#AEB2BC"/>
</svg>
