<svg width="17" height="14" viewBox="0 1 17 14" fill="none" xmlns="http://www.w3.org/2000/svg">
<path fill-rule="evenodd" clip-rule="evenodd" d="M4.91331 0.89209C4.05727 0.89209 3.36331 1.58605 3.36331 2.44209V3.55908H2.24611C1.39006 3.55908 0.696106 4.25304 0.696106 5.10908V11.9998C0.696106 12.8558 1.39007 13.5498 2.24611 13.5498H11.804C12.6601 13.5498 13.354 12.8558 13.354 11.9998V10.8828H14.4712C15.3273 10.8828 16.0212 10.1888 16.0212 9.33279V2.44209C16.0212 1.58605 15.3273 0.89209 14.4712 0.89209H4.91331ZM13.354 9.78279H14.4712C14.7197 9.78279 14.9212 9.58132 14.9212 9.33279V2.44209C14.9212 2.19356 14.7197 1.99209 14.4712 1.99209H4.91331C4.66478 1.99209 4.46331 2.19356 4.46331 2.44209V3.55908H11.804C12.6601 3.55908 13.354 4.25304 13.354 5.10908V9.78279ZM1.79611 5.10908C1.79611 4.86055 1.99758 4.65908 2.24611 4.65908H11.804C12.0525 4.65908 12.254 4.86055 12.254 5.10908V11.9998C12.254 12.2483 12.0525 12.4498 11.804 12.4498H2.24611C1.99758 12.4498 1.79611 12.2483 1.79611 11.9998V5.10908Z" fill="#AEB2BC"/>
</svg>
