<svg width="15" height="15" viewBox="0 0 15 15" fill="none" xmlns="http://www.w3.org/2000/svg">
<path d="M7.25 14.55C8.68391 14.55 10.0856 14.1248 11.2779 13.3282C12.4701 12.5316 13.3994 11.3993 13.9481 10.0745C14.4969 8.74974 14.6404 7.29201 14.3607 5.88565C14.0809 4.47928 13.3905 3.18746 12.3765 2.17353C11.3626 1.1596 10.0708 0.469101 8.6644 0.189358C7.25804 -0.0903839 5.80031 0.05319 4.47554 0.601926C3.15078 1.15066 2.01848 2.07991 1.22184 3.27217C0.425204 4.46442 -1.71285e-06 5.86614 -1.58749e-06 7.30005C0.00223018 9.22219 0.766783 11.065 2.12594 12.4241C3.48509 13.7833 5.32786 14.5478 7.25 14.55ZM7.25 1.21941C8.45263 1.21941 9.62826 1.57603 10.6282 2.24418C11.6282 2.91233 12.4075 3.862 12.8678 4.97309C13.328 6.08418 13.4484 7.3068 13.2138 8.48632C12.9792 9.66585 12.4001 10.7493 11.5497 11.5997C10.6993 12.4501 9.6158 13.0292 8.43627 13.2639C7.25674 13.4985 6.03413 13.3781 4.92304 12.9178C3.81194 12.4576 2.86228 11.6782 2.19413 10.6783C1.52598 9.67832 1.16936 8.50269 1.16936 7.30005C1.17119 5.68793 1.81241 4.14235 2.95236 3.00241C4.0923 1.86246 5.63787 1.22124 7.25 1.21941ZM7.25 5.83833C7.09493 5.83835 6.94621 5.89997 6.83656 6.00962C6.72691 6.11927 6.6653 6.26798 6.66528 6.42305L6.66528 10.8081C6.66712 10.962 6.72954 11.1089 6.83899 11.217C6.94843 11.3252 7.09609 11.3858 7.24996 11.3858C7.40382 11.3858 7.55148 11.3252 7.66093 11.217C7.77037 11.1089 7.83279 10.962 7.83463 10.8081L7.83463 6.42331C7.83467 6.34651 7.81957 6.27045 7.79021 6.19949C7.76084 6.12852 7.71778 6.06404 7.66349 6.00971C7.6092 5.95539 7.54474 5.9123 7.47379 5.88289C7.40284 5.85348 7.3268 5.83834 7.25 5.83833ZM7.22074 4.90258C7.35565 4.90258 7.48752 4.86257 7.59969 4.78762C7.71186 4.71267 7.79929 4.60615 7.85091 4.48151C7.90254 4.35688 7.91605 4.21973 7.88973 4.08742C7.86341 3.95511 7.79845 3.83357 7.70305 3.73818C7.60766 3.64278 7.48613 3.57782 7.35381 3.5515C7.2215 3.52519 7.08436 3.53869 6.95972 3.59032C6.83508 3.64194 6.72856 3.72937 6.65361 3.84154C6.57866 3.95371 6.53865 4.08558 6.53865 4.22049C6.53862 4.31008 6.55624 4.39881 6.5905 4.48159C6.62477 4.56437 6.675 4.6396 6.73834 4.70296C6.80169 4.76633 6.87689 4.81659 6.95966 4.85089C7.04243 4.88518 7.13115 4.90283 7.22074 4.90283L7.22074 4.90258Z" fill="#777F97"/>
</svg>
