<svg width="14" height="15" viewBox="0 0 14 15" fill="none" xmlns="http://www.w3.org/2000/svg">
<path d="M13.1169 2.53455H0.914098C0.625368 2.53455 0.391113 2.78325 0.391113 3.0902C0.391113 3.39715 0.625368 3.64586 0.914098 3.64586H1.96005V12.7218C1.96005 13.6757 2.88037 14.3888 3.70332 14.3888H10.3277C11.149 14.3888 11.7223 13.7032 11.7223 12.7218V3.64587H13.1169C13.4057 3.64587 13.6399 3.39717 13.6399 3.09022C13.6399 2.78326 13.4057 2.53455 13.1169 2.53455ZM10.6764 12.7218C10.6764 12.9754 10.6158 13.2774 10.3277 13.2774H3.70332C3.37748 13.2774 3.006 12.9815 3.006 12.7218V3.64587H10.6764V12.7218Z" fill="#2A7FFF"/>
<path d="M5.44632 1.42321H8.5842C8.87293 1.42321 9.10718 1.17451 9.10718 0.86756C9.10718 0.560608 8.87293 0.31189 8.5842 0.31189H5.44632C5.15759 0.31189 4.92334 0.560592 4.92334 0.867544C4.92334 1.1745 5.15759 1.42321 5.44632 1.42321Z" fill="#2A7FFF"/>
<path d="M5.27201 12.3514C5.56074 12.3514 5.79499 12.1025 5.79499 11.7958V5.12768C5.79499 4.82072 5.56074 4.57202 5.27201 4.57202C4.98328 4.57202 4.74902 4.82072 4.74902 5.12768V11.7958C4.74902 12.1025 4.98328 12.3514 5.27201 12.3514Z" fill="#2A7FFF"/>
<path d="M8.40995 12.3514C8.69868 12.3514 8.93293 12.1025 8.93293 11.7958V5.12768C8.93293 4.82072 8.69868 4.57202 8.40995 4.57202C8.12122 4.57202 7.88696 4.82072 7.88696 5.12768V11.7958C7.88696 12.1025 8.12122 12.3514 8.40995 12.3514Z" fill="#2A7FFF"/>
</svg>
