<svg width="14" height="16" viewBox="0 0 14 16" fill="none" xmlns="http://www.w3.org/2000/svg">
<path d="M10.3997 0.12854H3.60044C1.71255 0.12854 0.177979 1.66311 0.177979 3.551V12.4473C0.177979 14.3352 1.71255 15.8698 3.60044 15.8698H10.4014C12.2893 15.8698 13.8239 14.3352 13.8239 12.4473V3.55276C13.8221 1.66487 12.2875 0.12854 10.3997 0.12854ZM3.60044 1.09534H10.4014C11.7567 1.09534 12.8588 2.19749 12.8588 3.55276V9.97405H1.14302V3.55276C1.14302 2.19749 2.24517 1.09534 3.60044 1.09534ZM10.3997 14.9047H3.60044C2.24517 14.9047 1.14302 13.8026 1.14302 12.4473V10.9373H12.8571V12.4473C12.8571 13.8026 11.7549 14.9047 10.3997 14.9047Z" fill="#2A7FFF"/>
</svg>
