<svg width="13" height="14" viewBox="0 0 13 14" fill="none" xmlns="http://www.w3.org/2000/svg">
<path d="M1.35169 9.15756H11.4288V2.16749H1.35169V9.15756ZM11.9772 1.037C12.2799 1.037 12.5256 1.29017 12.5256 1.60225V9.72281C12.5256 10.036 12.2799 10.2881 11.9772 10.2881H6.93865V10.3333L9.78917 12.2337C10.0436 12.4033 10.116 12.7537 9.9526 13.0149C9.84727 13.1822 9.67071 13.2738 9.49195 13.2738C9.38575 13.2738 9.28193 13.2423 9.19361 13.1834L6.93865 11.6798V12.3027C6.93865 12.6147 6.69297 12.868 6.39024 12.868C6.08646 12.868 5.84184 12.6147 5.84184 12.3027V11.6798L3.58582 13.1834C3.49782 13.2422 3.39438 13.2737 3.28854 13.2738C3.10872 13.2738 2.93209 13.1823 2.82789 13.0149C2.66339 12.7538 2.73689 12.4033 2.99026 12.2337L5.84184 10.3333V10.2881H0.803285C0.500563 10.2881 0.254883 10.036 0.254883 9.72281V1.60225C0.254883 1.29017 0.500563 1.03693 0.803285 1.03693H5.84184V0.573428C5.84184 0.260292 6.08646 0.00817871 6.39024 0.00817871C6.69297 0.00817871 6.93865 0.260226 6.93865 0.573428V1.03693H11.9772V1.037ZM4.68495 4.29962C4.87246 4.13227 5.14666 4.11423 5.34956 4.25664L7.6199 5.82696L9.61824 4.16278C9.85404 3.96725 10.1984 4.00452 10.3892 4.24761C10.5801 4.49064 10.5439 4.84563 10.3081 5.04236L7.99499 6.96767C7.80748 7.12367 7.54203 7.13495 7.34464 6.99705L5.08749 5.43695L3.17684 7.14967C3.07801 7.23837 2.94994 7.28749 2.81714 7.28764C2.66359 7.28764 2.51223 7.22197 2.40365 7.09316C2.204 6.85803 2.22921 6.50072 2.45738 6.2961L4.68495 4.29962Z" fill="#F1733C"/>
</svg>

