<svg width="16" height="16" viewBox="0 0 16 16" fill="none" xmlns="http://www.w3.org/2000/svg">
<path d="M13.25 14H2.75C2.33641 14 2 13.6636 2 13.25V2.75C2 2.33641 2.33641 2 2.75 2H10C10.2761 2 10.5 2.22391 10.5 2.5C10.5 2.77609 10.2761 3 10 3H3V13H13V6C13 5.72391 13.2239 5.5 13.5 5.5C13.7761 5.5 14 5.72391 14 6V13.25C14 13.6636 13.6636 14 13.25 14Z" fill="#0583F8"/>
<path d="M5.99998 10.5C5.87201 10.5 5.74405 10.4512 5.64655 10.3534C5.45123 10.1581 5.45123 9.84167 5.64655 9.64636L13.1465 2.14636C13.3419 1.95105 13.6583 1.95105 13.8536 2.14636C14.0489 2.34167 14.0489 2.65808 13.8536 2.85339L6.35358 10.3534C6.25592 10.4512 6.12795 10.5 5.99998 10.5Z" fill="#0583F8"/>
</svg>
