<svg width="130" height="26" viewBox="0 0 130 26" fill="none" xmlns="http://www.w3.org/2000/svg">
<path d="M37.7318 5.26587C38.1579 5.26587 38.5232 5.41047 38.8277 5.69966C39.1321 5.97364 39.2919 6.32371 39.3071 6.7499V8.73621H44.5193C44.9454 8.73621 45.3107 8.88081 45.6152 9.17C45.9044 9.47442 46.049 9.83972 46.049 10.2659C46.049 10.6921 45.8967 11.0574 45.5923 11.3618C45.3031 11.651 44.9454 11.7956 44.5193 11.7956H39.3071V12.2522C39.2919 12.8763 39.3071 14.8395 39.3071 14.8395C39.3071 14.8395 39.2538 15.9991 39.4681 16.6421C40.1009 16.8923 41.0118 16.8619 41.5902 16.8923H44.1855C44.6117 16.9076 44.9618 17.0674 45.2358 17.3718C45.5249 17.6762 45.6695 18.0415 45.6695 18.4677C45.6543 18.8786 45.5021 19.2287 45.2129 19.5179C44.9389 19.7919 44.5965 19.9365 44.1855 19.9517H40.814C39.7485 19.8908 38.492 20.1752 36.8865 19.3056C36.2058 18.9369 36.2249 17.6238 36.2249 16.5748C36.2249 15.28 36.2401 13.6069 36.2249 12.5262V11.7956H32.7492C32.323 11.7956 31.9653 11.6434 31.6761 11.339C31.3717 11.0498 31.2195 10.6921 31.2195 10.2659C31.2195 9.83972 31.3641 9.48203 31.6533 9.19283C31.9577 8.88842 32.323 8.73621 32.7492 8.73621H36.2249V6.7499C36.2401 6.33893 36.3923 5.99647 36.6815 5.72249C36.9707 5.4333 37.3208 5.28109 37.7318 5.26587Z" fill="#2A3443"/>
<path d="M49.1484 11.6129C49.4376 10.8823 49.9247 10.2278 50.6096 9.64946C51.3098 9.05584 52.1926 8.75143 53.258 8.73621H60.1423C60.5685 8.73621 60.9261 8.88842 61.2153 9.19283C61.5197 9.48203 61.672 9.83972 61.672 10.2659C61.672 10.6921 61.5197 11.0574 61.2153 11.3618C60.9261 11.651 60.5685 11.7956 60.1423 11.7956H53.1667C52.8775 11.7956 52.6264 11.9174 52.4133 12.1609C52.2002 12.3892 52.0328 12.6632 51.911 12.9828C51.8045 13.3024 51.7512 13.6069 51.7512 13.8961V18.7417C51.6599 19.6549 51.1576 20.1496 50.2443 20.2257C49.8181 20.2257 49.4452 20.0887 49.1256 19.8147C48.8212 19.5255 48.669 19.1678 48.669 18.7417V13.9189H48.6918C48.6918 13.1274 48.844 12.3588 49.1484 11.6129Z" fill="#2A3443"/>
<path d="M74.9521 18.7417V12.3892C74.9521 12.0087 74.7542 11.8108 74.3585 11.7956H67.6428C67.3536 11.8108 67.1024 11.9402 66.8893 12.1837C66.6762 12.412 66.5164 12.686 66.4099 13.0056C66.3186 13.3101 66.2729 14.4722 66.2729 14.7919C66.2729 15.0963 66.3186 15.4083 66.4099 15.7279C66.5164 16.0324 66.6762 16.3063 66.8893 16.5499C67.1024 16.7782 67.3536 16.8923 67.6428 16.8923H72.2123C72.6385 16.8923 72.9962 17.0445 73.2854 17.349C73.5898 17.6382 73.742 17.9958 73.742 18.422C73.742 18.8482 73.5898 19.2059 73.2854 19.4951C72.9962 19.7995 72.6385 19.9517 72.2123 19.9517H67.7341C66.6686 19.9365 65.7858 19.6397 65.0857 19.0613C64.4007 18.4677 63.9061 17.8056 63.6016 17.075C63.3125 16.3292 63.1679 15.5605 63.1679 14.769C63.1679 14.008 63.3201 12.412 63.6245 11.6814C63.9289 10.9356 64.4236 10.2735 65.1085 9.69512C65.7934 9.10151 66.8056 8.78187 68.1451 8.73621H76.4589C76.8851 8.73621 77.2504 8.88081 77.5548 9.17C77.8592 9.44398 78.0191 9.79405 78.0343 10.2202V18.7417C78.0343 19.1678 77.8745 19.5255 77.5548 19.8147C77.2504 20.0887 76.8851 20.2257 76.4589 20.2257C75.5457 20.1496 75.0434 19.6549 74.9521 18.7417Z" fill="#2A3443"/>
<path d="M87.37 8.39374C88.1615 8.39374 88.9377 8.48507 89.6988 8.66771C90.475 8.85036 91.2132 9.12434 91.9134 9.48964C92.6135 9.83972 93.23 10.3116 93.7627 10.9052C94.3107 11.4988 94.6075 12.2065 94.6531 13.0285V13.9874V18.7417C94.5618 19.6549 94.0595 20.1496 93.1463 20.2257C92.7201 20.2257 92.3472 20.0887 92.0275 19.8147C91.7231 19.5255 91.5709 19.1678 91.5709 18.7417V17.7371V13.7362C91.5405 13.2644 91.3578 12.8763 91.023 12.5718C90.7033 12.2522 90.338 12.0011 89.9271 11.8184C89.5313 11.6358 89.1128 11.4988 88.6714 11.4075C88.2452 11.3161 87.8114 11.2705 87.37 11.2705C86.9286 11.2705 86.4872 11.3161 86.0458 11.4075C85.6196 11.4988 85.201 11.6358 84.7901 11.8184C84.3943 12.0011 84.029 12.2522 83.6942 12.5718C83.3745 12.8763 83.1995 13.2644 83.169 13.7362V17.7371V18.7417C83.0929 19.6549 82.5983 20.1496 81.685 20.2257C81.2588 20.2257 80.8859 20.0887 80.5663 19.8147C80.2619 19.5255 80.1097 19.1678 80.1097 18.7417V13.9874V13.0285C80.1553 12.2065 80.4445 11.4988 80.9773 10.9052C81.51 10.3116 82.1264 9.83972 82.8266 9.48964C83.5267 9.12434 84.2573 8.85036 85.0184 8.66771C85.7946 8.48507 86.5785 8.39374 87.37 8.39374Z" fill="#2A3443"/>
<path d="M109.802 6.7499C109.893 5.83665 110.396 5.34197 111.309 5.26587C111.735 5.26587 112.1 5.41047 112.405 5.69966C112.724 5.97364 112.884 6.32371 112.884 6.7499V18.4677C112.869 18.8939 112.709 19.2516 112.405 19.5408C112.1 19.8147 111.735 19.9517 111.309 19.9517H102.57C101.231 19.9061 100.218 19.594 99.5334 19.0156C98.8485 18.422 98.3538 17.7599 98.0494 17.0293C97.745 16.2835 97.5928 15.105 97.5928 14.344C97.5928 13.5525 97.7374 12.7914 98.0266 12.0608C98.331 11.315 98.8257 10.6529 99.5106 10.0745C100.211 9.48092 101.094 9.1765 102.159 9.16128H107.062C107.489 9.16128 107.846 9.31349 108.135 9.61791C108.44 9.9071 108.592 10.2648 108.592 10.691C108.592 11.1172 108.44 11.4825 108.135 11.7869C107.846 12.0761 107.489 12.2207 107.062 12.2207H102.068C101.779 12.2207 101.527 12.3424 101.314 12.586C101.101 12.8143 100.941 13.0882 100.835 13.4079C100.743 13.7123 100.698 14.0167 100.698 14.3211C100.698 14.6408 100.743 15.3855 100.835 15.7051C100.941 16.0095 101.101 16.2835 101.314 16.527C101.527 16.7553 101.779 16.8771 102.068 16.8923H109.208C109.604 16.8771 109.802 16.6792 109.802 16.2987V6.7499Z" fill="#2A3443"/>
<path d="M126.918 18.7417V12.3892C126.918 12.0087 126.72 11.8108 126.324 11.7956H119.609C119.319 11.8108 119.068 11.9402 118.855 12.1837C118.642 12.412 118.482 12.686 118.376 13.0056C118.284 13.3101 118.239 13.6221 118.239 13.9417C118.239 14.2461 118.284 15.4083 118.376 15.7279C118.482 16.0324 118.642 16.3063 118.855 16.5499C119.068 16.7782 119.319 16.8923 119.609 16.8923H124.178C124.604 16.8923 124.962 17.0445 125.251 17.349C125.556 17.6382 125.708 17.9958 125.708 18.422C125.708 18.8482 125.556 19.2059 125.251 19.4951C124.962 19.7995 124.604 19.9517 124.178 19.9517H119.7C118.634 19.9365 117.752 19.6397 117.051 19.0613C116.366 18.4677 115.872 17.8056 115.567 17.075C115.278 16.3292 115.134 14.7104 115.134 13.9189C115.134 13.1578 115.286 12.412 115.59 11.6814C115.895 10.9356 116.389 10.2735 117.074 9.69512C117.759 9.10151 118.771 8.78187 120.111 8.73621H128.425C128.851 8.73621 129.216 8.88081 129.521 9.17C129.825 9.44398 129.985 9.79405 130 10.2202V18.7417C130 19.1678 129.84 19.5255 129.521 19.8147C129.216 20.0887 128.851 20.2257 128.425 20.2257C127.511 20.1496 127.009 19.6549 126.918 18.7417Z" fill="#2A3443"/>
<path d="M18.8985 7.35507V13.1009C18.8985 16.6435 16.0505 19.5154 12.5372 19.5154C9.02401 19.5154 6.17598 16.6435 6.17598 13.1009V3.42222C6.17598 1.71677 4.79344 0.334229 3.08799 0.334229C1.38254 0.334229 0 1.71677 0 3.42222V13.1009C0 20.0829 5.61311 25.743 12.5372 25.743C19.4614 25.743 25.0745 20.0829 25.0745 13.1009V7.35507H18.8985Z" fill="#349EFF"/>
<path d="M13.7147 19.4804C10.1822 20.7272 2.5767 21.8355 0.415592 16.2941C0.409921 16.2796 0.404281 16.2652 0.398669 16.2509C0.138446 15.2442 0 14.1885 0 13.1004V3.52012C0 1.81467 1.38254 0.432129 3.08799 0.432129C4.79343 0.432129 6.17597 1.81467 6.17597 3.52012V13.1004C6.17597 16.6157 9.024 19.4655 12.5372 19.4655C12.9365 19.4655 13.3223 19.479 13.7012 19.4086L13.7147 19.4804Z" fill="#0D7DE4"/>
<path d="M6.27318 20.3976C8.94165 20.6748 11.7803 20.0386 13.5899 19.4616L13.7012 19.4118C13.3218 19.4755 12.928 19.4616 12.5282 19.4616C10.9316 19.4616 9.52716 18.8289 8.40924 17.9517L8.55626 18.0644C9.15741 18.7745 8.9592 19.7462 6.78622 20.3115C6.6177 20.3452 6.37598 20.3816 6.27318 20.3976Z" fill="#1A73C6"/>
<path d="M19.0566 3.34307C19.0566 2.78914 19.5056 2.34009 20.0596 2.34009H24.0715C24.6254 2.34009 25.0744 2.78914 25.0744 3.34307V3.34307C25.0744 3.897 24.6254 4.34604 24.0715 4.34604H20.0596C19.5056 4.34604 19.0566 3.897 19.0566 3.34307V3.34307Z" fill="#349EFF"/>
<path d="M22.0655 6.35205C21.5115 6.35205 21.0625 5.903 21.0625 5.34907L21.0625 1.00283C21.0625 0.448902 21.5115 -0.000146179 22.0655 -0.000146204V-0.000146204C22.6194 -0.000146228 23.0685 0.448903 23.0685 1.00283L23.0685 5.34907C23.0685 5.903 22.6194 6.35205 22.0655 6.35205V6.35205Z" fill="#349EFF"/>
</svg>
