 <svg
  width="80"
  height="70"
  viewBox="0 0 80 70"
  fill="none"
  xmlns="http://www.w3.org/2000/svg"
>
  <rect width="68" height="70" rx="5" fill="#FFE3B8" />
  <path
    d="M17.5 17V26.1C17.5 26.94 18.06 27.5 18.9 27.5H28C28 33.24 23.24 38 17.5 38C11.76 38 7 33.24 7 27.5C7 21.76 11.76 17 17.5 17Z"
    fill="#FFA11A"
  />
  <path
    d="M19 16C24.5714 16 29 20.4286 29 26H19V16Z"
    fill="#FFC775"
  />
  <rect
    x="20"
    y="62"
    width="18"
    height="5"
    transform="rotate(-90 20 62)"
    fill="#FFB549"
  />
  <rect
    x="55"
    y="62"
    width="15"
    height="5"
    transform="rotate(-90 55 62)"
    fill="#FFD89F"
  />
  <rect
    x="43"
    y="62"
    width="22"
    height="5"
    transform="rotate(-90 43 62)"
    fill="#FFB13F"
  />
  <rect
    x="32"
    y="62"
    width="9"
    height="5"
    transform="rotate(-90 32 62)"
    fill="#FFD89F"
  />
  <rect
    x="8"
    y="62"
    width="12"
    height="5"
    transform="rotate(-90 8 62)"
    fill="#FFD89F"
  />
  <circle cx="65" cy="15" r="15" fill="white" />
  <circle cx="65" cy="15" r="12" fill="#FFA82A" />
  <rect x="58" y="14" width="14" height="2" fill="white" />
  <rect
    x="64"
    y="22"
    width="14"
    height="2"
    transform="rotate(-90 64 22)"
    fill="white"
  />
</svg>