<svg width="13" height="14" viewBox="0 0 13 14" fill="none" xmlns="http://www.w3.org/2000/svg">
<path d="M10.1176 0.130981H2.33116C1.18914 0.130981 0.254761 1.01536 0.254761 2.09626V11.4313C0.254761 12.5123 1.18914 13.3966 2.33116 13.3966H8.0672C8.61225 13.3966 9.13135 13.2001 9.54663 12.8316L11.5971 10.8909C11.9864 10.5224 12.194 10.0311 12.194 9.49063V2.09626C12.194 1.01536 11.2597 0.130981 10.1176 0.130981ZM1.29296 11.4313V2.09626C1.29296 1.55581 1.76015 1.11362 2.33116 1.11362H10.1176C10.6886 1.11362 11.1558 1.55581 11.1558 2.09626V9.22041H9.59854C8.45652 9.22041 7.52214 10.1048 7.52214 11.1857V12.414H2.33116C1.76015 12.414 1.29296 11.9718 1.29296 11.4313ZM8.79394 12.1192C8.71607 12.1929 8.63821 12.242 8.56034 12.2912V11.1857C8.56034 10.6452 9.02753 10.203 9.59854 10.203H10.8184L8.79394 12.1192Z" fill="#2B81FF"/>
<path d="M3.88842 4.30729H8.56031C8.84582 4.30729 9.07941 4.08619 9.07941 3.81597C9.07941 3.54574 8.84582 3.32465 8.56031 3.32465H3.88842C3.60292 3.32465 3.36932 3.54574 3.36932 3.81597C3.36932 4.08619 3.60292 4.30729 3.88842 4.30729ZM5.96482 8.23785H3.88842C3.60292 8.23785 3.36932 8.45894 3.36932 8.72917C3.36932 8.9994 3.60292 9.22049 3.88842 9.22049H5.96482C6.25032 9.22049 6.48392 8.9994 6.48392 8.72917C6.48392 8.45894 6.25032 8.23785 5.96482 8.23785ZM3.88842 6.76389H8.56031C8.84582 6.76389 9.07941 6.54279 9.07941 6.27257C9.07941 6.00234 8.84582 5.78125 8.56031 5.78125H3.88842C3.60292 5.78125 3.36932 6.00234 3.36932 6.27257C3.36932 6.54279 3.60292 6.76389 3.88842 6.76389Z" fill="#2B81FF"/>
</svg>