<svg width="16" height="17" viewBox="0 0 16 17" fill="none" xmlns="http://www.w3.org/2000/svg">
<path d="M13.625 15.25C13.7908 15.25 13.9497 15.1842 14.0669 15.0669C14.1842 14.9497 14.25 14.7908 14.25 14.625V8.375C14.25 8.20924 14.1842 8.05027 14.0669 7.93306C13.9497 7.81585 13.7908 7.75 13.625 7.75H2.375C2.20924 7.75 2.05027 7.81585 1.93306 7.93306C1.81585 8.05027 1.75 8.20924 1.75 8.375V14.625C1.75 14.7908 1.81585 14.9497 1.93306 15.0669C2.05027 15.1842 2.20924 15.25 2.375 15.25H13.625ZM13.625 16.5H2.375C1.87772 16.5 1.40081 16.3025 1.04917 15.9508C0.697544 15.5992 0.5 15.1223 0.5 14.625V8.375C0.5 7.87772 0.697544 7.40081 1.04917 7.04917C1.40081 6.69754 1.87772 6.5 2.375 6.5H13.625C14.1223 6.5 14.5992 6.69754 14.9508 7.04917C15.3025 7.40081 15.5 7.87772 15.5 8.375V14.625C15.5 15.1223 15.3025 15.5992 14.9508 15.9508C14.5992 16.3025 14.1223 16.5 13.625 16.5Z" fill="#2A7FFF"/>
<path d="M7.375 10.25C7.375 10.0842 7.44085 9.92527 7.55806 9.80806C7.67527 9.69085 7.83424 9.625 8 9.625C8.16576 9.625 8.32473 9.69085 8.44194 9.80806C8.55915 9.92527 8.625 10.0842 8.625 10.25V12.75C8.625 12.9158 8.55915 13.0747 8.44194 13.1919C8.32473 13.3092 8.16576 13.375 8 13.375C7.83424 13.375 7.67527 13.3092 7.55806 13.1919C7.44085 13.0747 7.375 12.9158 7.375 12.75V10.25ZM4.875 7.125C4.875 7.29076 4.80915 7.44973 4.69194 7.56694C4.57473 7.68415 4.41576 7.75 4.25 7.75C4.08424 7.75 3.92527 7.68415 3.80806 7.56694C3.69085 7.44973 3.625 7.29076 3.625 7.125V5.25C3.625 4.08968 4.08594 2.97688 4.90641 2.15641C5.72688 1.33594 6.83968 0.875 8 0.875C9.16032 0.875 10.2731 1.33594 11.0936 2.15641C11.9141 2.97688 12.375 4.08968 12.375 5.25V7.125C12.375 7.29076 12.3092 7.44973 12.1919 7.56694C12.0747 7.68415 11.9158 7.75 11.75 7.75C11.5842 7.75 11.4253 7.68415 11.3081 7.56694C11.1908 7.44973 11.125 7.29076 11.125 7.125V5.25C11.125 4.4212 10.7958 3.62634 10.2097 3.04029C9.62366 2.45424 8.8288 2.125 8 2.125C7.1712 2.125 6.37634 2.45424 5.79029 3.04029C5.20424 3.62634 4.875 4.4212 4.875 5.25V7.125Z" fill="#2A7FFF"/>
</svg>
