<svg width="36" height="36" viewBox="0 0 36 36" fill="none" xmlns="http://www.w3.org/2000/svg">
<path d="M33.3848 18.3336C33.3848 9.64717 26.3192 2.58154 17.6327 2.58154C16.8813 2.58154 16.1457 2.63269 15.4218 2.73497C9.13511 5.1269 4.66992 11.2051 4.66992 18.3297C4.66992 25.4543 9.13905 31.5364 15.4257 33.9284C16.1535 34.0306 16.8892 34.0818 17.6327 34.0818C26.3192 34.0818 33.3848 27.0162 33.3848 18.3336Z" fill="#FFDBDB"/>
<path d="M11.5339 25.8165C11.2979 25.8165 11.0579 25.726 10.8769 25.545C10.515 25.1831 10.515 24.593 10.8769 24.2311L23.8365 11.2715C24.1984 10.9095 24.7886 10.9095 25.1505 11.2715C25.5124 11.6334 25.5124 12.2235 25.1505 12.5854L12.1909 25.545C12.0099 25.726 11.7739 25.8165 11.5339 25.8165Z" fill="#E22D2D"/>
<path d="M25.422 24.8879C25.422 25.124 25.3315 25.364 25.1505 25.5449C24.7886 25.9069 24.1985 25.9069 23.8365 25.5449L10.8769 12.5854C10.515 12.2234 10.515 11.6333 10.8769 11.2714C11.2389 10.9094 11.829 10.9094 12.1909 11.2714L25.1505 24.231C25.3315 24.4119 25.422 24.648 25.422 24.8879Z" fill="#E22D2D"/>
<path d="M4.7441 29.884C4.47658 29.884 4.213 29.77 4.02809 29.5457C3.49306 28.8966 3.0013 28.2081 2.56461 27.4921C2.2971 27.0554 2.43479 26.4811 2.87541 26.2135C3.31209 25.946 3.88647 26.0837 4.15399 26.5243C4.54346 27.1617 4.98408 27.7793 5.46404 28.3616C5.79057 28.7589 5.73549 29.3411 5.33815 29.6677C5.16111 29.8132 4.95261 29.884 4.7441 29.884Z" fill="#E22D2D"/>
<path d="M17.605 35.9425C13.9463 35.9425 10.4371 34.8292 7.4551 32.7245C7.03415 32.4294 6.9358 31.8472 7.23085 31.4301C7.52984 31.0092 8.10816 30.9108 8.52517 31.2059C11.1885 33.0864 14.3279 34.0817 17.6011 34.0817C26.2876 34.0817 33.3532 27.0161 33.3532 18.3296C33.3532 9.64316 26.2915 2.58147 17.605 2.58147C8.91858 2.58147 1.85689 9.64709 1.85689 18.3336C1.85689 19.8403 2.06933 21.3313 2.48634 22.7633C2.63191 23.2551 2.34865 23.7705 1.85689 23.916C1.36119 24.0577 0.849763 23.7783 0.704202 23.2866C0.236045 21.6854 0 20.0213 0 18.3375C0 8.62817 7.89965 0.728516 17.609 0.728516C27.3183 0.728516 35.218 8.62817 35.218 18.3375C35.218 28.0468 27.3144 35.9425 17.605 35.9425Z" fill="#E22D2D"/>
</svg>
