<svg width="37" height="44" viewBox="0 0 37 44" fill="none" xmlns="http://www.w3.org/2000/svg">
<path d="M34.7794 26.3336C34.7794 17.6472 27.7137 10.5815 19.0273 10.5815C18.2759 10.5815 17.5402 10.6327 16.8163 10.735C10.5296 13.1269 6.06445 19.2051 6.06445 26.3297C6.06445 33.4543 10.5336 39.5364 16.8203 41.9284C17.5481 42.0306 18.2837 42.0818 19.0273 42.0818C27.7137 42.0818 34.7794 35.0162 34.7794 26.3336Z" fill="#D0FFC5"/>
<path d="M16.4104 32.5848C16.1743 32.5848 15.9344 32.4943 15.7534 32.3134C15.3914 31.9514 15.3914 31.3613 15.7534 30.9994L26.399 20.3537C26.761 19.9918 27.3511 19.9918 27.713 20.3537C28.075 20.7157 28.075 21.3058 27.713 21.6677L17.0674 32.3134C16.8864 32.4943 16.6504 32.5848 16.4104 32.5848Z" fill="#0DB131"/>
<path d="M16.3477 32.518C16.1116 32.518 15.8716 32.4276 15.6907 32.2466L10.3403 26.8962C9.97836 26.5343 9.97836 25.9442 10.3403 25.5822C10.7022 25.2203 11.2924 25.2203 11.6543 25.5822L17.0046 30.9326C17.3666 31.2945 17.3666 31.8847 17.0046 32.2466C16.8237 32.4276 16.5837 32.518 16.3477 32.518Z" fill="#0DB131"/>
<path d="M6.13863 37.884C5.87111 37.884 5.60753 37.77 5.42263 37.5457C4.88759 36.8966 4.39583 36.2081 3.95914 35.4921C3.69163 35.0554 3.82932 34.4811 4.26994 34.2135C4.70662 33.946 5.281 34.0837 5.54852 34.5243C5.93799 35.1617 6.37861 35.7793 6.85857 36.3616C7.1851 36.7589 7.13002 37.3411 6.73268 37.6677C6.55564 37.8132 6.34714 37.884 6.13863 37.884Z" fill="#0DB131"/>
<path d="M18.9996 43.9427C15.3409 43.9427 11.8317 42.8293 8.84963 40.7246C8.42868 40.4295 8.33033 39.8473 8.62539 39.4303C8.92438 39.0093 9.50269 38.911 9.9197 39.206C12.5831 41.0865 15.7225 42.0818 18.9956 42.0818C27.6821 42.0818 34.7477 35.0162 34.7477 26.3298C34.7477 17.6433 27.686 10.5816 18.9996 10.5816C10.3131 10.5816 3.25142 17.6472 3.25142 26.3337C3.25142 27.8404 3.46386 29.3315 3.88087 30.7635C4.02644 31.2552 3.74318 31.7706 3.25142 31.9162C2.75573 32.0578 2.24429 31.7785 2.09873 31.2867C1.63058 29.6855 1.39453 28.0214 1.39453 26.3376C1.39453 16.6283 9.29418 8.72864 19.0035 8.72864C28.7128 8.72864 36.6125 16.6283 36.6125 26.3376C36.6125 36.047 28.7089 43.9427 18.9996 43.9427Z" fill="#0DB131"/>
<path d="M2.63877 4.5491L9.15777 3.15723L7.28847 9.32679L2.63877 4.5491Z" fill="#BCFFB1"/>
<path d="M0.845703 12.3804L2.21684 9.32692L4.83429 12.3804H0.845703Z" fill="#BCFFB1"/>
</svg>
