<svg width="445" height="437" viewBox="0 0 445 437" fill="none" xmlns="http://www.w3.org/2000/svg">
<path d="M0.282715 36.616L36.8986 51.0099V265L0.282715 250.606V36.616Z" fill="url(#paint0_linear)"/>
<path d="M73.5146 36.616L36.8987 51.0099V265L73.5146 250.606V36.616Z" fill="url(#paint1_linear)"/>
<path d="M0 36.8988L36.9004 21.0851L73.7975 36.8988L36.8988 51.2749L0 36.8988Z" fill="#E2EDFD"/>
<path d="M110.442 119.457L134.899 129.071V272L110.442 262.386V119.457Z" fill="url(#paint2_linear)"/>
<path d="M159.355 119.457L134.899 129.071V272L159.355 262.386V119.457Z" fill="url(#paint3_linear)"/>
<path d="M110.253 119.646L134.9 109.083L159.544 119.646L134.899 129.248L110.253 119.646Z" fill="#FFF6E8"/>
<path d="M103 339C100.2 334.6 101.833 330.167 103 328.5L435.5 325.5C435.5 324.5 436.1 324.1 438.5 330.5C440.9 336.9 437.5 340.833 435.5 342C385.167 371.5 283.5 431.4 279.5 435C275.5 438.6 269.5 436.5 267 435C213.5 404.833 105.8 343.4 103 339Z" fill="#77A2DD"/>
<path d="M261.48 236.092C263.84 234.786 266.698 234.758 269.084 236.015L432.383 322.099C437.909 325.013 438.114 332.853 432.747 336.049L276.525 429.104C274.039 430.584 270.947 430.607 268.44 429.164L106.285 335.822C100.887 332.715 100.953 324.904 106.403 321.889L261.48 236.092Z" fill="#C1D2FF"/>
<path d="M181.524 298.5V291.592C181.524 290.158 184.392 288.605 185.826 288.007L265.5 242.5L407.364 324.572V330.666C381.434 345.602 328.858 375.905 325.99 377.626C323.122 379.347 318.342 378.343 316.311 377.626C272.936 352.174 185.764 301.686 183.675 300.195C182 299 182 299 181.525 298.5L181.524 298.5Z" fill="#E5E8E6"/>
<path d="M182.6 290.158L265.408 242.481L407.364 326.006C380.717 340.464 326.994 369.955 325.273 372.249C323.552 374.543 318.82 373.205 316.67 372.249C275.803 349.307 192.565 302.274 186.543 297.686C180.52 293.098 181.405 290.755 182.6 290.158Z" fill="#F2F7FA"/>
<path d="M251.427 305.324C252.049 304.955 252.823 304.951 253.449 305.314L288.197 325.439C289.519 326.205 289.529 328.111 288.215 328.89L273.561 337.579C272.938 337.948 272.165 337.952 271.538 337.589L236.791 317.463C235.468 316.697 235.458 314.792 236.773 314.012L251.427 305.324Z" fill="#D5DBE7"/>
<path d="M396.892 335.561L393.658 337.408C393.046 337.758 392.284 337.316 392.284 336.611C392.284 336.263 392.48 335.945 392.792 335.789L396.123 334.124C396.665 333.853 397.302 334.247 397.302 334.853C397.302 335.145 397.146 335.416 396.892 335.561Z" fill="#8A9FA7"/>
<path d="M399.453 332.777V332.322C399.453 331.963 399.646 331.631 399.957 331.453L402.976 329.728C403.643 329.347 404.472 329.829 404.472 330.597V330.837C404.472 331.177 404.299 331.494 404.013 331.678L400.994 333.619C400.329 334.046 399.453 333.569 399.453 332.777Z" fill="#8A9FA7"/>
<path d="M273.27 141.917C270.976 141.057 267.056 143.709 265.383 145.143L267.893 151.954L277.213 246.592C318.079 273.836 400.959 328.038 405.547 326.891C410.136 325.743 411.761 322.828 412 321.513V225.083C412 222.789 408.654 219.826 406.981 218.631C363.367 193.418 275.564 142.777 273.27 141.917Z" fill="#D8E3F6"/>
<path d="M263.949 242.649V148.37C263.949 144.068 268.251 144.665 270.402 145.502C313.777 170.715 401.031 221.499 403.038 222.933C405.045 224.366 406.503 227.354 406.981 228.668C407.101 259.975 407.268 323.019 406.981 324.74C406.694 326.46 405.189 327.369 404.472 327.608C359.423 301.678 268.896 249.46 267.176 248.026C265.455 246.592 264.308 243.844 263.949 242.649Z" fill="white"/>
<path d="M272.911 241.573V156.973L398.378 229.385V315.419L272.911 241.573Z" fill="#DBE3F0"/>
<path d="M284.741 181.477C284.741 180.708 285.573 180.227 286.24 180.61L307.899 193.081C308.209 193.26 308.4 193.59 308.4 193.948V208.511C308.4 209.275 307.578 209.757 306.911 209.383L285.252 197.241C284.936 197.064 284.741 196.73 284.741 196.368V181.477Z" fill="white"/>
<path opacity="0.23" d="M258 178.73C258 177.96 258.832 177.479 259.499 177.863L281.158 190.334C281.468 190.512 281.659 190.843 281.659 191.2V205.763C281.659 206.528 280.837 207.009 280.17 206.636L258.511 194.493C258.195 194.316 258 193.983 258 193.621V178.73Z" fill="#82B4FF"/>
<path d="M315.126 199.035C314.189 197.941 315.49 196.373 316.739 197.091L382.594 234.997C382.72 235.07 382.833 235.163 382.928 235.274C383.865 236.368 382.563 237.936 381.315 237.218L315.46 199.312C315.334 199.239 315.221 199.146 315.126 199.035Z" fill="white"/>
<path d="M315.249 205.488C314.312 204.394 315.613 202.825 316.861 203.544L382.717 241.45C382.843 241.522 382.956 241.616 383.051 241.727C383.987 242.82 382.686 244.389 381.438 243.671L315.583 205.765C315.457 205.692 315.344 205.598 315.249 205.488Z" fill="white"/>
<path d="M315.249 211.94C314.312 210.847 315.613 209.278 316.861 209.996L382.717 247.902C382.843 247.975 382.956 248.068 383.051 248.179C383.987 249.273 382.686 250.842 381.438 250.123L315.583 212.217C315.457 212.145 315.344 212.051 315.249 211.94Z" fill="white"/>
<path d="M282.097 213.109C281.318 211.985 282.604 210.586 283.789 211.268L332.79 239.473C332.954 239.568 333.096 239.698 333.204 239.854C333.982 240.977 332.696 242.376 331.511 241.694L282.51 213.489C282.346 213.395 282.205 213.265 282.097 213.109Z" fill="white"/>
<path d="M282.814 220.278C282.035 219.155 283.321 217.756 284.506 218.438L333.507 246.643C333.671 246.737 333.812 246.867 333.921 247.023C334.699 248.147 333.413 249.546 332.228 248.864L283.227 220.659C283.063 220.564 282.922 220.434 282.814 220.278Z" fill="white"/>
<path d="M283.53 227.448C282.752 226.324 284.038 224.925 285.223 225.607L334.224 253.812C334.388 253.907 334.529 254.037 334.637 254.193C335.416 255.316 334.13 256.715 332.945 256.033L283.944 227.828C283.78 227.734 283.639 227.604 283.53 227.448Z" fill="white"/>
<path d="M284.247 234.617C283.469 233.494 284.755 232.095 285.94 232.777L334.941 260.982C335.105 261.076 335.246 261.206 335.354 261.362C336.133 262.486 334.847 263.885 333.662 263.203L284.661 234.998C284.497 234.903 284.355 234.773 284.247 234.617Z" fill="white"/>
<path d="M343.531 269.506V241.405L378.662 262.188V290.875L343.531 269.506Z" fill="white"/>
<path d="M360.385 258.642L359.449 265.099C359.362 265.695 359.648 266.142 360.163 266.216L365.739 267.025C365.148 271.097 361.742 274.052 358.225 273.542C354.707 273.032 352.28 269.232 352.87 265.159C353.461 261.086 356.867 258.132 360.385 258.642Z" fill="#2A7FFF"/>
<path d="M361.407 258.066C364.821 258.561 367.079 262.096 366.506 266.049L360.378 265.161L361.407 258.066Z" fill="#82B4FF"/>
<path d="M256.699 256.132C257.011 255.965 257.388 255.974 257.691 256.157L262.451 259.038C263.113 259.439 263.089 260.408 262.407 260.775L256.86 263.758C256.549 263.925 256.172 263.916 255.869 263.733L251.109 260.852C250.446 260.451 250.471 259.482 251.153 259.116L256.699 256.132Z" fill="#D5DBE7"/>
<path d="M266.02 261.868C266.331 261.7 266.708 261.71 267.011 261.893L271.772 264.774C272.434 265.175 272.409 266.144 271.727 266.51L266.181 269.493C265.869 269.661 265.492 269.651 265.189 269.468L260.429 266.587C259.767 266.187 259.791 265.218 260.473 264.851L266.02 261.868Z" fill="#D5DBE7"/>
<path d="M276.057 267.603C276.369 267.436 276.746 267.445 277.048 267.629L281.809 270.51C282.471 270.91 282.446 271.879 281.765 272.246L276.218 275.229C275.906 275.397 275.529 275.387 275.227 275.204L270.466 272.323C269.804 271.922 269.829 270.953 270.51 270.587L276.057 267.603Z" fill="#D5DBE7"/>
<path d="M285.377 272.622C285.689 272.455 286.066 272.464 286.369 272.647L291.129 275.528C291.791 275.929 291.767 276.898 291.085 277.264L285.538 280.248C285.227 280.415 284.85 280.406 284.547 280.223L279.787 277.342C279.124 276.941 279.149 275.972 279.831 275.605L285.377 272.622Z" fill="#D5DBE7"/>
<path d="M294.698 278.358C295.01 278.19 295.387 278.2 295.689 278.383L300.45 281.264C301.112 281.665 301.087 282.633 300.406 283L294.859 285.983C294.547 286.151 294.17 286.141 293.867 285.958L289.107 283.077C288.445 282.676 288.469 281.708 289.151 281.341L294.698 278.358Z" fill="#D5DBE7"/>
<path d="M304.735 284.093C305.047 283.926 305.424 283.935 305.727 284.119L310.487 286.999C311.149 287.4 311.125 288.369 310.443 288.736L304.896 291.719C304.585 291.887 304.208 291.877 303.905 291.694L299.144 288.813C298.482 288.412 298.507 287.443 299.189 287.077L304.735 284.093Z" fill="#D5DBE7"/>
<path d="M314.056 289.112C314.367 288.944 314.744 288.954 315.047 289.137L319.807 292.018C320.47 292.419 320.445 293.388 319.763 293.754L314.217 296.738C313.905 296.905 313.528 296.896 313.225 296.712L308.465 293.831C307.803 293.431 307.827 292.462 308.509 292.095L314.056 289.112Z" fill="#D5DBE7"/>
<path d="M323.376 294.848C323.688 294.68 324.065 294.69 324.367 294.873L329.128 297.754C329.79 298.154 329.765 299.123 329.084 299.49L323.537 302.473C323.225 302.641 322.848 302.631 322.546 302.448L317.785 299.567C317.123 299.166 317.148 298.197 317.829 297.831L323.376 294.848Z" fill="#D5DBE7"/>
<path d="M332.696 299.866C333.008 299.699 333.385 299.708 333.688 299.891L338.448 302.772C339.11 303.173 339.086 304.142 338.404 304.509L332.857 307.492C332.546 307.659 332.169 307.65 331.866 307.467L327.106 304.586C326.443 304.185 326.468 303.216 327.15 302.85L332.696 299.866Z" fill="#D5DBE7"/>
<path d="M342.017 305.602C342.328 305.434 342.705 305.444 343.008 305.627L347.769 308.508C348.431 308.909 348.406 309.878 347.724 310.244L342.178 313.227C341.866 313.395 341.489 313.385 341.186 313.202L336.426 310.321C335.764 309.921 335.788 308.952 336.47 308.585L342.017 305.602Z" fill="#D5DBE7"/>
<path d="M351.337 311.337C351.649 311.17 352.026 311.179 352.328 311.363L357.089 314.244C357.751 314.644 357.726 315.613 357.045 315.98L351.498 318.963C351.186 319.131 350.809 319.121 350.507 318.938L345.746 316.057C345.084 315.656 345.109 314.687 345.79 314.321L351.337 311.337Z" fill="#D5DBE7"/>
<path d="M361.374 317.073C361.686 316.905 362.063 316.915 362.366 317.098L367.126 319.979C367.788 320.38 367.764 321.349 367.082 321.715L361.535 324.699C361.224 324.866 360.847 324.857 360.544 324.673L355.784 321.793C355.121 321.392 355.146 320.423 355.828 320.056L361.374 317.073Z" fill="#D5DBE7"/>
<path d="M371.423 322.086C371.728 321.921 372.098 321.927 372.398 322.101L382.912 328.194C383.589 328.586 383.573 329.569 382.884 329.94L377.361 332.911C377.056 333.075 376.686 333.069 376.386 332.895L365.872 326.802C365.195 326.41 365.21 325.427 365.9 325.056L371.423 322.086Z" fill="#D5DBE7"/>
<path d="M246.662 261.868C246.974 261.7 247.351 261.71 247.654 261.893L252.414 264.774C253.076 265.175 253.052 266.144 252.37 266.51L246.823 269.493C246.511 269.661 246.134 269.651 245.832 269.468L241.071 266.587C240.409 266.187 240.434 265.218 241.115 264.851L246.662 261.868Z" fill="#D5DBE7"/>
<path d="M255.982 267.603C256.294 267.436 256.671 267.445 256.974 267.629L261.734 270.51C262.396 270.91 262.372 271.879 261.69 272.246L256.143 275.229C255.832 275.397 255.455 275.387 255.152 275.204L250.392 272.323C249.729 271.922 249.754 270.953 250.436 270.587L255.982 267.603Z" fill="#D5DBE7"/>
<path d="M266.02 273.339C266.331 273.171 266.708 273.181 267.011 273.364L271.772 276.245C272.434 276.646 272.409 277.615 271.727 277.981L266.181 280.965C265.869 281.132 265.492 281.123 265.189 280.939L260.429 278.059C259.767 277.658 259.791 276.689 260.473 276.322L266.02 273.339Z" fill="#D5DBE7"/>
<path d="M275.34 278.358C275.652 278.19 276.029 278.2 276.332 278.383L281.092 281.264C281.754 281.665 281.729 282.633 281.048 283L275.501 285.983C275.189 286.151 274.812 286.141 274.51 285.958L269.749 283.077C269.087 282.676 269.112 281.708 269.793 281.341L275.34 278.358Z" fill="#D5DBE7"/>
<path d="M284.661 284.093C284.972 283.926 285.349 283.935 285.652 284.119L290.412 286.999C291.075 287.4 291.05 288.369 290.368 288.736L284.822 291.719C284.51 291.887 284.133 291.877 283.83 291.694L279.07 288.813C278.408 288.412 278.432 287.443 279.114 287.077L284.661 284.093Z" fill="#D5DBE7"/>
<path d="M294.698 289.829C295.01 289.661 295.387 289.671 295.689 289.854L300.45 292.735C301.112 293.136 301.087 294.105 300.406 294.471L294.859 297.454C294.547 297.622 294.17 297.613 293.867 297.429L289.107 294.548C288.445 294.148 288.469 293.179 289.151 292.812L294.698 289.829Z" fill="#D5DBE7"/>
<path d="M304.018 294.848C304.33 294.68 304.707 294.69 305.01 294.873L309.77 297.754C310.432 298.154 310.408 299.123 309.726 299.49L304.179 302.473C303.868 302.641 303.491 302.631 303.188 302.448L298.428 299.567C297.765 299.166 297.79 298.197 298.472 297.831L304.018 294.848Z" fill="#D5DBE7"/>
<path d="M313.339 300.583C313.65 300.416 314.027 300.425 314.33 300.608L319.09 303.489C319.753 303.89 319.728 304.859 319.046 305.226L313.5 308.209C313.188 308.376 312.811 308.367 312.508 308.184L307.748 305.303C307.086 304.902 307.11 303.933 307.792 303.566L313.339 300.583Z" fill="#D5DBE7"/>
<path d="M322.659 305.602C322.971 305.434 323.348 305.444 323.651 305.627L328.411 308.508C329.073 308.909 329.048 309.878 328.367 310.244L322.82 313.227C322.508 313.395 322.131 313.385 321.829 313.202L317.068 310.321C316.406 309.921 316.431 308.952 317.112 308.585L322.659 305.602Z" fill="#D5DBE7"/>
<path d="M331.979 311.337C332.291 311.17 332.668 311.179 332.971 311.363L337.731 314.244C338.393 314.644 338.369 315.613 337.687 315.98L332.14 318.963C331.829 319.131 331.452 319.121 331.149 318.938L326.389 316.057C325.726 315.656 325.751 314.687 326.433 314.321L331.979 311.337Z" fill="#D5DBE7"/>
<path d="M341.3 317.073C341.611 316.905 341.989 316.915 342.291 317.098L347.052 319.979C347.714 320.38 347.689 321.349 347.008 321.715L341.461 324.699C341.149 324.866 340.772 324.857 340.469 324.673L335.709 321.793C335.047 321.392 335.071 320.423 335.753 320.056L341.3 317.073Z" fill="#D5DBE7"/>
<path d="M351.337 322.809C351.649 322.641 352.026 322.651 352.328 322.834L357.089 325.715C357.751 326.116 357.726 327.084 357.045 327.451L351.498 330.434C351.186 330.602 350.809 330.592 350.507 330.409L345.746 327.528C345.084 327.127 345.109 326.159 345.79 325.792L351.337 322.809Z" fill="#D5DBE7"/>
<path d="M363.124 329.137C363.424 328.973 363.787 328.973 364.087 329.138L372.828 333.949C373.52 334.33 373.519 335.323 372.827 335.702L357.635 344.024C357.335 344.188 356.972 344.188 356.672 344.023L347.931 339.212C347.239 338.831 347.24 337.838 347.932 337.459L363.124 329.137Z" fill="#D5DBE7"/>
<path d="M236.625 267.603C236.936 267.436 237.313 267.445 237.616 267.629L242.376 270.51C243.039 270.91 243.014 271.879 242.332 272.246L236.785 275.229C236.474 275.397 236.097 275.387 235.794 275.204L231.034 272.323C230.372 271.922 230.396 270.953 231.078 270.587L236.625 267.603Z" fill="#D5DBE7"/>
<path d="M245.945 273.339C246.257 273.171 246.634 273.181 246.936 273.364L251.697 276.245C252.359 276.646 252.334 277.615 251.653 277.981L246.106 280.965C245.794 281.132 245.417 281.123 245.114 280.939L240.354 278.059C239.692 277.658 239.716 276.689 240.398 276.322L245.945 273.339Z" fill="#D5DBE7"/>
<path d="M255.982 279.075C256.294 278.907 256.671 278.917 256.974 279.1L261.734 281.981C262.396 282.382 262.371 283.35 261.69 283.717L256.143 286.7C255.831 286.868 255.454 286.858 255.152 286.675L250.391 283.794C249.729 283.393 249.754 282.425 250.435 282.058L255.982 279.075Z" fill="#D5DBE7"/>
<path d="M265.303 284.093C265.614 283.926 265.991 283.935 266.294 284.119L271.054 286.999C271.716 287.4 271.692 288.369 271.01 288.736L265.463 291.719C265.152 291.887 264.775 291.877 264.472 291.694L259.712 288.813C259.049 288.412 259.074 287.443 259.756 287.077L265.303 284.093Z" fill="#D5DBE7"/>
<path d="M274.623 289.829C274.934 289.661 275.312 289.671 275.614 289.854L280.375 292.735C281.037 293.136 281.012 294.105 280.331 294.471L274.784 297.454C274.472 297.622 274.095 297.613 273.792 297.429L269.032 294.548C268.37 294.148 268.394 293.179 269.076 292.812L274.623 289.829Z" fill="#D5DBE7"/>
<path d="M284.66 295.565C284.972 295.397 285.349 295.406 285.652 295.59L290.412 298.471C291.074 298.871 291.05 299.84 290.368 300.207L284.821 303.19C284.509 303.358 284.132 303.348 283.83 303.165L279.069 300.284C278.407 299.883 278.432 298.914 279.113 298.548L284.66 295.565Z" fill="#D5DBE7"/>
<path d="M293.981 300.583C294.292 300.416 294.669 300.425 294.972 300.608L299.732 303.489C300.395 303.89 300.37 304.859 299.688 305.226L294.142 308.209C293.83 308.376 293.453 308.367 293.15 308.184L288.39 305.303C287.728 304.902 287.752 303.933 288.434 303.566L293.981 300.583Z" fill="#D5DBE7"/>
<path d="M303.301 306.319C303.613 306.151 303.99 306.161 304.292 306.344L309.053 309.225C309.715 309.626 309.69 310.595 309.009 310.961L303.462 313.944C303.15 314.112 302.773 314.103 302.471 313.919L297.71 311.038C297.048 310.638 297.073 309.669 297.754 309.302L303.301 306.319Z" fill="#D5DBE7"/>
<path d="M312.621 311.337C312.933 311.17 313.31 311.179 313.613 311.363L318.373 314.244C319.035 314.644 319.011 315.613 318.329 315.98L312.782 318.963C312.471 319.131 312.094 319.121 311.791 318.938L307.031 316.057C306.368 315.656 306.393 314.687 307.075 314.321L312.621 311.337Z" fill="#D5DBE7"/>
<path d="M321.942 317.073C322.253 316.906 322.63 316.915 322.933 317.098L327.694 319.979C328.356 320.38 328.331 321.349 327.649 321.716L322.103 324.699C321.791 324.866 321.414 324.857 321.111 324.674L316.351 321.793C315.689 321.392 315.713 320.423 316.395 320.056L321.942 317.073Z" fill="#D5DBE7"/>
<path d="M331.262 322.809C331.574 322.641 331.951 322.651 332.254 322.834L337.014 325.715C337.676 326.116 337.651 327.084 336.97 327.451L331.423 330.434C331.111 330.602 330.734 330.592 330.432 330.409L325.671 327.528C325.009 327.127 325.034 326.159 325.715 325.792L331.262 322.809Z" fill="#D5DBE7"/>
<path d="M341.299 328.544C341.611 328.377 341.988 328.386 342.291 328.57L347.051 331.45C347.713 331.851 347.689 332.82 347.007 333.187L341.46 336.17C341.149 336.338 340.772 336.328 340.469 336.145L335.709 333.264C335.046 332.863 335.071 331.894 335.753 331.528L341.299 328.544Z" fill="#D5DBE7"/>
<path d="M225.87 273.339C226.182 273.171 226.559 273.181 226.862 273.364L231.622 276.245C232.284 276.646 232.26 277.615 231.578 277.981L226.031 280.965C225.72 281.132 225.343 281.123 225.04 280.939L220.28 278.059C219.617 277.658 219.642 276.689 220.324 276.322L225.87 273.339Z" fill="#D5DBE7"/>
<path d="M235.191 279.075C235.503 278.907 235.88 278.917 236.182 279.1L240.943 281.981C241.605 282.382 241.58 283.35 240.899 283.717L235.352 286.7C235.04 286.868 234.663 286.858 234.36 286.675L229.6 283.794C228.938 283.393 228.963 282.425 229.644 282.058L235.191 279.075Z" fill="#D5DBE7"/>
<path d="M245.228 284.81C245.54 284.643 245.917 284.652 246.219 284.835L250.98 287.716C251.642 288.117 251.617 289.086 250.936 289.453L245.389 292.436C245.077 292.603 244.7 292.594 244.398 292.411L239.637 289.53C238.975 289.129 239 288.16 239.681 287.793L245.228 284.81Z" fill="#D5DBE7"/>
<path d="M254.85 290.077C255.158 289.905 255.533 289.907 255.838 290.083L307.562 319.905C308.241 320.297 308.227 321.281 307.536 321.652L302.019 324.62C301.712 324.785 301.342 324.778 301.042 324.603L249.689 294.696C249.021 294.307 249.029 293.338 249.704 292.96L254.85 290.077Z" fill="#D5DBE7"/>
<path d="M311.188 322.809C311.499 322.641 311.876 322.651 312.179 322.834L316.94 325.715C317.602 326.116 317.577 327.084 316.895 327.451L311.349 330.434C311.037 330.602 310.66 330.592 310.357 330.409L305.597 327.528C304.935 327.127 304.959 326.159 305.641 325.792L311.188 322.809Z" fill="#D5DBE7"/>
<path d="M320.508 328.544C320.82 328.377 321.197 328.386 321.5 328.57L326.26 331.45C326.922 331.851 326.898 332.82 326.216 333.187L320.669 336.17C320.358 336.338 319.98 336.328 319.678 336.145L314.917 333.264C314.255 332.863 314.28 331.894 314.961 331.528L320.508 328.544Z" fill="#D5DBE7"/>
<path d="M330.545 334.28C330.857 334.112 331.234 334.122 331.537 334.305L336.297 337.186C336.959 337.587 336.935 338.556 336.253 338.922L330.706 341.906C330.395 342.073 330.018 342.064 329.715 341.88L324.955 338.999C324.292 338.599 324.317 337.63 324.999 337.263L330.545 334.28Z" fill="#D5DBE7"/>
<path d="M340.594 339.293C340.899 339.128 341.269 339.134 341.569 339.308L352.083 345.401C352.76 345.793 352.745 346.776 352.055 347.147L346.532 350.117C346.227 350.282 345.857 350.276 345.557 350.102L335.043 344.009C334.366 343.617 334.381 342.634 335.071 342.263L340.594 339.293Z" fill="#D5DBE7"/>
<rect x="363" y="81" width="2" height="61" fill="url(#paint4_linear)"/>
<circle cx="364" cy="78" r="4" fill="#7EB4FF"/>
<rect width="1.22213" height="37.2751" transform="matrix(-0.521623 0.853176 0.853176 0.521623 322.243 150.795)" fill="url(#paint5_linear)"/>
<circle r="2.44427" transform="matrix(-0.521623 0.853176 0.853176 0.521623 320.36 150.36)" fill="#817EFF"/>
<rect x="392" y="138" width="2" height="61" fill="url(#paint6_linear)"/>
<circle cx="393" cy="135" r="4" fill="#FFAD7E"/>
<path d="M168.545 421.254C168.825 420.135 169.361 413.329 169.594 410.066H175.538C176 411.5 173.973 417.28 180.5 415.5C186 414 187.699 415.902 187 418C186.301 420.098 182.5 420.5 175.538 423.5C168.958 426.335 168.195 422.653 168.545 421.254Z" fill="#E680A9"/>
<path d="M168.5 305C168.5 304.6 168.333 302 168.5 300.5C170.167 300.167 175.5 299.2 175.5 300C175.5 301 172 302.5 173 306C173.412 307.442 168.5 305.5 168.5 305Z" fill="#F8D2CF"/>
<path d="M153.05 415.188C153.33 414.07 153.866 407.263 154.099 404H160.043C160.505 405.434 158.618 411.665 165.005 409.434C172.621 406.774 174.204 409.336 173.505 411.434C172.806 413.532 166.587 413.03 160.043 417.434C154.099 421.434 152.7 416.587 153.05 415.188Z" fill="#E680A9"/>
<path d="M209.805 353.424C208.127 353.424 196.053 343.634 190.225 338.739L188.127 334.893C190.575 334.311 195.82 333.705 197.218 335.942C198.966 338.739 212.952 347.48 214.35 347.131C215.749 346.781 218.896 347.48 218.896 350.627C218.896 353.774 211.903 353.424 209.805 353.424Z" fill="#F0CEDC"/>
<path d="M147.569 331.047C146.171 329.089 146.987 325.57 147.569 324.055C149.9 324.055 154.562 324.614 154.562 326.852C154.562 329.649 152.115 333.145 151.765 334.194C151.415 335.243 149.318 333.495 147.569 331.047Z" fill="#F0CEDC"/>
<path d="M151.692 354.823C151.412 352.305 152.508 346.082 153.091 343.285C161.948 346.198 179.873 352.166 180.712 352.725C181.761 353.424 180.013 374.053 179.663 375.801C179.314 377.549 180.863 411.466 174.5 413.5C169.532 415.088 168.824 411.814 168.824 410.415V373.004C168.824 366.011 163.929 364.263 163.58 366.011C163.23 367.759 162.181 392.234 161.832 398.877C161.482 405.52 161.832 408 159.5 410.415C158.271 411.688 155 411.098 153.091 409V400.276C153.091 397.129 154.14 369.158 154.14 366.011C154.14 362.864 152.042 357.97 151.692 354.823Z" fill="#DEE7FF"/>
<path d="M144 320.233C144 316.038 150.353 307.628 153.5 302.5C154.551 300.752 160.92 299.613 163 301C164.5 302 169.902 304.801 172 305.5C174.098 306.199 181.631 309.446 183.509 310.443C185.5 311.5 195.047 331.771 196.446 333.869C197.844 335.967 196.446 337.016 193.998 336.317C191.551 335.617 188.754 340.512 187.705 339.813C186.866 339.254 183.859 331.422 182.46 327.576C182.46 333.17 182.251 345.267 181.411 348.904C180.362 353.449 180.362 352.75 176.516 354.848C172.67 356.945 151.692 345.058 151.692 342.61V325.478C150.876 325.361 148.825 325.198 147.147 325.478C145.049 325.827 144 325.478 144 320.233Z" fill="#68BCFF"/>
<path d="M165.502 299.328C162.985 297.09 161.423 292.335 160.957 290.237C160.957 288.489 177.39 283.944 179.838 284.294C182.285 284.643 181.935 288.14 182.285 290.237C182.635 292.335 181.586 300.727 178.789 302.125C175.992 303.524 168.649 302.125 165.502 299.328Z" fill="#F8D2CF"/>
<path d="M166 299.5C164.187 298.775 161.806 292.308 161 290.323C161 287.346 173.635 286.601 175.085 286.105C176.535 285.609 182.467 282.026 181.5 285.5C180.533 288.974 173.635 294.045 172.426 293.301C171.218 292.557 170.976 292.805 170.493 295.286C169 299 168.5 300.5 166 299.5Z" fill="#D6858D"/>
<path d="M160.223 288.489C158.265 284.853 169.664 279.981 175.607 278C181.901 278 183.999 282.196 180.502 286.741C177.006 291.286 162.671 293.034 160.223 288.489Z" fill="#51367A"/>
<g filter="url(#filter0_f)">
<path d="M239 101C239 105.971 234.971 110 230 110C225.029 110 221 105.971 221 101C221 96.0294 225.029 92 230 92C234.971 92 239 96.0294 239 101Z" fill="#B4D2FF"/>
</g>
<path d="M206 88.7356C206 87.965 206.835 87.484 207.502 87.8705L240.002 106.711C240.31 106.89 240.5 107.22 240.5 107.576V129.264C240.5 130.035 239.665 130.516 238.998 130.13L206.498 111.289C206.19 111.11 206 110.78 206 110.424V88.7356Z" fill="#2A7FFF"/>
<path d="M212 96V109.5L230 120" stroke="white"/>
<path d="M212 107C212.833 106 215 104.4 217 106C219.5 108 219.5 110 223.5 108.5C227.5 107 227.5 107 230 108.5" stroke="white"/>
<defs>
<filter id="filter0_f" x="205" y="76" width="50" height="50" filterUnits="userSpaceOnUse" color-interpolation-filters="sRGB">
<feFlood flood-opacity="0" result="BackgroundImageFix"/>
<feBlend mode="normal" in="SourceGraphic" in2="BackgroundImageFix" result="shape"/>
<feGaussianBlur stdDeviation="8" result="effect1_foregroundBlur"/>
</filter>
<linearGradient id="paint0_linear" x1="18.5907" y1="36.616" x2="18.5907" y2="265" gradientUnits="userSpaceOnUse">
<stop stop-color="#D5E4F8"/>
<stop offset="1" stop-color="white"/>
</linearGradient>
<linearGradient id="paint1_linear" x1="55.2067" y1="36.616" x2="55.2067" y2="265" gradientUnits="userSpaceOnUse">
<stop stop-color="#DBEBFF"/>
<stop offset="1" stop-color="#F6FAFF" stop-opacity="0.56"/>
<stop offset="1" stop-color="#F6FAFF" stop-opacity="0"/>
</linearGradient>
<linearGradient id="paint2_linear" x1="122.67" y1="119.457" x2="122.67" y2="272" gradientUnits="userSpaceOnUse">
<stop stop-color="#F8E6D5"/>
<stop offset="1" stop-color="white"/>
</linearGradient>
<linearGradient id="paint3_linear" x1="147.127" y1="119.457" x2="147.127" y2="272" gradientUnits="userSpaceOnUse">
<stop stop-color="#FFEEDB"/>
<stop offset="1" stop-color="#F6FAFF" stop-opacity="0.56"/>
</linearGradient>
<linearGradient id="paint4_linear" x1="364" y1="81" x2="364" y2="142" gradientUnits="userSpaceOnUse">
<stop stop-color="#C8DFFF"/>
<stop offset="1" stop-color="#C8DFFF" stop-opacity="0"/>
</linearGradient>
<linearGradient id="paint5_linear" x1="0.611067" y1="0" x2="0.611067" y2="37.2751" gradientUnits="userSpaceOnUse">
<stop stop-color="#817EFF"/>
<stop offset="1" stop-color="#C8DFFF" stop-opacity="0"/>
</linearGradient>
<linearGradient id="paint6_linear" x1="393" y1="138" x2="393" y2="199" gradientUnits="userSpaceOnUse">
<stop stop-color="#FFAD7E"/>
<stop offset="1" stop-color="white" stop-opacity="0"/>
</linearGradient>
</defs>
</svg>
