<svg width="16" height="18" viewBox="0 0 16 18" fill="none" xmlns="http://www.w3.org/2000/svg">
<path d="M14.2617 11.8824H10.1364V7.63693H9.05471V11.8824H6.94531V7.63693H5.86367V11.8824H1.73836C0.778281 11.8824 0 12.6607 0 13.6208V15.7117C0 16.6718 0.778281 17.4501 1.73836 17.4501H14.2616C15.2217 17.4501 16 16.6718 16 15.7117V13.6208C16 12.6607 15.2217 11.8824 14.2617 11.8824ZM14.9184 15.7117C14.9184 16.0738 14.6238 16.3684 14.2617 16.3684H1.73836C1.37624 16.3684 1.08164 16.0738 1.08164 15.7117V13.6208C1.08164 13.2587 1.37624 12.9641 1.73836 12.9641H14.2616C14.6238 12.9641 14.9184 13.2587 14.9184 13.6208L14.9184 15.7117Z" fill="#B6B6BA"/>
<path d="M8.01937 1.85777C9.50215 1.85777 10.7042 3.05978 10.7042 4.54256C10.7042 6.02534 9.50215 7.22736 8.01937 7.22736C6.53659 7.22736 5.33457 6.02534 5.33457 4.54256C5.33457 3.05978 6.53659 1.85777 8.01937 1.85777ZM8.01937 0.776123C7.51138 0.776123 7.01802 0.875847 6.55297 1.07255C6.10434 1.2623 5.70166 1.53374 5.35609 1.87928C5.01054 2.22483 4.73911 2.62753 4.54936 3.07616C4.35265 3.54119 4.25293 4.03456 4.25293 4.54256C4.25293 5.05057 4.35265 5.54391 4.54936 6.00896C4.73911 6.45759 5.01054 6.86027 5.35609 7.20584C5.70164 7.55138 6.10434 7.82282 6.55297 8.01257C7.01802 8.20927 7.51138 8.309 8.01937 8.309C8.52735 8.309 9.02072 8.20927 9.48577 8.01257C9.9344 7.82282 10.3371 7.55138 10.6826 7.20584C11.0282 6.86029 11.2996 6.45759 11.4894 6.00896C11.6861 5.54391 11.7858 5.05055 11.7858 4.54256C11.7858 4.03457 11.6861 3.54121 11.4894 3.07616C11.2996 2.62753 11.0282 2.22485 10.6826 1.87928C10.3371 1.53374 9.9344 1.2623 9.48577 1.07255C9.02072 0.875847 8.52735 0.776123 8.01937 0.776123Z" fill="#B6B6BA"/>
</svg>
