<svg width="13" height="15" viewBox="0 0 13 15" fill="none" xmlns="http://www.w3.org/2000/svg">
<path d="M6.8 13.8001L11.3 11.2001C11.5 11.1001 11.6 10.9001 11.6 10.7001V5.5001L7.1 8.1001C7 8.2001 6.9 8.2001 6.8 8.2001V13.8001ZM11.9 3.9001C12.4 4.2001 12.7 4.7001 12.7 5.2001V10.7001C12.7 11.3001 12.4 11.8001 11.9 12.0001L7.1 14.7001C6.6 15.0001 6 15.0001 5.6 14.7001L0.8 12.0001C0.3 11.7001 0 11.2001 0 10.7001V5.2001C0 4.6001 0.3 4.1001 0.8 3.9001L5.6 1.2001C6.1 0.900098 6.7 0.900098 7.1 1.2001L11.9 3.9001Z" fill="white"/>
</svg>
