<svg width="15" height="15" viewBox="0 0 15 15" fill="none" xmlns="http://www.w3.org/2000/svg">
<path d="M2.04539 0.96114H6.30909C6.88968 0.96114 7.36034 1.42384 7.36034 2.00915V6.34685C7.36034 6.92565 6.89222 7.39486 6.30909 7.39486H2.04539C1.4648 7.39486 0.994141 6.93216 0.994141 6.34685V2.00915C0.994141 1.43035 1.46226 0.96114 2.04539 0.96114ZM2.04539 8.30397H6.30909C6.88968 8.30397 7.36034 8.76667 7.36034 9.35198V13.6897C7.36034 14.2685 6.89222 14.7377 6.30909 14.7377H2.04539C1.4648 14.7377 0.994141 14.275 0.994141 13.6897V9.35198C0.994141 8.77318 1.46226 8.30397 2.04539 8.30397ZM8.03786 3.94787L11.0424 0.943367C11.2486 0.737141 11.5885 0.742709 11.7931 0.947327L14.8295 3.9837C15.0379 4.19211 15.0359 4.532 14.8335 4.73447L11.829 7.73898C11.6227 7.9452 11.2828 7.93964 11.0782 7.73502L8.04182 4.69864C7.83341 4.49023 7.83539 4.15034 8.03786 3.94787ZM9.30382 8.30397H13.5675C14.1481 8.30397 14.6188 8.76667 14.6188 9.35198V13.6897C14.6188 14.2685 14.1506 14.7377 13.5675 14.7377H9.30382C8.72323 14.7377 8.25257 14.275 8.25257 13.6897V9.35198C8.25257 8.77318 8.72069 8.30397 9.30382 8.30397Z" fill="#2A7FFF"/>
</svg>
