<svg width="28" height="23" viewBox="0 0 28 23" fill="none" xmlns="http://www.w3.org/2000/svg">
<path d="M6.02005 19.1899C5.08018 19.1913 4.17657 18.8273 3.50005 18.1749C3.16399 17.8613 2.89585 17.482 2.71224 17.0606C2.52862 16.6392 2.43343 16.1846 2.43255 15.7249C2.43906 15.2635 2.53672 14.808 2.71993 14.3846C2.90313 13.9611 3.16825 13.578 3.50005 13.2574C4.19031 12.6043 5.10483 12.241 6.05505 12.2424H7.80505C8.03711 12.2424 8.25967 12.1502 8.42377 11.9861C8.58786 11.822 8.68005 11.5995 8.68005 11.3674C8.68005 11.1353 8.58786 10.9128 8.42377 10.7487C8.25967 10.5846 8.03711 10.4924 7.80505 10.4924H6.05505C5.34958 10.4665 4.64614 10.5832 3.9868 10.8354C3.32745 11.0876 2.72574 11.4702 2.21766 11.9603C1.70958 12.4504 1.30556 13.038 1.02977 13.6878C0.753978 14.3377 0.612075 15.0364 0.61255 15.7424C0.640151 17.1596 1.22854 18.5081 2.24875 19.4922C3.26896 20.4763 4.63774 21.0158 6.05505 20.9924V22.7424L8.75005 20.0649L6.02005 17.4574V19.1899ZM16.0125 17.4574H12.3726C11.6764 17.4574 11.0087 17.734 10.5164 18.2262C10.0241 18.7185 9.74755 19.3862 9.74755 20.0824C9.74755 20.7786 10.0241 21.4463 10.5164 21.9385C11.0087 22.4308 11.6764 22.7074 12.3726 22.7074H16.0125C16.7087 22.7074 17.3764 22.4308 17.8687 21.9385C18.361 21.4463 18.6375 20.7786 18.6375 20.0824C18.6375 19.3862 18.361 18.7185 17.8687 18.2262C17.3764 17.734 16.7087 17.4574 16.0125 17.4574ZM16.0125 20.9574H12.3726C12.1405 20.9574 11.9179 20.8652 11.7538 20.7011C11.5897 20.537 11.4976 20.3145 11.4976 20.0824C11.4976 19.8503 11.5897 19.6278 11.7538 19.4637C11.9179 19.2996 12.1405 19.2074 12.3726 19.2074H16.0125C16.2446 19.2074 16.4672 19.2996 16.6313 19.4637C16.7954 19.6278 16.8875 19.8503 16.8875 20.0824C16.8875 20.3145 16.7954 20.537 16.6313 20.7011C16.4672 20.8652 16.2446 20.9574 16.0125 20.9574ZM16.0125 0.097391H12.3726C12.0232 0.0904282 11.6759 0.152357 11.3505 0.279641C11.0251 0.406924 10.728 0.597067 10.4761 0.839209C10.2242 1.08135 10.0225 1.37075 9.88248 1.69087C9.74246 2.01099 9.66688 2.35555 9.66005 2.70489C9.66688 3.05423 9.74246 3.3988 9.88248 3.71892C10.0225 4.03903 10.2242 4.32843 10.4761 4.57057C10.728 4.81272 11.0251 5.00286 11.3505 5.13014C11.6759 5.25742 12.0232 5.31935 12.3726 5.31239H16.0125C16.3619 5.31935 16.7092 5.25742 17.0346 5.13014C17.36 5.00286 17.6571 4.81272 17.909 4.57057C18.1609 4.32843 18.3626 4.03903 18.5026 3.71892C18.6426 3.3988 18.7182 3.05423 18.725 2.70489C18.7182 2.35555 18.6426 2.01099 18.5026 1.69087C18.3626 1.37075 18.1609 1.08135 17.909 0.839209C17.6571 0.597067 17.36 0.406924 17.0346 0.279641C16.7092 0.152357 16.3619 0.0904282 16.0125 0.097391ZM16.0125 3.59739H12.3726C12.1388 3.60215 11.9125 3.51498 11.7423 3.35463C11.5721 3.19427 11.4717 2.97354 11.4626 2.73989C11.4648 2.62268 11.4902 2.50706 11.5371 2.39965C11.5841 2.29224 11.6518 2.19513 11.7363 2.11387C11.8208 2.03262 11.9205 1.96881 12.0296 1.92609C12.1388 1.88336 12.2553 1.86257 12.3726 1.86489H16.0125C16.2446 1.86489 16.4672 1.95708 16.6313 2.12117C16.7954 2.28527 16.8875 2.50783 16.8875 2.73989C16.8875 2.97196 16.7954 3.19452 16.6313 3.35861C16.4672 3.5227 16.2446 3.61489 16.0125 3.61489V3.59739ZM16.0125 8.77739H12.3726C12.0278 8.77739 11.6865 8.84529 11.368 8.97721C11.0495 9.10913 10.7601 9.30248 10.5164 9.54624C10.2726 9.78999 10.0793 10.0794 9.94737 10.3978C9.81545 10.7163 9.74755 11.0577 9.74755 11.4024C9.74755 11.7471 9.81545 12.0885 9.94737 12.4069C10.0793 12.7254 10.2726 13.0148 10.5164 13.2585C10.7601 13.5023 11.0495 13.6957 11.368 13.8276C11.6865 13.9595 12.0278 14.0274 12.3726 14.0274H16.0125C16.3573 14.0274 16.6986 13.9595 17.0171 13.8276C17.3356 13.6957 17.625 13.5023 17.8687 13.2585C18.1125 13.0148 18.3058 12.7254 18.4377 12.4069C18.5697 12.0885 18.6375 11.7471 18.6375 11.4024C18.6375 11.0577 18.5697 10.7163 18.4377 10.3978C18.3058 10.0794 18.1125 9.78999 17.8687 9.54624C17.625 9.30248 17.3356 9.10913 17.0171 8.97721C16.6986 8.84529 16.3573 8.77739 16.0125 8.77739ZM16.0125 12.2774H12.3726C12.1388 12.2822 11.9125 12.195 11.7423 12.0346C11.5721 11.8743 11.4717 11.6535 11.4626 11.4199C11.4716 11.1847 11.5715 10.9621 11.7411 10.7989C11.9108 10.6358 12.1371 10.5447 12.3726 10.5449H16.0125C16.2463 10.5448 16.4707 10.6365 16.6375 10.8001C16.8044 10.9637 16.9005 11.1862 16.9051 11.4199C16.8915 11.6458 16.791 11.8577 16.6246 12.011C16.4582 12.1644 16.2388 12.2473 16.0125 12.2424V12.2774ZM22.365 1.82989H20.51C20.278 1.82989 20.0554 1.92208 19.8913 2.08617C19.7272 2.25027 19.635 2.47283 19.635 2.70489C19.635 2.93696 19.7272 3.15951 19.8913 3.32361C20.0554 3.4877 20.278 3.57989 20.51 3.57989H22.365C23.3153 3.57854 24.2298 3.94184 24.92 4.59489C25.2576 4.90931 25.5269 5.28989 25.711 5.7129C25.895 6.13592 25.99 6.59231 25.99 7.05364C25.99 7.51497 25.895 7.97137 25.711 8.39438C25.5269 8.8174 25.2576 9.19797 24.92 9.51239C24.2348 10.1733 23.317 10.5379 22.365 10.5274V8.77739L19.635 11.3849L22.365 13.9924V12.2424C23.0705 12.2683 23.774 12.1516 24.4333 11.8994C25.0926 11.6472 25.6944 11.2646 26.2024 10.7745C26.7105 10.2843 27.1145 9.6968 27.3903 9.04696C27.6661 8.39712 27.808 7.69833 27.8076 6.99239C27.7964 6.29385 27.6459 5.60456 27.3649 4.96491C27.084 4.32527 26.6781 3.74814 26.1713 3.26734C25.6644 2.78654 25.0666 2.41174 24.4131 2.16491C23.7595 1.91808 23.0632 1.80419 22.365 1.82989Z" fill="#B6B6BA"/>
</svg>
