<svg width="20" height="19" viewBox="0 0 20 19" fill="none" xmlns="http://www.w3.org/2000/svg">
<g clip-path="url(#clip0)">
<path d="M4.58502 15.0574C3.94726 15.0584 3.33409 14.8114 2.87503 14.3687C2.64698 14.1559 2.46504 13.8985 2.34044 13.6126C2.21584 13.3266 2.15125 13.0181 2.15065 12.7062C2.15507 12.3931 2.22134 12.084 2.34566 11.7967C2.46997 11.5093 2.64988 11.2494 2.87503 11.0318C3.34341 10.5887 3.96398 10.3421 4.60877 10.3431H5.79627C5.95375 10.3431 6.10477 10.2805 6.21612 10.1692C6.32747 10.0578 6.39002 9.90679 6.39002 9.74931C6.39002 9.59184 6.32747 9.44082 6.21612 9.32947C6.10477 9.21812 5.95375 9.15556 5.79627 9.15556H4.60877C4.13006 9.138 3.65273 9.21716 3.20532 9.38831C2.7579 9.55946 2.3496 9.81909 2.00483 10.1517C1.66006 10.4842 1.38591 10.8829 1.19876 11.3239C1.01162 11.7649 0.915328 12.239 0.91565 12.7181C0.934379 13.6798 1.33365 14.5948 2.02593 15.2626C2.71821 15.9304 3.64703 16.2965 4.60877 16.2806V17.4681L6.43752 15.6512L4.58502 13.8818V15.0574ZM11.3656 13.8818H8.89565C8.42323 13.8818 7.97016 14.0695 7.63612 14.4035C7.30207 14.7376 7.1144 15.1906 7.1144 15.6631C7.1144 16.1355 7.30207 16.5885 7.63612 16.9226C7.97016 17.2566 8.42323 17.4443 8.89565 17.4443H11.3656C11.8381 17.4443 12.2911 17.2566 12.6252 16.9226C12.9592 16.5885 13.1469 16.1355 13.1469 15.6631C13.1469 15.1906 12.9592 14.7376 12.6252 14.4035C12.2911 14.0695 11.8381 13.8818 11.3656 13.8818ZM11.3656 16.2568H8.89565C8.73818 16.2568 8.58715 16.1943 8.4758 16.0829C8.36445 15.9716 8.3019 15.8205 8.3019 15.6631C8.3019 15.5056 8.36445 15.3546 8.4758 15.2432C8.58715 15.1319 8.73818 15.0693 8.89565 15.0693H11.3656C11.5231 15.0693 11.6741 15.1319 11.7855 15.2432C11.8968 15.3546 11.9594 15.5056 11.9594 15.6631C11.9594 15.8205 11.8968 15.9716 11.7855 16.0829C11.6741 16.1943 11.5231 16.2568 11.3656 16.2568ZM11.3656 2.10181H8.89565C8.6586 2.09709 8.42294 2.13911 8.20214 2.22548C7.98134 2.31185 7.77971 2.44088 7.60879 2.60519C7.43786 2.7695 7.30098 2.96588 7.20596 3.1831C7.11095 3.40032 7.05966 3.63414 7.05502 3.87119C7.05966 4.10824 7.11095 4.34205 7.20596 4.55928C7.30098 4.7765 7.43786 4.97288 7.60879 5.13719C7.77971 5.3015 7.98134 5.43052 8.20214 5.51689C8.42294 5.60327 8.6586 5.64529 8.89565 5.64056H11.3656C11.6027 5.64529 11.8384 5.60327 12.0592 5.51689C12.28 5.43052 12.4816 5.3015 12.6525 5.13719C12.8234 4.97288 12.9603 4.7765 13.0553 4.55928C13.1504 4.34205 13.2016 4.10824 13.2063 3.87119C13.2016 3.63414 13.1504 3.40032 13.0553 3.1831C12.9603 2.96588 12.8234 2.7695 12.6525 2.60519C12.4816 2.44088 12.28 2.31185 12.0592 2.22548C11.8384 2.13911 11.6027 2.09709 11.3656 2.10181ZM11.3656 4.47681H8.89565C8.73702 4.48005 8.58345 4.4209 8.46798 4.31208C8.3525 4.20327 8.28434 4.05348 8.27815 3.89494C8.27969 3.8154 8.29689 3.73695 8.32876 3.66406C8.36063 3.59117 8.40655 3.52528 8.4639 3.47014C8.52124 3.415 8.58888 3.3717 8.66297 3.34271C8.73705 3.31372 8.81611 3.29961 8.89565 3.30119H11.3656C11.5231 3.30119 11.6741 3.36374 11.7855 3.47509C11.8968 3.58644 11.9594 3.73747 11.9594 3.89494C11.9594 4.05241 11.8968 4.20343 11.7855 4.31478C11.6741 4.42613 11.5231 4.48869 11.3656 4.48869V4.47681ZM11.3656 7.99181H8.89565C8.66173 7.99181 8.43011 8.03789 8.21399 8.1274C7.99788 8.21692 7.80152 8.34813 7.63612 8.51353C7.47071 8.67893 7.33951 8.8753 7.24999 9.09141C7.16047 9.30752 7.1144 9.53915 7.1144 9.77306C7.1144 10.007 7.16047 10.2386 7.24999 10.4547C7.33951 10.6708 7.47071 10.8672 7.63612 11.0326C7.80152 11.198 7.99788 11.3292 8.21399 11.4187C8.43011 11.5082 8.66173 11.5543 8.89565 11.5543H11.3656C11.5996 11.5543 11.8312 11.5082 12.0473 11.4187C12.2634 11.3292 12.4598 11.198 12.6252 11.0326C12.7906 10.8672 12.9218 10.6708 13.0113 10.4547C13.1008 10.2386 13.1469 10.007 13.1469 9.77306C13.1469 9.53915 13.1008 9.30752 13.0113 9.09141C12.9218 8.8753 12.7906 8.67893 12.6252 8.51353C12.4598 8.34813 12.2634 8.21692 12.0473 8.1274C11.8312 8.03789 11.5996 7.99181 11.3656 7.99181ZM11.3656 10.3668H8.89565C8.73702 10.37 8.58345 10.3109 8.46798 10.2021C8.3525 10.0933 8.28434 9.94348 8.27815 9.78494C8.28429 9.62532 8.35205 9.47429 8.4672 9.36357C8.58234 9.25286 8.73591 9.19107 8.89565 9.19119H11.3656C11.5242 9.19116 11.6765 9.25333 11.7897 9.36435C11.903 9.47537 11.9682 9.62638 11.9713 9.78494C11.9621 9.93823 11.8939 10.082 11.781 10.1861C11.668 10.2901 11.5192 10.3464 11.3656 10.3431V10.3668ZM15.6763 3.27744H14.4175C14.2601 3.27744 14.109 3.33999 13.9977 3.45134C13.8863 3.56269 13.8238 3.71372 13.8238 3.87119C13.8238 4.02866 13.8863 4.17968 13.9977 4.29103C14.109 4.40238 14.2601 4.46494 14.4175 4.46494H15.6763C16.3211 4.46402 16.9416 4.71055 17.41 5.15369C17.6391 5.36705 17.8218 5.62529 17.9467 5.91234C18.0716 6.19938 18.1361 6.50908 18.1361 6.82213C18.1361 7.13517 18.0716 7.44487 17.9467 7.73191C17.8218 8.01896 17.6391 8.27721 17.41 8.49056C16.9451 8.93905 16.3222 9.18647 15.6763 9.17931V7.99181L13.8238 9.76119L15.6763 11.5306V10.3431C16.155 10.3606 16.6323 10.2815 17.0797 10.1103C17.5271 9.93916 17.9354 9.67954 18.2802 9.34696C18.625 9.01439 18.8991 8.6157 19.0863 8.17474C19.2734 7.73377 19.3697 7.2596 19.3694 6.78056C19.3618 6.30655 19.2597 5.83882 19.069 5.40477C18.8784 4.97073 18.603 4.57911 18.2591 4.25285C17.9151 3.92659 17.5095 3.67227 17.066 3.50478C16.6225 3.33728 16.15 3.26 15.6763 3.27744Z" fill="#B6B6BA"/>
</g>
<defs>
<clipPath id="clip0">
<rect x="0.5" width="19" height="19" fill="white"/>
</clipPath>
</defs>
</svg>
