<svg width="16" height="14" viewBox="0 0 16 14" fill="none" xmlns="http://www.w3.org/2000/svg">
<path d="M4.70607 1.3642L3.74891 0.407047C2.14918 1.62525 1.09162 3.51948 0.991211 5.66137H2.3299C2.4303 3.88762 3.3406 2.33475 4.70607 1.3642ZM13.6686 5.66137H15.0072C14.9068 3.51948 13.8493 1.62525 12.2429 0.407047L11.2857 1.3642C12.6579 2.33475 13.5681 3.88762 13.6686 5.66137ZM12.3499 5.99605C12.3499 3.94117 10.9242 2.22095 9.00324 1.76581V1.31066C9.00324 0.755109 8.55479 0.306641 7.99923 0.306641C7.44368 0.306641 6.99521 0.755094 6.99521 1.31066V1.76581C5.07419 2.22097 3.64851 3.94117 3.64851 5.99605V9.67742L2.30982 11.0161V11.6855H13.6886V11.0161L12.3499 9.67742V5.99605ZM7.99923 13.6935C8.09293 13.6935 8.17994 13.6868 8.26696 13.6667C8.70204 13.5797 9.06348 13.2785 9.23082 12.8769C9.29776 12.7162 9.33791 12.5422 9.33791 12.3548H6.66054C6.66054 13.0911 7.26294 13.6935 7.99923 13.6935Z" fill="#FFBD41"/>
</svg>
