<svg width="14" height="10" viewBox="0 0 14 10" fill="none" xmlns="http://www.w3.org/2000/svg">
<path d="M13.8016 0.17977C13.6805 0.0622531 13.5177 -0.002383 13.349 6.72038e-05C13.1803 0.00251741 13.0195 0.0718534 12.9018 0.192837L5.05239 8.27562L1.08567 4.19269C0.967362 4.0749 0.807508 4.00829 0.640558 4.00724C0.473607 4.00619 0.312925 4.07077 0.193139 4.18706C0.0733533 4.30336 0.00405294 4.46206 0.000172186 4.62897C-0.00370857 4.79588 0.058141 4.95763 0.172392 5.07937L4.59365 9.63224C4.65298 9.69333 4.72397 9.74189 4.8024 9.77506C4.88084 9.80822 4.96513 9.82531 5.05029 9.82531C5.13545 9.82531 5.21974 9.80822 5.29818 9.77506C5.37662 9.74189 5.4476 9.69333 5.50693 9.63224L13.8137 1.07905C13.872 1.01913 13.9178 0.948315 13.9487 0.870659C13.9796 0.793003 13.9948 0.710026 13.9936 0.626469C13.9924 0.542912 13.9747 0.460413 13.9416 0.383687C13.9085 0.30696 13.8606 0.23751 13.8006 0.179304L13.8016 0.17977Z" fill="#2B81FF"/>
</svg>
