<svg width="15" height="15" viewBox="0 0 15 15" fill="none" xmlns="http://www.w3.org/2000/svg">
<path d="M8.96036 7.94247L14.7583 2.17449C15.0325 1.90168 15.0339 1.45964 14.7611 1.18547C14.4877 0.910702 14.0464 0.909931 13.7722 1.18272L7.97276 6.95135L2.22375 1.18485C1.95163 0.912056 1.50896 0.910681 1.2348 1.18345C0.961276 1.45622 0.96063 1.89891 1.23342 2.17308L6.98103 7.9382L1.18582 13.7027C0.91163 13.9755 0.910255 14.4175 1.18303 14.6917C1.24795 14.7571 1.32519 14.809 1.41029 14.8444C1.4954 14.8798 1.58667 14.898 1.67884 14.8979C1.85717 14.8979 2.03561 14.8302 2.172 14.6944L7.96861 8.92856L13.7701 14.7476C13.9065 14.8847 14.0856 14.9533 14.2653 14.9533C14.357 14.9533 14.4478 14.9353 14.5325 14.9003C14.6173 14.8652 14.6942 14.8138 14.7591 14.749C15.0325 14.4762 15.0333 14.0343 14.7605 13.7601L8.96036 7.94247Z" fill="#333333"/>
</svg>
