<svg width="16" height="17" viewBox="0 0 16 17" fill="none" xmlns="http://www.w3.org/2000/svg">
<path d="M8.62482 2.155C10.222 2.31029 11.7042 3.05463 12.7825 4.243C13.8609 5.43136 14.4582 6.97862 14.4582 8.58333H14.4515C14.4557 8.6125 14.4582 8.64167 14.4582 8.6725V12.9583H15.2332C15.3989 12.9583 15.5579 13.0242 15.6751 13.1414C15.7923 13.2586 15.8582 13.4176 15.8582 13.5833C15.8582 13.7491 15.7923 13.9081 15.6751 14.0253C15.5579 14.1425 15.3989 14.2083 15.2332 14.2083H11.0915C10.9822 14.9503 10.6098 15.6282 10.0423 16.1183C9.47466 16.6084 8.74974 16.8781 7.99982 16.8781C7.24989 16.8781 6.52497 16.6084 5.95738 16.1183C5.3898 15.6282 5.01739 14.9503 4.90815 14.2083H0.771484C0.605724 14.2083 0.446753 14.1425 0.329543 14.0253C0.212332 13.9081 0.146484 13.7491 0.146484 13.5833C0.146484 13.4176 0.212332 13.2586 0.329543 13.1414C0.446753 13.0242 0.605724 12.9583 0.771484 12.9583H1.54148V8.6725C1.54148 8.64167 1.54398 8.6125 1.54815 8.58333H1.54148C1.54141 6.97862 2.13874 5.43136 3.21711 4.243C4.29548 3.05463 5.77764 2.31029 7.37482 2.155V1.5C7.37482 1.33424 7.44067 1.17527 7.55788 1.05806C7.67509 0.940848 7.83406 0.875 7.99982 0.875C8.16558 0.875 8.32455 0.940848 8.44176 1.05806C8.55897 1.17527 8.62482 1.33424 8.62482 1.5V2.155ZM2.79148 12.9583H13.2082V8.6725C13.2082 8.64167 13.2107 8.6125 13.2148 8.58333H13.2082C13.2082 7.202 12.6594 5.87724 11.6827 4.90049C10.7059 3.92373 9.38115 3.375 7.99982 3.375C6.61848 3.375 5.29372 3.92373 4.31697 4.90049C3.34022 5.87724 2.79148 7.202 2.79148 8.58333H2.78482C2.78898 8.6125 2.79148 8.64167 2.79148 8.6725V12.9583ZM9.81815 14.2083H6.18148C6.28339 14.6134 6.51762 14.9728 6.84703 15.2296C7.17643 15.4864 7.58215 15.6259 7.99982 15.6259C8.41749 15.6259 8.8232 15.4864 9.15261 15.2296C9.48201 14.9728 9.71624 14.6134 9.81815 14.2083Z" fill="white"/>
</svg>
