<svg width="23" height="25" viewBox="0 0 23 25" fill="none" xmlns="http://www.w3.org/2000/svg">
<path d="M20.1898 16.499H14.3497V10.4888H12.8185V16.499H9.83226V10.4888H8.30101V16.499H2.46094C1.10179 16.499 0 17.6007 0 18.9599V21.92C0 23.2791 1.10179 24.3809 2.46094 24.3809H20.1898C21.5489 24.3809 22.6507 23.2791 22.6507 21.92V18.9599C22.6507 17.6008 21.5489 16.499 20.1898 16.499ZM21.1195 21.92C21.1195 22.4326 20.7024 22.8497 20.1898 22.8497H2.46094C1.9483 22.8497 1.53125 22.4326 1.53125 21.92V18.9599C1.53125 18.4473 1.9483 18.0302 2.46094 18.0302H20.1898C20.7024 18.0302 21.1195 18.4473 21.1195 18.9599L21.1195 21.92Z" fill="#B6B6BA"/>
<path d="M11.3528 2.30737C13.4519 2.30737 15.1536 4.00903 15.1536 6.10815C15.1536 8.20728 13.4519 9.90894 11.3528 9.90894C9.25366 9.90894 7.552 8.20728 7.552 6.10815C7.552 4.00903 9.25366 2.30737 11.3528 2.30737ZM11.3528 0.776123C10.6336 0.776123 9.9352 0.917299 9.27685 1.19577C8.64173 1.46439 8.07167 1.84865 7.58246 2.33783C7.09328 2.82701 6.70902 3.3971 6.4404 4.03222C6.16193 4.69055 6.02075 5.38899 6.02075 6.10815C6.02075 6.82732 6.16193 7.52574 6.4404 8.18409C6.70902 8.8192 7.09328 9.38927 7.58246 9.87847C8.07164 10.3677 8.64173 10.7519 9.27685 11.0205C9.9352 11.299 10.6336 11.4402 11.3528 11.4402C12.0719 11.4402 12.7704 11.299 13.4287 11.0205C14.0638 10.7519 14.6339 10.3677 15.1231 9.87847C15.6123 9.38929 15.9965 8.8192 16.2652 8.18409C16.5436 7.52574 16.6848 6.82729 16.6848 6.10815C16.6848 5.38901 16.5436 4.69057 16.2652 4.03222C15.9965 3.3971 15.6123 2.82704 15.1231 2.33783C14.6339 1.84865 14.0638 1.46439 13.4287 1.19577C12.7704 0.917299 12.0719 0.776123 11.3528 0.776123Z" fill="#B6B6BA"/>
</svg>
