<svg width="31" height="24" viewBox="0 0 31 24" fill="none" xmlns="http://www.w3.org/2000/svg">
<path d="M0.94458 23.6443H6.50013L3.72239 18.0887L0.94458 23.6443ZM8.72235 20.311H30.9446V23.6443H8.72235V20.311Z" fill="#2194F4"/>
<path d="M29.6113 4.53323C29.6113 2.42213 27.8335 0.64432 25.7223 0.64432C23.6112 0.64432 21.8335 2.42213 21.8335 4.53323H24.0557C24.0557 3.64432 24.8334 2.86655 25.7223 2.86655C26.6113 2.86655 27.389 3.64432 27.389 4.53323C27.389 5.19991 27.0557 5.75545 26.5001 5.97768C26.1668 6.19991 25.8335 6.53323 25.8335 6.97768C25.8335 7.42213 26.0557 7.75541 26.5001 7.97768C27.0557 8.311 27.389 8.86655 27.389 9.42213C27.389 10.311 26.6113 11.0888 25.7223 11.0888C24.8334 11.0888 24.0557 10.311 24.0557 9.42213H21.8334C21.8334 11.5332 23.6113 13.311 25.7223 13.311C27.8334 13.311 29.6113 11.5332 29.6113 9.42213C29.6113 8.53323 29.2779 7.64432 28.7223 6.97768C29.2779 6.311 29.6113 5.42213 29.6113 4.53323ZM5.38902 0.64432C5.0557 0.533226 4.61125 0.533226 4.27793 0.866585L0.0556641 4.19991L1.38902 5.86655L3.72234 3.97768V13.311H5.94461V1.75549C6.0557 1.31104 5.83348 0.866585 5.38902 0.644359V0.64432ZM18.5001 4.53323C18.5001 3.53323 18.0557 2.53323 17.389 1.75545C16.6113 0.977679 15.7223 0.64432 14.6113 0.64432C13.6113 0.64432 12.6113 1.08877 11.8335 1.75545C11.0557 2.42213 10.7223 3.42213 10.7223 4.53323H12.9446C12.9446 4.08877 13.1668 3.64432 13.389 3.311C14.0557 2.64432 15.0557 2.64432 15.7223 3.311C16.0557 3.64432 16.1668 4.08877 16.1668 4.53323C16.1668 4.97768 15.9446 5.42213 15.6113 5.75545L10.9446 11.5332C10.7223 11.8665 10.6113 12.311 10.8335 12.7555C11.0557 13.1999 11.389 13.4221 11.8335 13.4221H18.5001V11.1999H14.1668L17.389 7.311C18.0557 6.53323 18.5001 5.53323 18.5001 4.53323Z" fill="#2194F4"/>
</svg>
