<svg width="16" height="16" viewBox="0 0 16 16" fill="none" xmlns="http://www.w3.org/2000/svg">
<path d="M14.417 10.8586L14.4169 10.8586L14.4152 10.8588V2.23103C14.4152 1.5997 13.9016 1.08606 13.2702 1.08606H2.75169C2.12036 1.08606 1.60672 1.5997 1.60672 2.23103V13.7311C1.60672 14.3624 2.12036 14.876 2.75169 14.876H10.5444L10.5442 14.8776L14.417 10.8586ZM10.511 13.471L10.5024 11.4898C10.5193 11.0773 10.7555 10.8114 11.1062 10.8114C11.119 10.8114 11.1321 10.8118 11.1451 10.8125L13.083 10.824L10.511 13.471ZM2.75169 13.8946C2.66149 13.8946 2.58812 13.8212 2.58812 13.7311V2.23103C2.58812 2.14083 2.66149 2.06746 2.75169 2.06746H13.2702C13.3604 2.06746 13.4338 2.14083 13.4338 2.23103V9.86356L11.1893 9.8321C11.1616 9.83072 11.1337 9.83002 11.1062 9.83002C10.2185 9.83002 9.55185 10.5189 9.52111 11.4681L9.52076 11.479L9.55074 13.8946H2.75169V13.8946ZM4.87783 5.22983L10.8886 5.21347C11.0512 5.21347 11.3302 4.99378 11.3302 4.72276C11.3302 4.45175 11.0512 4.23205 10.8886 4.23205L4.87783 4.24841C4.71524 4.24841 4.43621 4.45175 4.43621 4.72276C4.43621 4.99378 4.71524 5.22983 4.87783 5.22983ZM4.87783 7.78134L10.8886 7.76499C11.0512 7.76499 11.3302 7.5453 11.3302 7.27428C11.3302 7.00328 11.0512 6.78357 10.8886 6.78357L4.87783 6.79993C4.71524 6.79993 4.43621 7.00326 4.43621 7.27428C4.43621 7.5453 4.71524 7.78134 4.87783 7.78134ZM8.23894 9.4823H4.85329C4.62295 9.4823 4.43621 9.70199 4.43621 9.97301C4.43621 10.244 4.62295 10.4637 4.85329 10.4637H8.23894C8.46928 10.4637 8.65602 10.244 8.65602 9.97301C8.65602 9.70199 8.4693 9.4823 8.23894 9.4823Z" fill="#AEB2BC"/>
</svg>
