<svg width="16" height="14" viewBox="0 0 16 14" fill="none" xmlns="http://www.w3.org/2000/svg">
<path d="M8.9629 7.4453C9.9043 6.71483 10.4961 5.55468 10.4414 4.2578C10.3594 2.28124 8.74805 0.673818 6.76954 0.595693C4.58595 0.509756 2.78907 2.25585 2.78907 4.41991C2.78907 5.65038 3.36915 6.74218 4.27149 7.44335C2.10157 8.29882 0.509773 10.3027 0.250008 12.707C0.208992 13.0781 0.498055 13.4043 0.871102 13.4043C1.19141 13.4043 1.45704 13.1621 1.4922 12.8418C1.77149 10.2637 3.9629 8.24999 6.61524 8.24999C9.26759 8.24999 11.4609 10.2637 11.7402 12.8437C11.7754 13.1621 12.041 13.4062 12.3613 13.4062C12.7344 13.4062 13.0234 13.0801 12.9824 12.709C12.7246 10.3047 11.1328 8.30077 8.9629 7.4453ZM4.03712 4.42187C4.03712 2.99999 5.19337 1.84374 6.61524 1.84374C8.03712 1.84374 9.19337 2.99999 9.19337 4.42187C9.19337 5.84374 8.03712 6.99999 6.61524 6.99999C5.19532 6.99999 4.03712 5.84374 4.03712 4.42187Z" fill="#AEB2BC"/>
<path d="M12.4141 7.21486C13.168 6.584 13.6465 5.63673 13.6465 4.57814C13.6465 3.08009 12.6895 1.80666 11.3535 1.33595C10.9473 1.19338 10.5215 1.49611 10.5215 1.92775C10.5215 2.19142 10.6855 2.42775 10.9336 2.51564C11.7852 2.81447 12.3965 3.62697 12.3965 4.58009C12.3965 5.50392 11.8223 6.29494 11.0098 6.61525C10.7109 6.73244 10.5215 7.02541 10.5215 7.34767C10.5215 7.72072 10.7813 8.04103 11.1445 8.12111C12.9316 8.51174 14.3144 9.99806 14.5488 11.8399C14.5898 12.1543 14.8516 12.3945 15.1699 12.3945C15.5488 12.3945 15.8379 12.0606 15.7891 11.6836C15.5371 9.66603 14.2168 7.98439 12.4141 7.21486Z" fill="#AEB2BC"/>
</svg>
