<svg width="28" height="23" viewBox="0 0 28 23" fill="none" xmlns="http://www.w3.org/2000/svg">
<path d="M6.01999 19.19C5.08012 19.1913 4.17651 18.8274 3.49999 18.175C3.16393 17.8613 2.89579 17.4821 2.71218 17.0606C2.52856 16.6392 2.43337 16.1846 2.43249 15.725C2.439 15.2636 2.53666 14.8081 2.71987 14.3846C2.90307 13.9611 3.16819 13.5781 3.49999 13.2575C4.19025 12.6044 5.10476 12.2411 6.05499 12.2425H7.80499C8.03705 12.2425 8.25961 12.1503 8.42371 11.9862C8.5878 11.8221 8.67999 11.5995 8.67999 11.3675C8.67999 11.1354 8.5878 10.9128 8.42371 10.7487C8.25961 10.5846 8.03705 10.4925 7.80499 10.4925H6.05499C5.34952 10.4666 4.64608 10.5832 3.98673 10.8354C3.32739 11.0877 2.72568 11.4703 2.2176 11.9604C1.70952 12.4505 1.3055 13.038 1.02971 13.6879C0.753917 14.3377 0.612014 15.0365 0.612489 15.7425C0.64009 17.1597 1.22848 18.5082 2.24869 19.4923C3.2689 20.4764 4.63768 21.0159 6.05499 20.9925V22.7425L8.74999 20.065L6.01999 17.4575V19.19ZM16.0125 17.4575H12.3725C11.6763 17.4575 11.0086 17.734 10.5163 18.2263C10.0241 18.7186 9.74749 19.3863 9.74749 20.0825C9.74749 20.7786 10.0241 21.4463 10.5163 21.9386C11.0086 22.4309 11.6763 22.7075 12.3725 22.7075H16.0125C16.7087 22.7075 17.3764 22.4309 17.8686 21.9386C18.3609 21.4463 18.6375 20.7786 18.6375 20.0825C18.6375 19.3863 18.3609 18.7186 17.8686 18.2263C17.3764 17.734 16.7087 17.4575 16.0125 17.4575ZM16.0125 20.9575H12.3725C12.1404 20.9575 11.9179 20.8653 11.7538 20.7012C11.5897 20.5371 11.4975 20.3145 11.4975 20.0825C11.4975 19.8504 11.5897 19.6278 11.7538 19.4637C11.9179 19.2996 12.1404 19.2075 12.3725 19.2075H16.0125C16.2446 19.2075 16.4671 19.2996 16.6312 19.4637C16.7953 19.6278 16.8875 19.8504 16.8875 20.0825C16.8875 20.3145 16.7953 20.5371 16.6312 20.7012C16.4671 20.8653 16.2446 20.9575 16.0125 20.9575ZM16.0125 0.0974521H12.3725C12.0232 0.0904893 11.6759 0.152418 11.3505 0.279702C11.0251 0.406985 10.728 0.597128 10.4761 0.83927C10.2242 1.08141 10.0224 1.37081 9.88242 1.69093C9.7424 2.01105 9.66682 2.35562 9.65999 2.70495C9.66682 3.05429 9.7424 3.39886 9.88242 3.71898C10.0224 4.0391 10.2242 4.32849 10.4761 4.57063C10.728 4.81278 11.0251 5.00292 11.3505 5.1302C11.6759 5.25749 12.0232 5.31942 12.3725 5.31245H16.0125C16.3618 5.31942 16.7091 5.25749 17.0345 5.1302C17.3599 5.00292 17.657 4.81278 17.9089 4.57063C18.1608 4.32849 18.3625 4.0391 18.5026 3.71898C18.6426 3.39886 18.7182 3.05429 18.725 2.70495C18.7182 2.35562 18.6426 2.01105 18.5026 1.69093C18.3625 1.37081 18.1608 1.08141 17.9089 0.83927C17.657 0.597128 17.3599 0.406985 17.0345 0.279702C16.7091 0.152418 16.3618 0.0904893 16.0125 0.0974521ZM16.0125 3.59745H12.3725C12.1387 3.60221 11.9124 3.51505 11.7422 3.35469C11.5721 3.19433 11.4716 2.9736 11.4625 2.73995C11.4648 2.62274 11.4901 2.50713 11.5371 2.39971C11.584 2.2923 11.6517 2.19519 11.7362 2.11393C11.8207 2.03268 11.9204 1.96887 12.0296 1.92615C12.1388 1.88343 12.2553 1.86263 12.3725 1.86495H16.0125C16.2446 1.86495 16.4671 1.95714 16.6312 2.12123C16.7953 2.28533 16.8875 2.50789 16.8875 2.73995C16.8875 2.97202 16.7953 3.19458 16.6312 3.35867C16.4671 3.52276 16.2446 3.61495 16.0125 3.61495V3.59745ZM16.0125 8.77745H12.3725C12.0278 8.77745 11.6864 8.84535 11.3679 8.97727C11.0495 9.10919 10.7601 9.30254 10.5163 9.5463C10.2726 9.79005 10.0792 10.0794 9.9473 10.3979C9.81539 10.7164 9.74749 11.0577 9.74749 11.4025C9.74749 11.7472 9.81539 12.0885 9.9473 12.407C10.0792 12.7255 10.2726 13.0149 10.5163 13.2586C10.7601 13.5024 11.0495 13.6957 11.3679 13.8276C11.6864 13.9596 12.0278 14.0275 12.3725 14.0275H16.0125C16.3572 14.0275 16.6986 13.9596 17.017 13.8276C17.3355 13.6957 17.6249 13.5024 17.8686 13.2586C18.1124 13.0149 18.3058 12.7255 18.4377 12.407C18.5696 12.0885 18.6375 11.7472 18.6375 11.4025C18.6375 11.0577 18.5696 10.7164 18.4377 10.3979C18.3058 10.0794 18.1124 9.79005 17.8686 9.5463C17.6249 9.30254 17.3355 9.10919 17.017 8.97727C16.6986 8.84535 16.3572 8.77745 16.0125 8.77745ZM16.0125 12.2775H12.3725C12.1387 12.2822 11.9124 12.195 11.7422 12.0347C11.5721 11.8743 11.4716 11.6536 11.4625 11.42C11.4715 11.1847 11.5714 10.9622 11.7411 10.799C11.9108 10.6358 12.1371 10.5448 12.3725 10.545H16.0125C16.2462 10.5449 16.4706 10.6365 16.6375 10.8001C16.8044 10.9638 16.9004 11.1863 16.905 11.42C16.8915 11.6459 16.7909 11.8577 16.6245 12.0111C16.4581 12.1645 16.2387 12.2474 16.0125 12.2425V12.2775ZM22.365 1.82995H20.51C20.2779 1.82995 20.0554 1.92214 19.8913 2.08623C19.7272 2.25033 19.635 2.47289 19.635 2.70495C19.635 2.93702 19.7272 3.15958 19.8913 3.32367C20.0554 3.48776 20.2779 3.57995 20.51 3.57995H22.365C23.3152 3.5786 24.2297 3.9419 24.92 4.59495C25.2576 4.90937 25.5268 5.28995 25.7109 5.71296C25.895 6.13598 25.99 6.59237 25.99 7.0537C25.99 7.51504 25.895 7.97143 25.7109 8.39444C25.5268 8.81746 25.2576 9.19803 24.92 9.51245C24.2348 10.1734 23.3169 10.538 22.365 10.5275V8.77745L19.635 11.385L22.365 13.9925V12.2425C23.0705 12.2683 23.7739 12.1517 24.4332 11.8995C25.0926 11.6472 25.6943 11.2646 26.2024 10.7745C26.7105 10.2844 27.1145 9.69686 27.3903 9.04702C27.6661 8.39718 27.808 7.69839 27.8075 6.99245C27.7963 6.29391 27.6458 5.60462 27.3649 4.96497C27.0839 4.32533 26.6781 3.7482 26.1712 3.2674C25.6643 2.7866 25.0666 2.4118 24.413 2.16498C23.7594 1.91815 23.0632 1.80425 22.365 1.82995Z" fill="#B6B6BA"/>
</svg>
