<svg width="44" height="44" viewBox="0 0 44 44" fill="none" xmlns="http://www.w3.org/2000/svg">
<rect width="44" height="44" rx="8" fill="#F43C5D"/>
<g filter="url(#filter0_d)">
<path d="M15.0391 16.0205C15.874 16.0205 16.5508 15.1592 16.5508 14.0928V11.9277C16.5508 10.8643 15.874 10 15.0391 10C14.2041 10 13.5273 10.8613 13.5273 11.9277V14.0928C13.5273 15.1562 14.2041 16.0205 15.0391 16.0205ZM27.9736 16.0205C28.8086 16.0205 29.4853 15.1592 29.4853 14.0928V11.9277C29.4853 10.8643 28.75 10 27.915 10C27.0801 10 26.459 10.8613 26.459 11.9277V14.0928C26.4619 15.1562 27.1387 16.0205 27.9736 16.0205ZM32.998 14.0723C32.998 12.1855 31.3545 12.3057 31.3545 12.3057H30.5195C30.5195 12.3057 30.5225 14.0723 30.5195 15.3848C30.5166 16.7002 29.2803 16.7119 29.2803 16.7119C29.2803 16.7119 28.0732 16.709 26.7168 16.7119C25.3633 16.7148 25.4248 15.3994 25.4248 15.3994V12.3057H17.6611V15.3701C17.6611 16.7441 16.375 16.7148 16.375 16.7148C16.375 16.7148 15.0889 16.7178 13.832 16.7148C12.5752 16.7119 12.5547 15.3701 12.5547 15.3701V12.3057H11.708C10.0967 12.3057 10 14.0664 10 14.0664C10 14.0664 10 16.4131 10.0029 19.3691H33.0039L32.998 14.0723ZM29.4853 22.876C30.792 22.876 32.0049 23.2979 33.0068 24.0156L33.0039 20.6787H10V31.082C10 32.8311 11.7109 32.8486 11.7109 32.8486H24.3057C23.6582 31.832 23.2773 30.6162 23.2773 29.3125C23.2773 25.7646 26.0635 22.876 29.4853 22.876ZM20.7285 29.3125H13.0234V27.7041H20.7285V29.3125ZM20.7285 25.29H13.0234V23.6816H20.7285V25.29ZM29.4853 24.3057C26.8223 24.3057 24.6572 26.5527 24.6572 29.3125C24.6572 32.0723 26.8223 34.3193 29.4853 34.3193C32.1484 34.3193 34.3135 32.0723 34.3135 29.3125C34.3135 26.5527 32.1484 24.3057 29.4853 24.3057ZM32.0928 29.9893H28.832V26.6084H30.1357V28.6357H32.0898V29.9893H32.0928Z" fill="white"/>
</g>
<defs>
<filter id="filter0_d" x="6" y="10" width="32.3135" height="32.3193" filterUnits="userSpaceOnUse" color-interpolation-filters="sRGB">
<feFlood flood-opacity="0" result="BackgroundImageFix"/>
<feColorMatrix in="SourceAlpha" type="matrix" values="0 0 0 0 0 0 0 0 0 0 0 0 0 0 0 0 0 0 127 0"/>
<feOffset dy="4"/>
<feGaussianBlur stdDeviation="2"/>
<feColorMatrix type="matrix" values="0 0 0 0 0.891667 0 0 0 0 0.167188 0 0 0 0 0.297121 0 0 0 1 0"/>
<feBlend mode="normal" in2="BackgroundImageFix" result="effect1_dropShadow"/>
<feBlend mode="normal" in="SourceGraphic" in2="effect1_dropShadow" result="shape"/>
</filter>
</defs>
</svg>
