<svg width="44" height="44" viewBox="0 0 44 44" fill="none" xmlns="http://www.w3.org/2000/svg">
<rect width="44" height="44" rx="8" fill="#00C57E"/>
<path d="M32.9408 14.0375H27.8678V12.283C27.8678 11.5568 27.2787 10.9678 26.55 10.9678H17.5312C16.8025 10.9678 16.2135 11.5568 16.2135 12.283V14.0375H11.0592C9.92168 14.0375 9 14.9566 9 16.0916V22.5307H35V16.0916C35 14.9566 34.0783 14.0375 32.9408 14.0375ZM25.1383 14.0375H18.8617V13.4535C18.8617 13.0752 19.1689 12.768 19.5498 12.768H24.4502C24.8311 12.768 25.1383 13.0752 25.1383 13.4535V14.0375ZM20.1795 25.5674H23.8484C24.1887 25.5674 24.4654 25.2906 24.4654 24.9504V23.5184H19.5625V24.9504C19.5625 25.2932 19.8393 25.5674 20.1795 25.5674Z" fill="white"/>
<path d="M25.1916 25.6892C25.1916 26.1539 24.8158 26.5322 24.3486 26.5322H19.6818C19.2172 26.5322 18.8389 26.1564 18.8389 25.6892V23.5183H9V31.232C9 32.1714 9.76172 32.9332 10.7012 32.9332H33.2988C34.2383 32.9332 35 32.1714 35 31.232V23.5183H25.1916V25.6892Z" fill="white"/>
</svg>
