<svg width="44" height="44" viewBox="0 0 44 44" fill="none" xmlns="http://www.w3.org/2000/svg">
<rect width="44" height="44" rx="10" fill="#FDA136"/>
<g filter="url(#filter0_d)">
<path d="M31.1667 23.0968C30.7875 23.0326 30.3973 23 30 23C26.1343 23 23 26.1342 23 30C23 32.4348 24.2431 34.5791 26.129 35.8333H12.5C11.8812 35.8333 11.2877 35.5875 10.8501 35.1499C10.4125 34.7123 10.1667 34.1188 10.1667 33.5V12.5C10.1667 11.8811 10.4125 11.2876 10.8501 10.85C11.2877 10.4125 11.8812 10.1666 12.5 10.1666H28.8334C29.1398 10.1666 29.4432 10.227 29.7263 10.3442C30.0094 10.4615 30.2666 10.6334 30.4833 10.85C30.6999 11.0667 30.8718 11.3239 30.9891 11.607C31.1063 11.8901 31.1667 12.1935 31.1667 12.5V23.0968ZM20.6667 24.1666C22.0591 24.1666 23.3944 23.6135 24.379 22.6289C25.3636 21.6444 25.9167 20.309 25.9167 18.9166C25.9167 17.5242 25.3636 16.1889 24.379 15.2043C23.3944 14.2197 22.0591 13.6666 20.6667 13.6666C19.2743 13.6666 17.9389 14.2197 16.9544 15.2043C15.9698 16.1889 15.4167 17.5242 15.4167 18.9166C15.4167 20.309 15.9698 21.6444 16.9544 22.6289C17.9389 23.6135 19.2743 24.1666 20.6667 24.1666ZM13.375 25.9166C13.143 25.9166 12.9204 26.0088 12.7563 26.1729C12.5922 26.337 12.5 26.5596 12.5 26.7916C12.5 27.0237 12.5922 27.2462 12.7563 27.4103C12.9204 27.5744 13.143 27.6666 13.375 27.6666H20.9584C21.1904 27.6666 21.413 27.5744 21.5771 27.4103C21.7412 27.2462 21.8334 27.0237 21.8334 26.7916C21.8334 26.5596 21.7412 26.337 21.5771 26.1729C21.413 26.0088 21.1904 25.9166 20.9584 25.9166H13.375ZM13.375 30C13.143 30 12.9204 30.0921 12.7563 30.2562C12.5922 30.4203 12.5 30.6429 12.5 30.875C12.5 31.107 12.5922 31.3296 12.7563 31.4937C12.9204 31.6578 13.143 31.75 13.375 31.75H18.625C18.8571 31.75 19.0796 31.6578 19.2437 31.4937C19.4078 31.3296 19.5 31.107 19.5 30.875C19.5 30.6429 19.4078 30.4203 19.2437 30.2562C19.0796 30.0921 18.8571 30 18.625 30H13.375ZM18.6886 19.9025L17.2799 18.4535C17.2285 18.4012 17.1927 18.3358 17.1765 18.2644C17.1602 18.193 17.1641 18.1185 17.1877 18.0492C17.2344 17.9075 17.3569 17.8042 17.505 17.7826L19.4405 17.491L20.3114 15.6441C20.3439 15.5758 20.3951 15.5182 20.4591 15.4778C20.523 15.4375 20.5972 15.4162 20.6728 15.4164C20.7484 15.4166 20.8224 15.4382 20.8862 15.4789C20.95 15.5195 21.0009 15.5774 21.033 15.6459L21.8975 17.498L23.8295 17.7955C23.902 17.8064 23.9701 17.8373 24.026 17.8846C24.0819 17.932 24.1236 17.9941 24.1463 18.0638C24.1694 18.133 24.1729 18.2072 24.1564 18.2782C24.14 18.3493 24.1041 18.4144 24.0529 18.4663L22.6413 19.9106L22.9598 21.8928C22.9796 21.9526 22.985 22.0163 22.9754 22.0786C22.9659 22.1408 22.9417 22.2 22.9049 22.2511C22.868 22.3022 22.8196 22.3439 22.7635 22.3727C22.7075 22.4014 22.6454 22.4165 22.5824 22.4166H22.5771C22.5129 22.4159 22.4496 22.4005 22.3922 22.3717L20.6632 21.4104L18.9365 22.3606C18.8711 22.3969 18.7967 22.4139 18.722 22.4098C18.6473 22.4057 18.5753 22.3806 18.5142 22.3374C18.4531 22.2942 18.4054 22.2347 18.3766 22.1657C18.3478 22.0966 18.3391 22.0208 18.3514 21.947L18.6886 19.903V19.9025ZM30 35.8333C26.7783 35.8333 24.1667 33.2217 24.1667 30C24.1667 26.7782 26.7783 24.1666 30 24.1666C33.2218 24.1666 35.8334 26.7782 35.8334 30C35.8334 33.2217 33.2218 35.8333 30 35.8333ZM30.7776 30.3686V29.6435C31.3539 29.3723 31.75 28.8088 31.75 28.1578C31.75 27.242 30.9666 26.5 30 26.5C29.0334 26.5 28.25 27.242 28.25 28.1578C28.25 28.8088 28.6461 29.3723 29.2224 29.6435V30.3686H28.25C27.9406 30.3686 27.6439 30.4915 27.4251 30.7103C27.2063 30.9291 27.0834 31.2259 27.0834 31.5353V32.5795H32.9167V31.5353C32.9167 31.2259 32.7938 30.9291 32.575 30.7103C32.3562 30.4915 32.0594 30.3686 31.75 30.3686H30.7776ZM27.2776 32.947V33.5H32.7224V32.9475H27.2776V32.947Z" fill="white"/>
</g>
<defs>
<filter id="filter0_d" x="6.16669" y="8.16663" width="33.6667" height="33.6667" filterUnits="userSpaceOnUse" color-interpolation-filters="sRGB">
<feFlood flood-opacity="0" result="BackgroundImageFix"/>
<feColorMatrix in="SourceAlpha" type="matrix" values="0 0 0 0 0 0 0 0 0 0 0 0 0 0 0 0 0 0 127 0"/>
<feOffset dy="2"/>
<feGaussianBlur stdDeviation="2"/>
<feColorMatrix type="matrix" values="0 0 0 0 0.945833 0 0 0 0 0.510385 0 0 0 0 0.00394094 0 0 0 1 0"/>
<feBlend mode="normal" in2="BackgroundImageFix" result="effect1_dropShadow"/>
<feBlend mode="normal" in="SourceGraphic" in2="effect1_dropShadow" result="shape"/>
</filter>
</defs>
</svg>
