<svg width="44" height="44" viewBox="0 0 44 44" fill="none" xmlns="http://www.w3.org/2000/svg">
<rect width="44" height="44" rx="8" fill="#8F66E6"/>
<path d="M31.997 17.6203C31.994 17.5489 31.9849 17.4775 31.9548 17.4123C31.9247 17.3347 31.8765 17.2695 31.8193 17.2137L24.2277 10.1862C24.2247 10.1831 24.2217 10.1831 24.2187 10.18C24.1163 10.0683 23.9717 10 23.812 10C23.803 10 23.7939 10.0062 23.7849 10.0062H13.1086C12.4971 10.0062 12 10.5184 12 11.1485V32.8577C12 33.4878 12.4971 34 13.1086 34H30.8914C31.5029 34 32 33.4878 32 32.8577V17.6389V17.6327L31.997 17.6203ZM26.5956 23.403H23.0017V27.1061C23.0017 27.6741 22.5528 28.1366 22.0015 28.1366C21.4502 28.1366 21.0014 27.6741 21.0014 27.1061V23.403H17.4074C16.8562 23.403 16.4073 22.9405 16.4073 22.3725C16.4073 21.8044 16.8562 21.342 17.4074 21.342H21.0014V17.6389C21.0014 17.0709 21.4502 16.6084 22.0015 16.6084C22.5528 16.6084 23.0017 17.0709 23.0017 17.6389V21.342H26.5956C27.1469 21.342 27.5957 21.8044 27.5957 22.3725C27.5957 22.9405 27.1469 23.403 26.5956 23.403Z" fill="white"/>
</svg>
