<svg width="44" height="44" viewBox="0 0 44 44" fill="none" xmlns="http://www.w3.org/2000/svg">
<rect width="44" height="44" rx="10" fill="#0583F8"/>
<path d="M8.66663 31.7778C8.66663 31.7778 12.3111 12.2222 17.0222 12.2222C20.9333 12.2222 20.7555 19.3333 23.6888 19.3333C26.6222 19.3333 26.0888 15.6888 29.2 15.6888C34.0888 15.6888 35.3333 31.6888 35.3333 31.6888H8.66663V31.7778Z" fill="white" fill-opacity="0.6"/>
<path d="M8.66663 31.7778C8.66663 31.7778 12.3111 22.0889 17.0222 22.0889C20.9333 22.0889 20.7555 25.6444 23.6888 25.6444C26.6222 25.6444 26.0888 23.8666 29.2 23.8666C34.0888 23.8666 35.3333 31.8666 35.3333 31.8666H8.66663V31.7778Z" fill="white"/>
</svg>
