<svg width="44" height="44" viewBox="0 0 44 44" fill="none" xmlns="http://www.w3.org/2000/svg">
<rect width="44" height="44" rx="8" fill="#0583F8"/>
<g filter="url(#filter0_d)">
<path opacity="0.5" d="M25.75 29.0055C25.75 30.3993 26.3037 31.7361 27.2893 32.7216C28.2749 33.7072 29.6116 34.2609 31.0055 34.2609C32.3993 34.2609 33.7361 33.7072 34.7216 32.7216C35.7072 31.7361 36.2609 30.3993 36.2609 29.0055C36.2609 27.6116 35.7072 26.2749 34.7216 25.2893C33.7361 24.3037 32.3993 23.75 31.0055 23.75C29.6116 23.75 28.2749 24.3037 27.2893 25.2893C26.3037 26.2749 25.75 27.6116 25.75 29.0055Z" fill="white"/>
<path fill-rule="evenodd" clip-rule="evenodd" d="M15.7573 23.1935C14.2805 21.7166 13.4508 19.7136 13.4508 17.625C13.4508 15.5364 14.2805 13.5334 15.7573 12.0565C17.2342 10.5797 19.2372 9.75 21.3258 9.75C23.4144 9.75 25.4174 10.5797 26.8942 12.0565C28.3711 13.5334 29.2008 15.5364 29.2008 17.625C29.2008 19.7136 28.3711 21.7166 26.8942 23.1935C25.4174 24.6703 23.4144 25.5 21.3258 25.5C19.2372 25.5 17.2342 24.6703 15.7573 23.1935ZM32.2441 27.3484C32.5859 27.0066 33.1383 27.0066 33.4801 27.3484C33.8219 27.6902 33.8219 28.2426 33.4801 28.5844L31.402 30.6625C31.0602 31.0043 30.5078 31.0043 30.166 30.6625L28.8809 29.3773C28.5391 29.0355 28.5391 28.4832 28.8809 28.1414C29.2227 27.7996 29.775 27.7996 30.1168 28.1414L30.784 28.8086L32.2441 27.3484ZM27.0816 25.5109C26.2531 26.4406 25.75 27.6629 25.75 29.0055C25.75 31.4992 27.4891 33.5883 29.8242 34.127C29.6246 34.2008 29.4113 34.2391 29.1898 34.2391H13.5684C12.5539 34.2391 11.7309 33.416 11.7309 32.4016V29.7684C11.7309 27.477 13.5356 25.6094 15.8023 25.5055C17.3637 26.602 19.2695 27.2473 21.3258 27.2473C23.382 27.2473 25.2906 26.5992 26.8547 25.5C26.9313 25.5027 27.0051 25.5055 27.0816 25.5109Z" fill="white"/>
</g>
<defs>
<filter id="filter0_d" x="6.73087" y="5.75" width="34.5301" height="34.5109" filterUnits="userSpaceOnUse" color-interpolation-filters="sRGB">
<feFlood flood-opacity="0" result="BackgroundImageFix"/>
<feColorMatrix in="SourceAlpha" type="matrix" values="0 0 0 0 0 0 0 0 0 0 0 0 0 0 0 0 0 0 127 0"/>
<feOffset dy="1"/>
<feGaussianBlur stdDeviation="2.5"/>
<feColorMatrix type="matrix" values="0 0 0 0 0.112865 0 0 0 0 0.479959 0 0 0 0 0.820833 0 0 0 1 0"/>
<feBlend mode="normal" in2="BackgroundImageFix" result="effect1_dropShadow"/>
<feBlend mode="normal" in="SourceGraphic" in2="effect1_dropShadow" result="shape"/>
</filter>
</defs>
</svg>
