<svg width="44" height="44" viewBox="0 0 44 44" fill="none" xmlns="http://www.w3.org/2000/svg">
<rect width="44" height="44" rx="10" fill="#00C57E"/>
<g filter="url(#filter0_d)">
<rect x="12" y="14" width="20" height="18" fill="#60DCAF"/>
<path d="M32.4348 9H11.5652C10.7043 9 10 9.702 10 10.56V33.44C10 34.298 10.7043 35 11.5652 35H32.4348C33.2957 35 34 34.298 34 33.44V10.56C34 9.702 33.2957 9 32.4348 9ZM20.2913 24.613L16.2348 28.656C15.8304 29.059 15.1652 29.059 14.7609 28.656L12.9217 26.823C12.5174 26.42 12.5174 25.757 12.9217 25.354C13.3261 24.951 13.9913 24.951 14.3957 25.354L15.5043 26.459L18.8304 23.144C19.2348 22.741 19.9 22.741 20.3043 23.144C20.6957 23.547 20.6957 24.21 20.2913 24.613ZM20.2913 16.813L16.2348 20.856C15.8304 21.259 15.1652 21.259 14.7609 20.856L12.9087 19.023C12.5043 18.62 12.5043 17.957 12.9087 17.554C13.313 17.151 13.9783 17.151 14.3826 17.554L15.4913 18.659L18.8174 15.344C19.2217 14.941 19.887 14.941 20.2913 15.344C20.6957 15.747 20.6957 16.41 20.2913 16.813ZM30.3478 27.668H24.087C23.513 27.668 23.0435 27.2 23.0435 26.628C23.0435 26.056 23.513 25.588 24.087 25.588H30.3478C30.9217 25.588 31.3913 26.056 31.3913 26.628C31.3913 27.2 30.9217 27.668 30.3478 27.668ZM30.3478 19.868H24.087C23.513 19.868 23.0435 19.4 23.0435 18.828C23.0435 18.256 23.513 17.788 24.087 17.788H30.3478C30.9217 17.788 31.3913 18.256 31.3913 18.828C31.3913 19.4 30.9217 19.868 30.3478 19.868Z" fill="white"/>
</g>
<defs>
<filter id="filter0_d" x="5" y="5" width="34" height="36" filterUnits="userSpaceOnUse" color-interpolation-filters="sRGB">
<feFlood flood-opacity="0" result="BackgroundImageFix"/>
<feColorMatrix in="SourceAlpha" type="matrix" values="0 0 0 0 0 0 0 0 0 0 0 0 0 0 0 0 0 0 127 0"/>
<feOffset dy="1"/>
<feGaussianBlur stdDeviation="2.5"/>
<feColorMatrix type="matrix" values="0 0 0 0 0 0 0 0 0 0.691667 0 0 0 0 0.442386 0 0 0 1 0"/>
<feBlend mode="normal" in2="BackgroundImageFix" result="effect1_dropShadow"/>
<feBlend mode="normal" in="SourceGraphic" in2="effect1_dropShadow" result="shape"/>
</filter>
</defs>
</svg>
