<svg width="14" height="17" viewBox="0 0 14 17" fill="none" xmlns="http://www.w3.org/2000/svg">
<path d="M10.5186 9.79245C11.1756 9.79245 11.8326 10.0142 12.345 10.3838H12.4173V1.67193C12.4173 1.22845 12.1249 0.9328 11.6864 0.9328H0.730913C0.292365 0.9328 0 1.22845 0 1.67193V14.2206C0 14.6641 0.292365 14.9598 0.730913 14.9598H7.81666C7.45203 14.4424 7.23193 13.7788 7.23193 13.1136C7.23193 11.2691 8.69212 9.79245 10.5186 9.79245ZM2.39477 3.92215H9.98477C9.98805 3.92215 9.99133 3.92215 9.99462 3.92379C10.0045 3.92379 10.016 3.92215 10.0258 3.92215C10.2837 3.92215 10.4939 4.13075 10.4939 4.39027C10.4939 4.64814 10.2853 4.85838 10.0258 4.85838C10.016 4.85838 10.0045 4.85838 9.99462 4.85674C9.99133 4.85674 9.98805 4.85838 9.98477 4.85838H2.39477C2.13689 4.85838 1.92665 4.64978 1.92665 4.39027C1.92665 4.13075 2.13689 3.92215 2.39477 3.92215ZM2.39477 7.3714H9.98477C9.98805 7.3714 9.99133 7.37141 9.99462 7.37305C10.0045 7.37305 10.016 7.3714 10.0258 7.3714C10.2837 7.3714 10.4939 7.58 10.4939 7.83952C10.4939 8.09739 10.2853 8.30763 10.0258 8.30763C10.016 8.30763 10.0045 8.30763 9.99462 8.30599C9.99133 8.30599 9.98805 8.30763 9.98477 8.30763H2.39477C2.13689 8.30763 1.92665 8.09903 1.92665 7.83952C1.92665 7.58 2.13689 7.3714 2.39477 7.3714ZM5.72247 12.1248C5.71262 12.1248 5.70112 12.1248 5.69127 12.1232C5.68798 12.1232 5.6847 12.1248 5.68141 12.1248H2.288C2.03013 12.1248 1.81989 11.9162 1.81989 11.6567C1.81989 11.3988 2.02849 11.1886 2.288 11.1886H5.68141C5.6847 11.1886 5.68798 11.1886 5.69127 11.1902C5.70112 11.1902 5.71262 11.1886 5.72247 11.1886C5.98035 11.1886 6.19059 11.3972 6.19059 11.6567C6.19059 11.9162 5.98199 12.1248 5.72247 12.1248Z" fill="#00C59F"/>
<circle cx="10.7638" cy="13.303" r="2.75" fill="#00C59F"/>
<rect x="10.6012" y="14.644" width="0.604599" height="2.87863" rx="0.302299" transform="rotate(-139.135 10.6012 14.644)" fill="white"/>
<path d="M10.7683 13.9891C10.8946 14.0983 10.9084 14.2892 10.7991 14.4155C10.6899 14.5417 10.499 14.5555 10.3727 14.4463L9.37563 13.5837C9.24937 13.4744 9.23557 13.2835 9.3448 13.1573C9.45404 13.031 9.64494 13.0172 9.77121 13.1264L10.7683 13.9891Z" fill="white"/>
</svg>