    <svg width="14" height="15" viewBox="0 0 14 15" fill="none" xmlns="http://www.w3.org/2000/svg">
      <path d="M3.01793 5.00249H8.09416C8.34345 5.00249 8.54739 4.79853 8.54739 4.54926V4.45862C8.54739 4.20933 8.34343 4.00537 8.09416 4.00537H3.01793C2.76864 4.00537 2.5647 4.20933 2.5647 4.45862V4.54926C2.5647 4.79853 2.76866 5.00249 3.01793 5.00249Z" fill="#00CFA6"/>
      <path d="M2.5647 6.54778C2.5647 6.79706 2.76866 7.001 3.01793 7.001H8.09416C8.34345 7.001 8.54739 6.79705 8.54739 6.54778V6.45713C8.54739 6.20785 8.34343 6.00391 8.09416 6.00391H3.01793C2.76864 6.00391 2.5647 6.20786 2.5647 6.45713V6.54778Z" fill="#00CFA6"/>
      <path d="M10.5161 0.980469H1.51521C0.690484 0.980469 0.0195312 1.65142 0.0195312 2.47614V13.4604C0.0195312 14.2852 0.690484 14.9561 1.51521 14.9561H7.56945C7.25069 14.7781 6.95456 14.555 6.6893 14.2898C6.58379 14.1843 6.48518 14.0737 6.39316 13.959H1.51519C1.24029 13.959 1.01663 13.7353 1.01663 13.4604V2.47616C1.01663 2.20126 1.24029 1.9776 1.51519 1.9776H10.5161C10.791 1.9776 11.0147 2.20126 11.0147 2.47616V7.77382C11.3717 7.9192 11.7073 8.11702 12.0118 8.36329V2.47616C12.0118 1.65144 11.3408 0.980469 10.5161 0.980469Z" fill="#00CFA6"/>
      <path d="M13.0018 10.6347L9.82902 13.8075C9.63511 14.0014 9.31784 14.0014 9.12394 13.8075C8.93004 13.6136 8.93004 13.2963 9.12394 13.1024L12.2968 9.9296C12.4907 9.7357 12.8079 9.7357 13.0018 9.9296C13.1957 10.1235 13.1957 10.4408 13.0018 10.6347Z" fill="#00CFA6"/>
      <path d="M9.11122 13.807L7.70109 12.3969C7.50719 12.203 7.50719 11.8857 7.70109 11.6918C7.89499 11.4979 8.21226 11.4979 8.40616 11.6918L9.81629 13.1019C10.0102 13.2958 10.0102 13.6131 9.81629 13.807C9.62239 14.0009 9.30512 14.0009 9.11122 13.807Z" fill="#00CFA6"/>
    </svg>