    <svg width="16" height="16" viewBox="0 0 16 16" fill="none" xmlns="http://www.w3.org/2000/svg">
      <path d="M1.88696 13.9459V1.99455C1.88696 1.92811 1.94083 1.87402 2.00727 1.87402H12.0624C12.1288 1.87402 12.1829 1.92811 12.1829 1.99455V6.8163H13.0551V1.99455C13.0551 1.4473 12.6099 1.00183 12.0624 1.00183H2.00727C1.46002 1.00183 1.01477 1.4473 1.01477 1.99455V13.9459C1.01477 14.4931 1.46002 14.9386 2.00727 14.9386H7.63648V14.0664H2.00727C1.94083 14.0664 1.88696 14.0123 1.88696 13.9459Z" fill="#2B81FF"/>
      <path d="M4.49481 8.6373C4.25397 8.6373 4.05872 8.83235 4.05872 9.0734C4.05872 9.31444 4.25397 9.50949 4.49481 9.50949H6.23622C6.47705 9.50949 6.67231 9.31444 6.67231 9.0734C6.67231 8.83235 6.47705 8.6373 6.23622 8.6373H4.49481ZM9.94601 6.71406C9.94601 6.47302 9.75075 6.27797 9.50991 6.27797H4.49481C4.25397 6.27797 4.05872 6.47302 4.05872 6.71406C4.05872 6.95511 4.25397 7.15016 4.49481 7.15016H9.50991C9.75075 7.15016 9.94601 6.95511 9.94601 6.71406ZM9.50991 4.00464H4.49481C4.25397 4.00464 4.05872 4.19969 4.05872 4.44073C4.05872 4.68178 4.25397 4.87683 4.49481 4.87683H9.50991C9.75075 4.87683 9.94601 4.68178 9.94601 4.44073C9.94601 4.19969 9.75075 4.00464 9.50991 4.00464ZM12.8187 11.2305H11.9493V9.81996C11.9493 9.57891 11.7541 9.38386 11.5132 9.38386C11.2724 9.38386 11.0771 9.57891 11.0771 9.81996V11.6665C11.0771 11.9076 11.2724 12.1026 11.5132 12.1026H12.8188C13.0596 12.1026 13.2549 11.9076 13.2549 11.6665C13.2548 11.4255 13.0596 11.2305 12.8187 11.2305Z" fill="#2B81FF"/>
      <path d="M11.5416 8.04883C9.64698 8.04883 8.11102 9.58477 8.11102 11.4795C8.11102 13.3741 9.64696 14.9101 11.5416 14.9101C13.4363 14.9101 14.9723 13.3742 14.9723 11.4795C14.9723 9.58477 13.4363 8.04883 11.5416 8.04883ZM11.5416 14.0379C10.1309 14.0379 8.98321 12.8902 8.98321 11.4794C8.98321 10.0687 10.1309 8.921 11.5416 8.921C12.9524 8.921 14.1001 10.0687 14.1001 11.4794C14.1001 12.8902 12.9524 14.0379 11.5416 14.0379Z" fill="#2B81FF"/>
    </svg>