<svg width="16" height="15" viewBox="0 0 16 15" fill="none" xmlns="http://www.w3.org/2000/svg">
<path d="M14.8277 4.20529C14.7279 4.20539 14.6299 4.17895 14.5437 4.12867C14.4575 4.07838 14.3862 4.00608 14.3372 3.91916C13.6678 2.7277 12.6524 1.7676 11.4253 1.16591C11.2913 1.10022 11.1889 0.984005 11.1407 0.842825C11.0924 0.701646 11.1022 0.54707 11.1679 0.413102C11.2336 0.279135 11.3498 0.17675 11.491 0.128471C11.6321 0.0801919 11.7867 0.0899738 11.9207 0.155665C13.3517 0.857108 14.536 1.97664 15.3167 3.36604C15.365 3.45157 15.3901 3.54826 15.3895 3.6465C15.3888 3.74474 15.3624 3.84109 15.313 3.92597C15.2635 4.01086 15.1927 4.08131 15.1076 4.13031C15.0224 4.17932 14.9259 4.20517 14.8277 4.20529ZM1.17243 4.20529C1.07421 4.20519 0.97773 4.17938 0.892584 4.13043C0.807439 4.08147 0.736597 4.01107 0.687106 3.92623C0.637615 3.84139 0.6112 3.74508 0.610488 3.64686C0.609777 3.54865 0.634795 3.45196 0.683052 3.36641C1.46363 1.97693 2.64792 0.857366 4.07905 0.15604C4.14539 0.123513 4.21748 0.10437 4.29121 0.0997041C4.36494 0.0950382 4.43887 0.10494 4.50878 0.128846C4.57868 0.152751 4.64319 0.190191 4.69863 0.239028C4.75406 0.287865 4.79934 0.347143 4.83186 0.413477C4.86439 0.479811 4.88353 0.551902 4.8882 0.625634C4.89287 0.699366 4.88296 0.773295 4.85906 0.8432C4.83515 0.913105 4.79771 0.977618 4.74888 1.03305C4.70004 1.08849 4.64076 1.13376 4.57443 1.16629C3.34736 1.76795 2.33194 2.72806 1.66255 3.91954C1.61351 4.00633 1.54228 4.07852 1.45615 4.12873C1.37003 4.17894 1.27212 4.20536 1.17243 4.20529ZM8.00005 1.77679C4.38168 1.77679 1.43755 4.72091 1.43755 8.33929C1.43755 11.9577 4.38168 14.9018 8.00005 14.9018C11.6184 14.9018 14.5626 11.9577 14.5626 8.33929C14.5626 4.72091 11.6184 1.77679 8.00005 1.77679ZM10.3566 7.28291L8.08855 9.87492C7.99347 9.98448 7.8596 10.0529 7.7151 10.0658C7.5706 10.0786 7.42675 10.035 7.3138 9.94391L5.6938 8.64791C5.63368 8.60263 5.58326 8.54575 5.54552 8.48062C5.50779 8.4155 5.4835 8.34347 5.47411 8.26879C5.46472 8.19411 5.47041 8.11831 5.49085 8.04587C5.51128 7.97343 5.54605 7.90583 5.59309 7.84707C5.64012 7.78831 5.69847 7.73959 5.76468 7.70379C5.83089 7.668 5.90361 7.64585 5.97853 7.63867C6.05345 7.63148 6.12906 7.63941 6.20086 7.66198C6.27266 7.68454 6.33921 7.72129 6.39655 7.77004L7.59618 8.72966L9.5098 6.54304C9.55837 6.48732 9.61745 6.44173 9.68367 6.40888C9.74989 6.37604 9.82194 6.35659 9.89569 6.35164C9.96944 6.34669 10.0434 6.35635 10.1134 6.38005C10.1835 6.40376 10.2481 6.44105 10.3037 6.48979C10.5377 6.69379 10.5613 7.04929 10.3566 7.28291Z" fill="#2B81FF"/>
</svg>
