
<svg width="14" height="16" viewBox="0 0 14 16" fill="none" xmlns="http://www.w3.org/2000/svg">
<path d="M10.5186 9.49222C11.1756 9.49222 11.8326 9.71396 12.345 10.0835H12.4173V1.37169C12.4173 0.928219 12.1249 0.632568 11.6864 0.632568H0.730913C0.292365 0.632568 0 0.928219 0 1.37169V13.9204C0 14.3639 0.292365 14.6595 0.730913 14.6595H7.81666C7.45203 14.1421 7.23193 13.4786 7.23193 12.8134C7.23193 10.9688 8.69212 9.49222 10.5186 9.49222ZM2.39477 3.62192H9.98477C9.98805 3.62192 9.99133 3.62192 9.99462 3.62356C10.0045 3.62356 10.016 3.62192 10.0258 3.62192C10.2837 3.62192 10.4939 3.83052 10.4939 4.09003C10.4939 4.34791 10.2853 4.55815 10.0258 4.55815C10.016 4.55815 10.0045 4.55815 9.99462 4.5565C9.99133 4.5565 9.98805 4.55815 9.98477 4.55815H2.39477C2.13689 4.55815 1.92665 4.34955 1.92665 4.09003C1.92665 3.83052 2.13689 3.62192 2.39477 3.62192ZM2.39477 7.07117H9.98477C9.98805 7.07117 9.99133 7.07117 9.99462 7.07282C10.0045 7.07282 10.016 7.07117 10.0258 7.07117C10.2837 7.07117 10.4939 7.27977 10.4939 7.53929C10.4939 7.79716 10.2853 8.0074 10.0258 8.0074C10.016 8.0074 10.0045 8.0074 9.99462 8.00576C9.99133 8.00576 9.98805 8.0074 9.98477 8.0074H2.39477C2.13689 8.0074 1.92665 7.7988 1.92665 7.53929C1.92665 7.27977 2.13689 7.07117 2.39477 7.07117ZM5.72247 11.8246C5.71262 11.8246 5.70112 11.8246 5.69127 11.8229C5.68798 11.8229 5.6847 11.8246 5.68141 11.8246H2.288C2.03013 11.8246 1.81989 11.616 1.81989 11.3565C1.81989 11.0986 2.02849 10.8883 2.288 10.8883H5.68141C5.6847 10.8883 5.68798 10.8883 5.69127 10.89C5.70112 10.89 5.71262 10.8883 5.72247 10.8883C5.98035 10.8883 6.19059 11.0969 6.19059 11.3565C6.19059 11.616 5.98199 11.8246 5.72247 11.8246Z" fill="#FFA728"/>
<circle cx="10.7638" cy="13.0028" r="2.75" fill="#FFA728"/>
<rect x="8.93677" y="13.4216" width="0.785069" height="3.7379" rx="0.392535" transform="rotate(-90 8.93677 13.4216)" fill="white"/>
<rect x="11.1982" y="14.9775" width="0.785069" height="3.7379" rx="0.392535" transform="rotate(180 11.1982 14.9775)" fill="white"/>
</svg>