<svg width="18" height="18" viewBox="0 0 18 18" fill="none" xmlns="http://www.w3.org/2000/svg">
<g clip-path="url(#clip0)">
<path d="M-0.00625229 13.2C-0.00625229 14.1 0.353748 14.28 1.73375 14.28C2.09375 10.8 3.83376 9.11998 5.63376 8.27997C4.43375 6.65997 4.37376 4.31997 5.51375 2.57996C4.13375 2.15997 2.69375 3.11996 2.33375 4.61997C2.03376 5.93997 2.63375 7.37997 3.83376 7.91997C1.55375 8.51996 -0.00625229 10.68 -0.00625229 13.2ZM7.37375 8.57998C5.15375 9.05996 2.57376 10.62 2.57376 15.12C2.57376 16.32 4.07375 16.32 8.93375 16.32C13.8537 16.32 15.2937 16.32 15.2937 15.12C15.2937 10.68 12.7138 9.05996 10.4938 8.57998C12.2337 7.61996 12.8338 5.39997 11.9937 3.59997C11.1537 1.79997 9.05374 1.13996 7.43374 2.09997C5.81374 3.05999 5.15374 5.27996 6.05374 7.01997C6.35374 7.73997 6.83373 8.21997 7.37373 8.57998H7.37375ZM12.3538 8.27997C14.1538 9.11998 15.8938 10.86 16.2538 14.28C17.6337 14.28 17.9937 14.1 17.9937 13.2C18.1138 10.68 16.4938 8.45997 14.2137 7.91997C15.5338 7.25996 16.1338 5.63996 15.5338 4.19996C14.9938 2.93996 13.7338 2.27997 12.4738 2.63997C13.6138 4.31997 13.5538 6.59998 12.3538 8.27997Z" fill="white"/>
</g>
<defs>
<clipPath id="clip0">
<rect width="18" height="18" transform="matrix(-1 0 0 1 18 0)" fill="white"/>
</clipPath>
</defs>
</svg>
